<svg version="1.1" xmlns="http://www.w3.org/2000/svg" xmlns:xlink="http://www.w3.org/1999/xlink" viewBox="0,0,1024,1024">
	<!-- Color names: color-1, color-2, color-3 -->
	<desc>bell icon - Licensed under Iconfu Standard License v1.0 (https://www.iconfu.com/iconfu_standard_license) - Incors GmbH</desc>
	<defs>
		<clipPath id="clip-Sb1n0QOT">
			<path d="M0,1024v-990.19h1024v990.19z"/>
		</clipPath>
		<clipPath id="clip-TFESzzYD">
			<path d="M728.88,728.88c-119.78,119.78 -313.97,119.78 -433.75,0c-119.78,-119.78 -119.78,-313.97 0,-433.75c119.78,-119.78 313.97,-119.78 433.75,0c119.78,119.78 119.78,313.97 0,433.75z"/>
		</clipPath>
		<clipPath id="clip-XQ5Ntdi4">
			<path d="M324.22,310.69h375.56v443.86c-3.9,3.03 -7.86,5.95 -11.86,8.76h-351.83c-4.01,-2.81 -7.96,-5.73 -11.86,-8.76z"/>
		</clipPath>
		<linearGradient x1="512" y1="112.64" x2="512" y2="911.36" id="color-ch528LvA" gradientUnits="userSpaceOnUse">
			<stop offset="0" stop-color="#000000"/>
			<stop offset="1" stop-color="#ffffff"/>
		</linearGradient>
		<linearGradient x1="262.45" y1="112.64" x2="761.55" y2="911.36" id="color-EiME1W4f" gradientUnits="userSpaceOnUse">
			<stop offset="0" stop-color="#bfbfbf"/>
			<stop offset="1" stop-color="#ffffff"/>
		</linearGradient>
		<linearGradient x1="262.45" y1="112.64" x2="761.55" y2="911.36" id="color-qSiN0Bu4" gradientUnits="userSpaceOnUse">
			<stop offset="0" stop-color="#000000"/>
			<stop offset="1" stop-color="#ffffff"/>
		</linearGradient>
		<filter id="filter-9uCGmki3" color-interpolation-filters="sRGB">
			<feColorMatrix values="0.17 0.72 0.11 0 -0.1 0.64 0.28 0.08 0 -0.1 0.20 0.23 0.57 0 -0.1 0 0 0 1 0"/>
			<feColorMatrix values="-0.65039 1.77384 -0.12345 0 0 1.60663 -0.345 -0.26163 0 0 -0.42008 -0.48319 1.90327 0 0 0 0 0 1 0"/>
		</filter>
		<filter id="filter-fGSKG9ks" x="0%" y="0%" width="100%" height="100%" color-interpolation-filters="sRGB">
			<feColorMatrix values="1 0 0 0 0 0 1 0 0 0 0 0 1 0 0 0 0 0 0.1 0" in="SourceGraphic"/>
			<feOffset dy="10"/>
			<feGaussianBlur stdDeviation="5.5" result="blur0"/>
			<feColorMatrix values="1 0 0 0 0 0 1 0 0 0 0 0 1 0 0 0 0 0 0.15 0" in="SourceGraphic"/>
			<feOffset dy="15"/>
			<feGaussianBlur stdDeviation="10" result="blur1"/>
			<feMerge>
				<feMergeNode in="blur0"/>
				<feMergeNode in="blur1"/>
			</feMerge>
		</filter>
		<filter id="filter-HY4gFK6U" color-interpolation-filters="sRGB">
			<feOffset/>
		</filter>
		<filter id="filter-ldf7NMQh" color-interpolation-filters="sRGB">
			<feColorMatrix values="0.17 0.72 0.11 0 -0.03 0.64 0.28 0.08 0 -0.03 0.20 0.23 0.57 0 -0.03 0 0 0 1 0"/>
			<feColorMatrix values="-0.65039 1.77384 -0.12345 0 0 1.60663 -0.345 -0.26163 0 0 -0.42008 -0.48319 1.90327 0 0 0 0 0 1 0"/>
		</filter>
		<filter id="filter-q0u06Uve" x="-22%" y="-10%" width="158%" height="157%" color-interpolation-filters="sRGB">
			<feColorMatrix values="1 0 0 0 0 0 1 0 0 0 0 0 1 0 0 0 0 0 0.67 0" in="SourceGraphic"/>
			<feOffset dy="36.67"/>
			<feGaussianBlur stdDeviation="20.17" result="blur0"/>
			<feColorMatrix values="1 0 0 0 0 0 1 0 0 0 0 0 1 0 0 0 0 0 1 0" in="SourceGraphic"/>
			<feOffset dy="55"/>
			<feGaussianBlur stdDeviation="36.67" result="blur1"/>
			<feMerge>
				<feMergeNode in="blur0"/>
				<feMergeNode in="blur1"/>
			</feMerge>
		</filter>
		<filter id="filter-VefftGKO" x="-17%" y="-6%" width="265%" height="219%" color-interpolation-filters="sRGB">
			<feColorMatrix values="1 0 0 0 0 0 1 0 0 0 0 0 1 0 0 0 0 0 0.1 0" in="SourceGraphic"/>
			<feOffset dy="10"/>
			<feGaussianBlur stdDeviation="5.5" result="blur0"/>
			<feColorMatrix values="1 0 0 0 0 0 1 0 0 0 0 0 1 0 0 0 0 0 0.15 0" in="SourceGraphic"/>
			<feOffset dy="15"/>
			<feGaussianBlur stdDeviation="10" result="blur1"/>
			<feMerge>
				<feMergeNode in="blur0"/>
				<feMergeNode in="blur1"/>
			</feMerge>
		</filter>
		<mask id="mask-3DNpz8rf">
			<path d="M794.39,794.39c-155.96,155.96 -408.82,155.96 -564.78,0c-155.96,-155.96 -155.96,-408.82 0,-564.78c155.96,-155.96 408.82,-155.96 564.78,0c155.96,155.96 155.96,408.82 0,564.78z" fill="url(#color-EiME1W4f)"/>
		</mask>
		<mask id="mask-6anG7rN7">
			<path d="M728.88,728.88c-119.78,119.78 -313.97,119.78 -433.75,0c-119.78,-119.78 -119.78,-313.97 0,-433.75c119.78,-119.78 313.97,-119.78 433.75,0c119.78,119.78 119.78,313.97 0,433.75z" fill="#ffffff"/>
		</mask>
		<mask id="mask-9X28zNbu">
			<path d="M794.39,794.39c-155.96,155.96 -408.82,155.96 -564.78,0c-155.96,-155.96 -155.96,-408.82 0,-564.78c155.96,-155.96 408.82,-155.96 564.78,0c155.96,155.96 155.96,408.82 0,564.78z" fill="#ffffff"/>
		</mask>
		<mask id="mask-knqpsDDA">
			<path d="M561.76,653.28c-5.7,22.16 -25.82,38.53 -49.76,38.53c-23.94,0 -44.05,-16.37 -49.76,-38.53zM556.53,393.7c34.45,16.59 58.22,51.82 58.22,92.62c0,49.11 0,98.22 33.66,124.89c3.18,2.52 4.87,6.01 4.87,10.07v6.32c0,7.07 -5.77,12.84 -12.84,12.84h-256.87c-7.07,0 -12.84,-5.77 -12.84,-12.84v-6.32c0,-4.06 1.69,-7.55 4.87,-10.07c33.66,-26.67 33.66,-75.78 33.66,-124.89c0,-40.79 23.77,-76.02 58.22,-92.62c5.46,-2.63 8.29,-8.5 6.95,-14.41c-0.63,-2.75 -0.96,-5.62 -0.96,-8.56c0,-21.28 17.25,-38.53 38.53,-38.53c21.28,0 38.53,17.25 38.53,38.53c0,2.94 -0.33,5.81 -0.96,8.56c-1.34,5.91 1.5,11.78 6.95,14.41zM525.09,414.47c-2.39,-3.19 -5.75,-4.97 -9.74,-5.15c-1.11,-0.05 -2.23,-0.07 -3.36,-0.07c-42.56,0 -77.06,34.53 -77.06,77.06c0,36.6 0.08,77.26 -15.64,110.04c-1.97,4.09 -1.71,8.55 0.71,12.39c2.43,3.87 6.34,6 10.9,6c5.06,0 9.38,-2.72 11.58,-7.28c17.8,-37 18.15,-80.44 18.15,-121.16c0,-28.36 23.01,-51.37 51.37,-51.37c0.75,0 1.5,0.02 2.24,0.05c6.16,0.26 11.52,-3.74 13.02,-9.72c0.97,-3.87 0.22,-7.6 -2.17,-10.8zM512,357.88c-7.09,0 -12.84,5.75 -12.84,12.84c0,7.09 5.75,12.84 12.84,12.84c7.09,0 12.84,-5.75 12.84,-12.84c0,-7.09 -5.75,-12.84 -12.84,-12.84z" fill="#ffffff"/>
		</mask>
		<mask id="mask-Nrds5EMy">
			<rect fill="url(#color-ch528LvA)" x="112.64" y="112.64" width="798.72" height="798.72"/>
		</mask>
		<mask id="mask-QXSnEblL">
			<path d="M737.91,737.91c-124.77,124.77 -327.06,124.77 -451.82,0c-124.77,-124.77 -124.77,-327.06 0,-451.82c124.77,-124.77 327.06,-124.77 451.82,0c124.77,124.77 124.77,327.06 0,451.82z" fill="#ffffff"/>
		</mask>
		<mask id="mask-r4fH19c3">
			<rect fill="url(#color-ch528LvA)" x="370.72" y="332.19" width="282.56" height="359.62"/>
		</mask>
		<mask id="mask-SC8FZN7w">
			<rect fill="url(#color-ch528LvA)" x="192.51" y="192.51" width="638.98" height="638.98"/>
		</mask>
		<mask id="mask-wV1VnjdU">
			<rect fill="url(#color-ch528LvA)" x="205.29" y="205.29" width="613.42" height="613.42"/>
		</mask>
		<mask id="mask-zMuA9wLt">
			<rect fill="url(#color-qSiN0Bu4)" x="-57.86" y="33.81" width="1139.72" height="1139.72"/>
		</mask>
	</defs>
	<g fill="none" fill-rule="nonzero" style="mix-blend-mode: normal">
		<g clip-path="url(#clip-Sb1n0QOT)">
			<g filter="url(#filter-q0u06Uve)">
				<g filter="url(#filter-HY4gFK6U)" mask="url(#mask-3DNpz8rf)">
					<g color="#00f4f9" class="color-2">
						<rect x="-57.86" y="33.81" width="1139.72" height="1139.72" fill="currentColor"/>
					</g>
					<g color="#738ace" class="color-1" mask="url(#mask-zMuA9wLt)">
						<rect x="-57.86" y="33.81" width="1139.72" height="1139.72" fill="currentColor"/>
					</g>
				</g>
			</g>
		</g>
		<g mask="url(#mask-9X28zNbu)">
			<g color="#ffffff" class="color-3">
				<rect x="112.64" y="112.64" width="798.72" height="798.72" fill="currentColor"/>
			</g>
			<g color="#ffffff" class="color-3" mask="url(#mask-Nrds5EMy)">
				<defs>
					<pattern id="pattern-aLrMnQna" x="4" y="4" width="64" height="64" patternUnits="userSpaceOnUse">
						<rect filter="url(#filter-9uCGmki3)" fill="currentColor" x="0" y="0" width="72" height="72"/>
					</pattern>
				</defs>
				<rect x="112.64" y="112.64" width="798.72" height="798.72" fill="url(#pattern-aLrMnQna)"/>
			</g>
		</g>
		<g mask="url(#mask-QXSnEblL)">
			<g color="#ffffff" class="color-3">
				<defs>
					<pattern id="pattern-m7El3aU8" x="4" y="4" width="64" height="64" patternUnits="userSpaceOnUse">
						<rect filter="url(#filter-9uCGmki3)" fill="currentColor" x="0" y="0" width="72" height="72"/>
					</pattern>
				</defs>
				<rect x="192.51" y="192.51" width="638.98" height="638.98" fill="url(#pattern-m7El3aU8)"/>
			</g>
			<g color="#ffffff" class="color-3" mask="url(#mask-SC8FZN7w)">
				<defs>
					<pattern id="pattern-OZJh5ZPe" x="4" y="4" width="64" height="64" patternUnits="userSpaceOnUse">
						<rect filter="url(#filter-ldf7NMQh)" fill="currentColor" x="0" y="0" width="72" height="72"/>
					</pattern>
				</defs>
				<rect x="192.51" y="192.51" width="638.98" height="638.98" fill="url(#pattern-OZJh5ZPe)"/>
			</g>
		</g>
		<g mask="url(#mask-6anG7rN7)">
			<g color="#738ace" class="color-1">
				<rect x="205.29" y="205.29" width="613.42" height="613.42" fill="currentColor"/>
			</g>
			<g color="#00f4f9" class="color-2" mask="url(#mask-wV1VnjdU)">
				<rect x="205.29" y="205.29" width="613.42" height="613.42" fill="currentColor"/>
			</g>
		</g>
		<g clip-path="url(#clip-TFESzzYD)">
			<path d="M158.79,840.21v-706.42h706.42v706.42zM728.88,295.12c-119.78,-119.78 -313.97,-119.78 -433.75,0c-119.78,119.78 -119.78,313.97 0,433.75c119.78,119.78 313.97,119.78 433.75,0c119.78,-119.78 119.78,-313.97 0,-433.75z" fill="#000000" fill-opacity="1" filter="url(#filter-fGSKG9ks)"/>
		</g>
		<g clip-path="url(#clip-XQ5Ntdi4)">
			<path d="M561.76,653.28c-5.7,22.16 -25.82,38.53 -49.76,38.53c-23.94,0 -44.05,-16.37 -49.76,-38.53zM556.53,393.7c34.45,16.59 58.22,51.82 58.22,92.62c0,49.11 0,98.22 33.66,124.89c3.18,2.52 4.87,6.01 4.87,10.07v6.32c0,7.07 -5.77,12.84 -12.84,12.84h-256.87c-7.07,0 -12.84,-5.77 -12.84,-12.84v-6.32c0,-4.06 1.69,-7.55 4.87,-10.07c33.66,-26.67 33.66,-75.78 33.66,-124.89c0,-40.79 23.77,-76.02 58.22,-92.62c5.46,-2.63 8.29,-8.5 6.95,-14.41c-0.63,-2.75 -0.96,-5.62 -0.96,-8.56c0,-21.28 17.25,-38.53 38.53,-38.53c21.28,0 38.53,17.25 38.53,38.53c0,2.94 -0.33,5.81 -0.96,8.56c-1.34,5.91 1.5,11.78 6.95,14.41zM525.09,414.47c-2.39,-3.19 -5.75,-4.97 -9.74,-5.15c-1.11,-0.05 -2.23,-0.07 -3.36,-0.07c-42.56,0 -77.06,34.53 -77.06,77.06c0,36.6 0.08,77.26 -15.64,110.04c-1.97,4.09 -1.71,8.55 0.71,12.39c2.43,3.87 6.34,6 10.9,6c5.06,0 9.38,-2.72 11.58,-7.28c17.8,-37 18.15,-80.44 18.15,-121.16c0,-28.36 23.01,-51.37 51.37,-51.37c0.75,0 1.5,0.02 2.24,0.05c6.16,0.26 11.52,-3.74 13.02,-9.72c0.97,-3.87 0.22,-7.6 -2.17,-10.8zM512,357.88c-7.09,0 -12.84,5.75 -12.84,12.84c0,7.09 5.75,12.84 12.84,12.84c7.09,0 12.84,-5.75 12.84,-12.84c0,-7.09 -5.75,-12.84 -12.84,-12.84z" fill="#000000" fill-opacity="1" filter="url(#filter-VefftGKO)"/>
		</g>
		<g mask="url(#mask-knqpsDDA)">
			<g color="#ffffff" class="color-3">
				<rect x="370.72" y="332.19" width="282.56" height="359.62" fill="currentColor"/>
			</g>
			<g color="#ffffff" class="color-3" mask="url(#mask-r4fH19c3)">
				<defs>
					<pattern id="pattern-wL0VTfJa" x="4" y="4" width="64" height="64" patternUnits="userSpaceOnUse">
						<rect filter="url(#filter-9uCGmki3)" fill="currentColor" x="0" y="0" width="72" height="72"/>
					</pattern>
				</defs>
				<rect x="370.72" y="332.19" width="282.56" height="359.62" fill="url(#pattern-wL0VTfJa)"/>
			</g>
		</g>
	</g>
</svg>