<svg version="1.1" xmlns="http://www.w3.org/2000/svg" xmlns:xlink="http://www.w3.org/1999/xlink" viewBox="0,0,1024,1024">
	<!-- Color names: color-1, color-2, color-3 -->
	<desc>music icon - Licensed under Iconfu Standard License v1.0 (https://www.iconfu.com/iconfu_standard_license) - Incors GmbH</desc>
	<defs>
		<clipPath id="clip-9cw1uXqe">
			<path d="M285.69,309.57h426.93v434.44c-8.48,7.35 -17.26,14.15 -26.31,20.41h-348.62c-14.97,-10.37 -29.23,-22.22 -42.56,-35.55c-3.23,-3.23 -6.38,-6.52 -9.43,-9.85z"/>
		</clipPath>
		<clipPath id="clip-EjtngQzz">
			<path d="M0,1024v-990.19h1024v990.19z"/>
		</clipPath>
		<clipPath id="clip-fFgdlNyn">
			<path d="M728.88,728.88c-119.78,119.78 -313.97,119.78 -433.75,0c-119.78,-119.78 -119.78,-313.97 0,-433.75c119.78,-119.78 313.97,-119.78 433.75,0c119.78,119.78 119.78,313.97 0,433.75z"/>
		</clipPath>
		<linearGradient x1="512" y1="112.64" x2="512" y2="911.36" id="color-FMS0nuhn" gradientUnits="userSpaceOnUse">
			<stop offset="0" stop-color="#000000"/>
			<stop offset="1" stop-color="#ffffff"/>
		</linearGradient>
		<linearGradient x1="262.45" y1="112.64" x2="761.55" y2="911.36" id="color-UaYRfWWQ" gradientUnits="userSpaceOnUse">
			<stop offset="0" stop-color="#000000"/>
			<stop offset="1" stop-color="#ffffff"/>
		</linearGradient>
		<linearGradient x1="262.45" y1="112.64" x2="761.55" y2="911.36" id="color-WupVSKy2" gradientUnits="userSpaceOnUse">
			<stop offset="0" stop-color="#bfbfbf"/>
			<stop offset="1" stop-color="#ffffff"/>
		</linearGradient>
		<filter id="filter-6KnELmDa" x="-14%" y="-6%" width="228%" height="218%" color-interpolation-filters="sRGB">
			<feColorMatrix values="1 0 0 0 0 0 1 0 0 0 0 0 1 0 0 0 0 0 0.1 0" in="SourceGraphic"/>
			<feOffset dy="10"/>
			<feGaussianBlur stdDeviation="5.5" result="blur0"/>
			<feColorMatrix values="1 0 0 0 0 0 1 0 0 0 0 0 1 0 0 0 0 0 0.15 0" in="SourceGraphic"/>
			<feOffset dy="15"/>
			<feGaussianBlur stdDeviation="10" result="blur1"/>
			<feMerge>
				<feMergeNode in="blur0"/>
				<feMergeNode in="blur1"/>
			</feMerge>
		</filter>
		<filter id="filter-hCIKfbE9" color-interpolation-filters="sRGB">
			<feOffset/>
		</filter>
		<filter id="filter-mgwyyAcb" color-interpolation-filters="sRGB">
			<feColorMatrix values="0.17 0.72 0.11 0 -0.03 0.64 0.28 0.08 0 -0.03 0.20 0.23 0.57 0 -0.03 0 0 0 1 0"/>
			<feColorMatrix values="-0.65039 1.77384 -0.12345 0 0 1.60663 -0.345 -0.26163 0 0 -0.42008 -0.48319 1.90327 0 0 0 0 0 1 0"/>
		</filter>
		<filter id="filter-QSaSXPjv" x="0%" y="0%" width="100%" height="100%" color-interpolation-filters="sRGB">
			<feColorMatrix values="1 0 0 0 0 0 1 0 0 0 0 0 1 0 0 0 0 0 0.1 0" in="SourceGraphic"/>
			<feOffset dy="10"/>
			<feGaussianBlur stdDeviation="5.5" result="blur0"/>
			<feColorMatrix values="1 0 0 0 0 0 1 0 0 0 0 0 1 0 0 0 0 0 0.15 0" in="SourceGraphic"/>
			<feOffset dy="15"/>
			<feGaussianBlur stdDeviation="10" result="blur1"/>
			<feMerge>
				<feMergeNode in="blur0"/>
				<feMergeNode in="blur1"/>
			</feMerge>
		</filter>
		<filter id="filter-uxiVCw0g" x="-22%" y="-10%" width="158%" height="157%" color-interpolation-filters="sRGB">
			<feColorMatrix values="1 0 0 0 0 0 1 0 0 0 0 0 1 0 0 0 0 0 0.67 0" in="SourceGraphic"/>
			<feOffset dy="36.67"/>
			<feGaussianBlur stdDeviation="20.17" result="blur0"/>
			<feColorMatrix values="1 0 0 0 0 0 1 0 0 0 0 0 1 0 0 0 0 0 1 0" in="SourceGraphic"/>
			<feOffset dy="55"/>
			<feGaussianBlur stdDeviation="36.67" result="blur1"/>
			<feMerge>
				<feMergeNode in="blur0"/>
				<feMergeNode in="blur1"/>
			</feMerge>
		</filter>
		<filter id="filter-YiNLBv9N" color-interpolation-filters="sRGB">
			<feColorMatrix values="0.17 0.72 0.11 0 -0.1 0.64 0.28 0.08 0 -0.1 0.20 0.23 0.57 0 -0.1 0 0 0 1 0"/>
			<feColorMatrix values="-0.65039 1.77384 -0.12345 0 0 1.60663 -0.345 -0.26163 0 0 -0.42008 -0.48319 1.90327 0 0 0 0 0 1 0"/>
		</filter>
		<mask id="mask-5cyhmy3z">
			<path d="M794.39,794.39c-155.96,155.96 -408.82,155.96 -564.78,0c-155.96,-155.96 -155.96,-408.82 0,-564.78c155.96,-155.96 408.82,-155.96 564.78,0c155.96,155.96 155.96,408.82 0,564.78z" fill="url(#color-WupVSKy2)"/>
		</mask>
		<mask id="mask-BH6tZeCL">
			<path d="M737.91,737.91c-124.77,124.77 -327.06,124.77 -451.82,0c-124.77,-124.77 -124.77,-327.06 0,-451.82c124.77,-124.77 327.06,-124.77 451.82,0c124.77,124.77 124.77,327.06 0,451.82z" fill="#ffffff"/>
		</mask>
		<mask id="mask-Dl4cc9qT">
			<rect fill="url(#color-UaYRfWWQ)" x="-57.86" y="33.81" width="1139.72" height="1139.72"/>
		</mask>
		<mask id="mask-ikRL9VXs">
			<rect fill="url(#color-FMS0nuhn)" x="192.51" y="192.51" width="638.98" height="638.98"/>
		</mask>
		<mask id="mask-jit2b3sN">
			<rect fill="url(#color-FMS0nuhn)" x="332.19" y="331.07" width="333.93" height="361.85"/>
		</mask>
		<mask id="mask-khLMUReu">
			<path d="M601.9,548.49c14.46,-4.11 27.8,-4.07 38.53,-0.67v-159.41l-179.81,41.7v190.05c0,28.38 -28.75,59.55 -64.22,69.62c-35.46,10.07 -64.22,-4.76 -64.22,-33.13c0,-28.38 28.75,-59.54 64.22,-69.62c14.46,-4.11 27.8,-4.07 38.53,-0.67v-201.66l231.18,-53.61v250.54c0,28.38 -28.75,59.55 -64.22,69.62c-35.46,10.07 -64.22,-4.76 -64.22,-33.13c0,-28.38 28.75,-59.54 64.22,-69.62z" fill="#ffffff"/>
		</mask>
		<mask id="mask-Lx9Erf57">
			<rect fill="url(#color-FMS0nuhn)" x="112.64" y="112.64" width="798.72" height="798.72"/>
		</mask>
		<mask id="mask-N0txvyAU">
			<path d="M728.88,728.88c-119.78,119.78 -313.97,119.78 -433.75,0c-119.78,-119.78 -119.78,-313.97 0,-433.75c119.78,-119.78 313.97,-119.78 433.75,0c119.78,119.78 119.78,313.97 0,433.75z" fill="#ffffff"/>
		</mask>
		<mask id="mask-pN2UH6CX">
			<path d="M794.39,794.39c-155.96,155.96 -408.82,155.96 -564.78,0c-155.96,-155.96 -155.96,-408.82 0,-564.78c155.96,-155.96 408.82,-155.96 564.78,0c155.96,155.96 155.96,408.82 0,564.78z" fill="#ffffff"/>
		</mask>
		<mask id="mask-pZwZ97wm">
			<rect fill="url(#color-FMS0nuhn)" x="205.29" y="205.29" width="613.42" height="613.42"/>
		</mask>
	</defs>
	<g fill="none" fill-rule="nonzero" style="mix-blend-mode: normal">
		<g clip-path="url(#clip-EjtngQzz)">
			<g filter="url(#filter-uxiVCw0g)">
				<g filter="url(#filter-hCIKfbE9)" mask="url(#mask-5cyhmy3z)">
					<g color="#00f4f9" class="color-2">
						<rect x="-57.86" y="33.81" width="1139.72" height="1139.72" fill="currentColor"/>
					</g>
					<g color="#738ace" class="color-1" mask="url(#mask-Dl4cc9qT)">
						<rect x="-57.86" y="33.81" width="1139.72" height="1139.72" fill="currentColor"/>
					</g>
				</g>
			</g>
		</g>
		<g mask="url(#mask-pN2UH6CX)">
			<g color="#ffffff" class="color-3">
				<rect x="112.64" y="112.64" width="798.72" height="798.72" fill="currentColor"/>
			</g>
			<g color="#ffffff" class="color-3" mask="url(#mask-Lx9Erf57)">
				<defs>
					<pattern id="pattern-RTrStj5Y" x="4" y="4" width="64" height="64" patternUnits="userSpaceOnUse">
						<rect filter="url(#filter-YiNLBv9N)" fill="currentColor" x="0" y="0" width="72" height="72"/>
					</pattern>
				</defs>
				<rect x="112.64" y="112.64" width="798.72" height="798.72" fill="url(#pattern-RTrStj5Y)"/>
			</g>
		</g>
		<g mask="url(#mask-BH6tZeCL)">
			<g color="#ffffff" class="color-3">
				<defs>
					<pattern id="pattern-DFIf85ym" x="4" y="4" width="64" height="64" patternUnits="userSpaceOnUse">
						<rect filter="url(#filter-YiNLBv9N)" fill="currentColor" x="0" y="0" width="72" height="72"/>
					</pattern>
				</defs>
				<rect x="192.51" y="192.51" width="638.98" height="638.98" fill="url(#pattern-DFIf85ym)"/>
			</g>
			<g color="#ffffff" class="color-3" mask="url(#mask-ikRL9VXs)">
				<defs>
					<pattern id="pattern-V4PzAqNA" x="4" y="4" width="64" height="64" patternUnits="userSpaceOnUse">
						<rect filter="url(#filter-mgwyyAcb)" fill="currentColor" x="0" y="0" width="72" height="72"/>
					</pattern>
				</defs>
				<rect x="192.51" y="192.51" width="638.98" height="638.98" fill="url(#pattern-V4PzAqNA)"/>
			</g>
		</g>
		<g mask="url(#mask-N0txvyAU)">
			<g color="#738ace" class="color-1">
				<rect x="205.29" y="205.29" width="613.42" height="613.42" fill="currentColor"/>
			</g>
			<g color="#00f4f9" class="color-2" mask="url(#mask-pZwZ97wm)">
				<rect x="205.29" y="205.29" width="613.42" height="613.42" fill="currentColor"/>
			</g>
		</g>
		<g clip-path="url(#clip-fFgdlNyn)">
			<path d="M158.79,840.21v-706.42h706.42v706.42zM728.88,295.12c-119.78,-119.78 -313.97,-119.78 -433.75,0c-119.78,119.78 -119.78,313.97 0,433.75c119.78,119.78 313.97,119.78 433.75,0c119.78,-119.78 119.78,-313.97 0,-433.75z" fill="#000000" fill-opacity="1" filter="url(#filter-QSaSXPjv)"/>
		</g>
		<g clip-path="url(#clip-9cw1uXqe)">
			<path d="M601.9,548.49c14.46,-4.11 27.8,-4.07 38.53,-0.67v-159.41l-179.81,41.7v190.05c0,28.38 -28.75,59.55 -64.22,69.62c-35.46,10.07 -64.22,-4.76 -64.22,-33.13c0,-28.38 28.75,-59.54 64.22,-69.62c14.46,-4.11 27.8,-4.07 38.53,-0.67v-201.66l231.18,-53.61v250.54c0,28.38 -28.75,59.55 -64.22,69.62c-35.46,10.07 -64.22,-4.76 -64.22,-33.13c0,-28.38 28.75,-59.54 64.22,-69.62z" fill="#000000" fill-opacity="1" filter="url(#filter-6KnELmDa)"/>
		</g>
		<g mask="url(#mask-khLMUReu)">
			<g color="#ffffff" class="color-3">
				<rect x="332.19" y="331.07" width="333.93" height="361.85" fill="currentColor"/>
			</g>
			<g color="#ffffff" class="color-3" mask="url(#mask-jit2b3sN)">
				<defs>
					<pattern id="pattern-Nqx5dgRA" x="4" y="4" width="64" height="64" patternUnits="userSpaceOnUse">
						<rect filter="url(#filter-YiNLBv9N)" fill="currentColor" x="0" y="0" width="72" height="72"/>
					</pattern>
				</defs>
				<rect x="332.19" y="331.07" width="333.93" height="361.85" fill="url(#pattern-Nqx5dgRA)"/>
			</g>
		</g>
	</g>
</svg>