<svg version="1.1" xmlns="http://www.w3.org/2000/svg" xmlns:xlink="http://www.w3.org/1999/xlink" viewBox="0,0,1024,1024">
	<!-- Color names: color-1, color-2, color-3 -->
	<desc>brain icon - Licensed under Iconfu Standard License v1.0 (https://www.iconfu.com/iconfu_standard_license) - Incors GmbH</desc>
	<defs>
		<clipPath id="clip-tF7yfNiO">
			<path d="M437.6,60.06c27.86,-0.09 54.5,10.16 73.32,30.9c27.88,-39.78 95.18,-54.86 126.5,-13.14c8.16,-2.72 16.37,-2.01 23.91,0.32c22.07,6.83 48.71,30.14 58.07,50.64c24.31,5.4 48.74,25.48 56.35,49.54c12.87,3.32 23.62,10.11 33.05,19.47c14.16,14.07 40.4,59.36 49.42,79.77c12.46,28.16 30.72,76.29 22.3,102.24c0.94,1.68 10.5,11 11.51,11c22.78,24.06 19.61,60.87 17.03,91.04c-0.76,8.81 -0.55,20.02 -3.99,28.11c7.66,9.11 10.35,22.13 10.35,33.76c0,8.49 -7.91,80.91 -8.14,82.98c-3.37,13.15 -7.69,27.84 -17.19,37.94c14.34,35.77 -10.05,80.67 -39.69,100.44c-1.48,35.7 -37.48,75.26 -70.39,85.8c-17.48,41.7 -61.06,64.74 -104.93,64.74c0,14.81 -23.43,30 -35.17,36.36c-34.71,18.73 -96.27,30.5 -128.44,0.84c-16.33,14.19 -40.48,19.37 -61.56,18.98c-43.98,-0.83 -66.63,-17.6 -78.41,-54.75c-27.77,5.67 -60.06,-3.86 -82.84,-20c-24.42,-17.3 -49.88,-41.24 -71.47,-62.53c-13.33,-13.15 -33.7,-32.91 -37.09,-51.31c-1.13,-6.14 -0.74,-12.35 1.57,-18.18c-23.48,-13.86 -40.03,-34.5 -46.4,-61.71c-4.36,-18.64 -2.75,-38.61 7.49,-55.12c-7.31,-4.75 -14.02,-10.93 -18.75,-18.27c-12.46,-19.37 -11.56,-47.58 -10.84,-70.25c0.11,-3.58 0.21,-6.94 0.21,-12.61c0,-16.49 7.64,-31.43 20.02,-42.09c-21.95,-45.46 -6.2,-88.66 7.01,-132.71c11.49,-38.33 31.13,-103.79 63.3,-125.95c5.72,-3.94 11.77,-6.94 18.53,-8.72c-0.85,-30.54 25.27,-63.83 45.52,-84.63c26.75,-27.47 60.79,-55.41 101.5,-47.29c2.26,-33 40.14,-45.61 68.34,-45.61zM677.66,759.17l9.92,29.79c7.26,21.96 -26.11,32.99 -33.37,11.03l-15.34,-46.01l-28.8,-14.39c-20.69,-10.35 -4.95,-41.79 15.72,-31.46l31.44,15.73h86.62l-16.85,-25.26c-1.98,-2.86 -3.14,-6.32 -3.14,-10.05v-35.31c0,-23.22 35.31,-23.22 35.31,0v29.96l27.1,40.66h56.8c21.27,-24.98 19.33,-36.7 6.32,-62.76l-17.65,-35.31c-10.35,-20.67 21.09,-36.41 31.44,-15.72l7.82,15.65c7.98,-26.99 9.09,-54.08 9.09,-82.01c0,-13.17 -7.96,-18.08 -16.01,-27.56c7.42,-17.34 8.18,-17.99 9.82,-37.22c1.5,-17.57 6.41,-56.32 -11.67,-67.39l-40.29,26.87c-19.3,12.87 -38.88,-16.52 -19.6,-29.37l39.64,-26.42l4.97,-13.61c4.93,-13.44 -13.19,-59.57 -21.01,-77.24c-3.8,-8.6 -7.55,-15.5 -12.67,-23.32l-16.1,34.27c-1.15,2.84 -3.04,5.43 -5.67,7.43l-67.39,51.45c-2.12,7.77 -0.25,51.03 -0.25,62.12c0,23.22 -35.31,23.22 -35.31,0v-35.31c0,-14.81 -27.62,6.99 -43.62,14.99c-6.81,4.25 -15.92,3.41 -21.83,-2.5l-17.65,-17.66c-16.42,-16.42 8.54,-41.38 24.96,-24.96l8.72,8.7l57.56,-28.78l70.07,-53.48l24.88,-52.93c-13.91,-18.98 -22.6,-18.9 -43.43,-24.27c-12.46,-38.17 -16.61,-40.08 -53.44,-47.97c-9.73,-21.31 -18.47,-37.16 -41.53,-46.91v28.6c0,23.22 -35.31,23.22 -35.31,0v-30.38c-14.58,-19.95 -27.28,-29.36 -53.46,-19.05c-15.36,6.04 -25.16,18.43 -33.6,32.02c10.26,23.55 16.78,50.36 12.68,76.08l44.42,29.61h57.96l12.48,-12.48c16.42,-16.42 41.39,8.54 24.97,24.96l-17.46,17.46c-3.2,3.3 -7.7,5.37 -12.68,5.37h-70.62c-3.37,0 -6.78,-0.96 -9.8,-2.97l-42.16,-28.11c-13.81,21.13 -12.71,23.42 -7.15,49.46c4.29,20 8.81,41.14 -0.09,65.29c0.99,9.78 3,18.44 5.07,27.36c4.34,18.8 10.15,46.51 5.97,65.52h48.16c23.22,0 23.22,35.31 0,35.31h-60.79c-14.14,38.75 -13.47,65.43 3.87,102.7c7.98,17.2 5.98,20.16 6.37,37.99l68.21,0.55c21.52,0 23.21,-21.95 24.8,-42.32c0.76,-9.89 1.5,-19.58 3.3,-28.3h-10.45c-23.22,0 -23.22,-35.31 0,-35.31h105.93v-17.66c0,-23.22 35.31,-23.22 35.31,0v24.49l25.51,12.75c20.69,10.35 4.96,41.79 -15.71,31.46l-31.44,-15.73h-66.63c-8.26,0 -9.41,14.93 -10.65,30.93c-2.79,36.1 -5.8,75 -59.97,75h-66.88c1.71,73.83 -36.03,102.45 -36.05,102.91c18.98,13.42 27.97,31.43 34.41,52.93l25.35,-12.67c20.67,-10.33 36.4,21.11 15.71,31.46l-34.04,17.02c2.51,25.37 -0.02,51.64 -8.28,75.79c16.31,30.91 84.98,8.56 108.46,-10.01c-5.81,-8.14 -14.14,-27.81 -19.1,-37.71c-10.33,-20.67 21.11,-36.4 31.46,-15.71l11.26,22.54c49.05,2.28 71.41,-10.31 91.17,-57.43c30,-9.59 60.22,-28.34 61.65,-63.19zM476.8,727.5c26.69,-19.24 21.96,-63.67 20.71,-92.62c-0.37,-8.77 -0.69,-17.52 -0.73,-26.29c-0.07,-11.62 0.81,-6.04 -3.09,-14.44c-6.57,-14.12 -17,-36.56 -17,-64.49h-70.62c-16.21,0 -51.68,-14.98 -70.62,-19.62v19.62c0,23.22 -35.31,23.22 -35.31,0v-35.32c0,-15.24 9.12,-21.45 24.34,-21.45c12.94,0 34.75,7.09 54.14,13.39c13.06,4.24 24.84,8.06 27.45,8.06h70.62c1.15,0 2.28,0.11 3.37,0.32c3.48,-17.39 9.01,-31.23 13.72,-43.01c3.81,-9.57 6.94,-17.38 6.87,-22.45c-0.32,-18.77 -3.48,-32.38 -6.52,-45.48c-2.63,-11.42 -5.2,-22.51 -6.19,-36.67c-0.21,-3.07 0.38,-6.01 1.6,-8.62c7.43,-18.01 1.46,-37.73 -2.19,-55.95h-76.99c-4.61,0 -9.08,-0.41 -13.42,-1.22l-31.35,31.36c-16.42,16.42 -41.39,-8.54 -24.97,-24.96l22.92,-22.92c-7.79,-6.94 -15.49,-15.31 -22.92,-22.74c-16.42,-16.42 8.55,-41.38 24.97,-24.96l19.79,19.79c7.13,7.12 14.92,10.34 24.98,10.34h74.75c1.52,-9.46 5.38,-18.94 13.1,-28.62c20.99,-26.34 9.1,-64.54 -4.69,-91.34c-10.98,-21.35 -32.3,-32.07 -55.85,-31.98c-16.28,0 -32.51,2.26 -33.68,19.88l34.42,51.64c12.87,19.3 -16.5,38.88 -29.37,19.6l-28.34,-42.51c-9.78,-1.96 -19.93,-4.81 -29.96,-4.56c-17.21,0.42 -46.17,26.37 -57.73,38.23c-12.39,12.75 -33.1,37.21 -35.4,55.52c6.37,4.7 18.7,33.11 22.95,41.6c4.15,8.3 5.28,26.85 6.55,47.56c1.38,22.4 -4.62,48.57 19.21,48.57h82.09c4.52,0 9.05,1.73 12.49,5.17l17.65,17.66c16.42,16.42 -8.54,41.38 -24.96,24.96l-12.49,-12.48h-91.31l-30.14,30.14c-16.42,16.42 -41.38,-8.55 -24.96,-24.97l25.71,-25.7c-5.68,-16.3 -7.14,-39.82 -8.46,-61.29c-1.04,-16.98 -1.97,-32.18 -2.84,-33.91l-10.33,-20.66c-5.84,1.52 -10.03,2.12 -15.06,5.58c-21.93,15.11 -39.32,73.11 -49.51,107.08c-10.84,36.07 -26,71.36 -8.42,108.84l38.91,-12.97c11.51,-5.14 24.83,3.26 24.83,16.13v35.32c0,23.22 -35.31,23.22 -35.31,0v-10.9c-7.56,2.51 -28.66,10.86 -35.42,10.82c-12.48,10.73 -9.97,16.03 -10.45,31.18c-0.56,17.76 -1.27,39.87 5.33,50.13c4.17,6.48 16.42,13.1 22.74,17.21c8.16,5.28 10.47,16.19 5.17,24.33c-9.6,15.48 -16.61,22.98 -11.95,42.88c10.88,46.45 41.38,46.21 77.54,46.21c14.18,0 29.97,-1.87 40.49,-12.41c16.33,-16.42 41.29,8.4 24.96,24.82c-17.51,17.51 -41.47,22.9 -65.45,22.9h-32.25c1.71,6.96 21.06,26.74 26.97,32.57c20.27,19.99 44.14,42.72 67.06,58.95c37.45,26.52 57.34,15.29 75.86,10.7l26.43,-26.43c16.42,-16.42 41.39,8.55 24.97,24.97l-30.51,30.5c7.19,21.35 15.97,27.98 44.75,28.53c12.02,0.21 36.16,-3.03 41.99,-15.55c16.24,-34.92 15.55,-78.49 1.36,-113.98c-6.46,-16.19 -14.8,-20.87 -27.95,-30.17c-18.8,0.26 -49.98,2.91 -67.62,-0.66l-30.44,45.68c-12.87,19.3 -42.25,-0.3 -29.38,-19.6l32.86,-49.29c-5.76,-20.8 4.24,-44.61 11.69,-63.77c5.33,-13.67 10.59,-27.19 10.59,-35.28c0,-0.46 -1.31,-0.76 -5.14,-0.76h-112.76l-12.75,25.51c-10.35,20.69 -41.79,4.96 -31.46,-15.71l15.73,-31.44v-31.32c0,-23.22 35.31,-23.22 35.31,0v17.65h105.93c30.26,0 40.45,14.34 40.45,36.07c0,14.39 -6.49,31.09 -13.06,47.97c-5.56,14.3 -11.21,28.77 -11.09,37.46c0.04,1.89 2.5,3.15 9.97,3.04l42.18,-0.6z"/>
		</clipPath>
		<radialGradient cx="0" cy="0" r="1448.15" id="color-8Ff6Wp19" gradientUnits="userSpaceOnUse">
			<stop offset="0.08" stop-color="#ffffff"/>
			<stop offset="1" stop-color="#000000"/>
		</radialGradient>
		<radialGradient cx="0" cy="0" r="1448.15" id="color-gwsqZ1fK" gradientUnits="userSpaceOnUse">
			<stop offset="0.08" stop-color="#000000"/>
			<stop offset="1" stop-color="#ffffff"/>
		</radialGradient>
		<linearGradient x1="0" y1="1024" x2="1024" y2="0" id="color-pLKWnyx1" gradientUnits="userSpaceOnUse">
			<stop offset="0.2" stop-color="#000000"/>
			<stop offset="0.8" stop-color="#ffffff"/>
		</linearGradient>
		<filter id="filter-mQ7jiEN5" color-interpolation-filters="sRGB">
			<feOffset/>
		</filter>
		<filter id="filter-WZ8oAckH" x="0%" y="0%" width="100%" height="100%" color-interpolation-filters="sRGB">
			<feColorMatrix values="1 0 0 0 0 0 1 0 0 0 0 0 1 0 0 0 0 0 0.05 0" in="SourceGraphic"/>
			<feOffset dy="20"/>
			<feGaussianBlur stdDeviation="11" result="blur0"/>
			<feColorMatrix values="1 0 0 0 0 0 1 0 0 0 0 0 1 0 0 0 0 0 0.07 0" in="SourceGraphic"/>
			<feOffset dy="30"/>
			<feGaussianBlur stdDeviation="20" result="blur1"/>
			<feMerge>
				<feMergeNode in="blur0"/>
				<feMergeNode in="blur1"/>
			</feMerge>
		</filter>
		<mask id="mask-0oUhatz3">
			<rect fill="url(#color-pLKWnyx1)" x="112.81" y="52.93" width="802.61" height="918.88"/>
		</mask>
		<mask id="mask-KYUyNoSN">
			<path d="M437.6,60.06c27.86,-0.09 54.5,10.16 73.32,30.9c27.88,-39.78 95.18,-54.86 126.5,-13.14c8.16,-2.72 16.37,-2.01 23.91,0.32c22.07,6.83 48.71,30.14 58.07,50.64c24.31,5.4 48.74,25.48 56.35,49.54c12.87,3.32 23.62,10.11 33.05,19.47c14.16,14.07 40.4,59.36 49.42,79.77c12.46,28.16 30.72,76.29 22.3,102.24c0.94,1.68 10.5,11 11.51,11c22.78,24.06 19.61,60.87 17.03,91.04c-0.76,8.81 -0.55,20.02 -3.99,28.11c7.66,9.11 10.35,22.13 10.35,33.76c0,8.49 -7.91,80.91 -8.14,82.98c-3.37,13.15 -7.69,27.84 -17.19,37.94c14.34,35.77 -10.05,80.67 -39.69,100.44c-1.48,35.7 -37.48,75.26 -70.39,85.8c-17.48,41.7 -61.06,64.74 -104.93,64.74c0,14.81 -23.43,30 -35.17,36.36c-34.71,18.73 -96.27,30.5 -128.44,0.84c-16.33,14.19 -40.48,19.37 -61.56,18.98c-43.98,-0.83 -66.63,-17.6 -78.41,-54.75c-27.77,5.67 -60.06,-3.86 -82.84,-20c-24.42,-17.3 -49.88,-41.24 -71.47,-62.53c-13.33,-13.15 -33.7,-32.91 -37.09,-51.31c-1.13,-6.14 -0.74,-12.35 1.57,-18.18c-23.48,-13.86 -40.03,-34.5 -46.4,-61.71c-4.36,-18.64 -2.75,-38.61 7.49,-55.12c-7.31,-4.75 -14.02,-10.93 -18.75,-18.27c-12.46,-19.37 -11.56,-47.58 -10.84,-70.25c0.11,-3.58 0.21,-6.94 0.21,-12.61c0,-16.49 7.64,-31.43 20.02,-42.09c-21.95,-45.46 -6.2,-88.66 7.01,-132.71c11.49,-38.33 31.13,-103.79 63.3,-125.95c5.72,-3.94 11.77,-6.94 18.53,-8.72c-0.85,-30.54 25.27,-63.83 45.52,-84.63c26.75,-27.47 60.79,-55.41 101.5,-47.29c2.26,-33 40.14,-45.61 68.34,-45.61zM677.66,759.17l9.92,29.79c7.26,21.96 -26.11,32.99 -33.37,11.03l-15.34,-46.01l-28.8,-14.39c-20.69,-10.35 -4.95,-41.79 15.72,-31.46l31.44,15.73h86.62l-16.85,-25.26c-1.98,-2.86 -3.14,-6.32 -3.14,-10.05v-35.31c0,-23.22 35.31,-23.22 35.31,0v29.96l27.1,40.66h56.8c21.27,-24.98 19.33,-36.7 6.32,-62.76l-17.65,-35.31c-10.35,-20.67 21.09,-36.41 31.44,-15.72l7.82,15.65c7.98,-26.99 9.09,-54.08 9.09,-82.01c0,-13.17 -7.96,-18.08 -16.01,-27.56c7.42,-17.34 8.18,-17.99 9.82,-37.22c1.5,-17.57 6.41,-56.32 -11.67,-67.39l-40.29,26.87c-19.3,12.87 -38.88,-16.52 -19.6,-29.37l39.64,-26.42l4.97,-13.61c4.93,-13.44 -13.19,-59.57 -21.01,-77.24c-3.8,-8.6 -7.55,-15.5 -12.67,-23.32l-16.1,34.27c-1.15,2.84 -3.04,5.43 -5.67,7.43l-67.39,51.45c-2.12,7.77 -0.25,51.03 -0.25,62.12c0,23.22 -35.31,23.22 -35.31,0v-35.31c0,-14.81 -27.62,6.99 -43.62,14.99c-6.81,4.25 -15.92,3.41 -21.83,-2.5l-17.65,-17.66c-16.42,-16.42 8.54,-41.38 24.96,-24.96l8.72,8.7l57.56,-28.78l70.07,-53.48l24.88,-52.93c-13.91,-18.98 -22.6,-18.9 -43.43,-24.27c-12.46,-38.17 -16.61,-40.08 -53.44,-47.97c-9.73,-21.31 -18.47,-37.16 -41.53,-46.91v28.6c0,23.22 -35.31,23.22 -35.31,0v-30.38c-14.58,-19.95 -27.28,-29.36 -53.46,-19.05c-15.36,6.04 -25.16,18.43 -33.6,32.02c10.26,23.55 16.78,50.36 12.68,76.08l44.42,29.61h57.96l12.48,-12.48c16.42,-16.42 41.39,8.54 24.97,24.96l-17.46,17.46c-3.2,3.3 -7.7,5.37 -12.68,5.37h-70.62c-3.37,0 -6.78,-0.96 -9.8,-2.97l-42.16,-28.11c-13.81,21.13 -12.71,23.42 -7.15,49.46c4.29,20 8.81,41.14 -0.09,65.29c0.99,9.78 3,18.44 5.07,27.36c4.34,18.8 10.15,46.51 5.97,65.52h48.16c23.22,0 23.22,35.31 0,35.31h-60.79c-14.14,38.75 -13.47,65.43 3.87,102.7c7.98,17.2 5.98,20.16 6.37,37.99l68.21,0.55c21.52,0 23.21,-21.95 24.8,-42.32c0.76,-9.89 1.5,-19.58 3.3,-28.3h-10.45c-23.22,0 -23.22,-35.31 0,-35.31h105.93v-17.66c0,-23.22 35.31,-23.22 35.31,0v24.49l25.51,12.75c20.69,10.35 4.96,41.79 -15.71,31.46l-31.44,-15.73h-66.63c-8.26,0 -9.41,14.93 -10.65,30.93c-2.79,36.1 -5.8,75 -59.97,75h-66.88c1.71,73.83 -36.03,102.45 -36.05,102.91c18.98,13.42 27.97,31.43 34.41,52.93l25.35,-12.67c20.67,-10.33 36.4,21.11 15.71,31.46l-34.04,17.02c2.51,25.37 -0.02,51.64 -8.28,75.79c16.31,30.91 84.98,8.56 108.46,-10.01c-5.81,-8.14 -14.14,-27.81 -19.1,-37.71c-10.33,-20.67 21.11,-36.4 31.46,-15.71l11.26,22.54c49.05,2.28 71.41,-10.31 91.17,-57.43c30,-9.59 60.22,-28.34 61.65,-63.19zM476.8,727.5c26.69,-19.24 21.96,-63.67 20.71,-92.62c-0.37,-8.77 -0.69,-17.52 -0.73,-26.29c-0.07,-11.62 0.81,-6.04 -3.09,-14.44c-6.57,-14.12 -17,-36.56 -17,-64.49h-70.62c-16.21,0 -51.68,-14.98 -70.62,-19.62v19.62c0,23.22 -35.31,23.22 -35.31,0v-35.32c0,-15.24 9.12,-21.45 24.34,-21.45c12.94,0 34.75,7.09 54.14,13.39c13.06,4.24 24.84,8.06 27.45,8.06h70.62c1.15,0 2.28,0.11 3.37,0.32c3.48,-17.39 9.01,-31.23 13.72,-43.01c3.81,-9.57 6.94,-17.38 6.87,-22.45c-0.32,-18.77 -3.48,-32.38 -6.52,-45.48c-2.63,-11.42 -5.2,-22.51 -6.19,-36.67c-0.21,-3.07 0.38,-6.01 1.6,-8.62c7.43,-18.01 1.46,-37.73 -2.19,-55.95h-76.99c-4.61,0 -9.08,-0.41 -13.42,-1.22l-31.35,31.36c-16.42,16.42 -41.39,-8.54 -24.97,-24.96l22.92,-22.92c-7.79,-6.94 -15.49,-15.31 -22.92,-22.74c-16.42,-16.42 8.55,-41.38 24.97,-24.96l19.79,19.79c7.13,7.12 14.92,10.34 24.98,10.34h74.75c1.52,-9.46 5.38,-18.94 13.1,-28.62c20.99,-26.34 9.1,-64.54 -4.69,-91.34c-10.98,-21.35 -32.3,-32.07 -55.85,-31.98c-16.28,0 -32.51,2.26 -33.68,19.88l34.42,51.64c12.87,19.3 -16.5,38.88 -29.37,19.6l-28.34,-42.51c-9.78,-1.96 -19.93,-4.81 -29.96,-4.56c-17.21,0.42 -46.17,26.37 -57.73,38.23c-12.39,12.75 -33.1,37.21 -35.4,55.52c6.37,4.7 18.7,33.11 22.95,41.6c4.15,8.3 5.28,26.85 6.55,47.56c1.38,22.4 -4.62,48.57 19.21,48.57h82.09c4.52,0 9.05,1.73 12.49,5.17l17.65,17.66c16.42,16.42 -8.54,41.38 -24.96,24.96l-12.49,-12.48h-91.31l-30.14,30.14c-16.42,16.42 -41.38,-8.55 -24.96,-24.97l25.71,-25.7c-5.68,-16.3 -7.14,-39.82 -8.46,-61.29c-1.04,-16.98 -1.97,-32.18 -2.84,-33.91l-10.33,-20.66c-5.84,1.52 -10.03,2.12 -15.06,5.58c-21.93,15.11 -39.32,73.11 -49.51,107.08c-10.84,36.07 -26,71.36 -8.42,108.84l38.91,-12.97c11.51,-5.14 24.83,3.26 24.83,16.13v35.32c0,23.22 -35.31,23.22 -35.31,0v-10.9c-7.56,2.51 -28.66,10.86 -35.42,10.82c-12.48,10.73 -9.97,16.03 -10.45,31.18c-0.56,17.76 -1.27,39.87 5.33,50.13c4.17,6.48 16.42,13.1 22.74,17.21c8.16,5.28 10.47,16.19 5.17,24.33c-9.6,15.48 -16.61,22.98 -11.95,42.88c10.88,46.45 41.38,46.21 77.54,46.21c14.18,0 29.97,-1.87 40.49,-12.41c16.33,-16.42 41.29,8.4 24.96,24.82c-17.51,17.51 -41.47,22.9 -65.45,22.9h-32.25c1.71,6.96 21.06,26.74 26.97,32.57c20.27,19.99 44.14,42.72 67.06,58.95c37.45,26.52 57.34,15.29 75.86,10.7l26.43,-26.43c16.42,-16.42 41.39,8.55 24.97,24.97l-30.51,30.5c7.19,21.35 15.97,27.98 44.75,28.53c12.02,0.21 36.16,-3.03 41.99,-15.55c16.24,-34.92 15.55,-78.49 1.36,-113.98c-6.46,-16.19 -14.8,-20.87 -27.95,-30.17c-18.8,0.26 -49.98,2.91 -67.62,-0.66l-30.44,45.68c-12.87,19.3 -42.25,-0.3 -29.38,-19.6l32.86,-49.29c-5.76,-20.8 4.24,-44.61 11.69,-63.77c5.33,-13.67 10.59,-27.19 10.59,-35.28c0,-0.46 -1.31,-0.76 -5.14,-0.76h-112.76l-12.75,25.51c-10.35,20.69 -41.79,4.96 -31.46,-15.71l15.73,-31.44v-31.32c0,-23.22 35.31,-23.22 35.31,0v17.65h105.93c30.26,0 40.45,14.34 40.45,36.07c0,14.39 -6.49,31.09 -13.06,47.97c-5.56,14.3 -11.21,28.77 -11.09,37.46c0.04,1.89 2.5,3.15 9.97,3.04l42.18,-0.6z" fill="url(#color-8Ff6Wp19)"/>
		</mask>
		<mask id="mask-q5Yg7cB8">
			<rect fill="url(#color-gwsqZ1fK)" x="112.81" y="52.93" width="802.61" height="918.88"/>
		</mask>
		<mask id="mask-smhuvW25">
			<path d="M437.6,60.06c27.86,-0.09 54.5,10.16 73.32,30.9c27.88,-39.78 95.18,-54.86 126.5,-13.14c8.16,-2.72 16.37,-2.01 23.91,0.32c22.07,6.83 48.71,30.14 58.07,50.64c24.31,5.4 48.74,25.48 56.35,49.54c12.87,3.32 23.62,10.11 33.05,19.47c14.16,14.07 40.4,59.36 49.42,79.77c12.46,28.16 30.72,76.29 22.3,102.24c0.94,1.68 10.5,11 11.51,11c22.78,24.06 19.61,60.87 17.03,91.04c-0.76,8.81 -0.55,20.02 -3.99,28.11c7.66,9.11 10.35,22.13 10.35,33.76c0,8.49 -7.91,80.91 -8.14,82.98c-3.37,13.15 -7.69,27.84 -17.19,37.94c14.34,35.77 -10.05,80.67 -39.69,100.44c-1.48,35.7 -37.48,75.26 -70.39,85.8c-17.48,41.7 -61.06,64.74 -104.93,64.74c0,14.81 -23.43,30 -35.17,36.36c-34.71,18.73 -96.27,30.5 -128.44,0.84c-16.33,14.19 -40.48,19.37 -61.56,18.98c-43.98,-0.83 -66.63,-17.6 -78.41,-54.75c-27.77,5.67 -60.06,-3.86 -82.84,-20c-24.42,-17.3 -49.88,-41.24 -71.47,-62.53c-13.33,-13.15 -33.7,-32.91 -37.09,-51.31c-1.13,-6.14 -0.74,-12.35 1.57,-18.18c-23.48,-13.86 -40.03,-34.5 -46.4,-61.71c-4.36,-18.64 -2.75,-38.61 7.49,-55.12c-7.31,-4.75 -14.02,-10.93 -18.75,-18.27c-12.46,-19.37 -11.56,-47.58 -10.84,-70.25c0.11,-3.58 0.21,-6.94 0.21,-12.61c0,-16.49 7.64,-31.43 20.02,-42.09c-21.95,-45.46 -6.2,-88.66 7.01,-132.71c11.49,-38.33 31.13,-103.79 63.3,-125.95c5.72,-3.94 11.77,-6.94 18.53,-8.72c-0.85,-30.54 25.27,-63.83 45.52,-84.63c26.75,-27.47 60.79,-55.41 101.5,-47.29c2.26,-33 40.14,-45.61 68.34,-45.61zM677.66,759.17l9.92,29.79c7.26,21.96 -26.11,32.99 -33.37,11.03l-15.34,-46.01l-28.8,-14.39c-20.69,-10.35 -4.95,-41.79 15.72,-31.46l31.44,15.73h86.62l-16.85,-25.26c-1.98,-2.86 -3.14,-6.32 -3.14,-10.05v-35.31c0,-23.22 35.31,-23.22 35.31,0v29.96l27.1,40.66h56.8c21.27,-24.98 19.33,-36.7 6.32,-62.76l-17.65,-35.31c-10.35,-20.67 21.09,-36.41 31.44,-15.72l7.82,15.65c7.98,-26.99 9.09,-54.08 9.09,-82.01c0,-13.17 -7.96,-18.08 -16.01,-27.56c7.42,-17.34 8.18,-17.99 9.82,-37.22c1.5,-17.57 6.41,-56.32 -11.67,-67.39l-40.29,26.87c-19.3,12.87 -38.88,-16.52 -19.6,-29.37l39.64,-26.42l4.97,-13.61c4.93,-13.44 -13.19,-59.57 -21.01,-77.24c-3.8,-8.6 -7.55,-15.5 -12.67,-23.32l-16.1,34.27c-1.15,2.84 -3.04,5.43 -5.67,7.43l-67.39,51.45c-2.12,7.77 -0.25,51.03 -0.25,62.12c0,23.22 -35.31,23.22 -35.31,0v-35.31c0,-14.81 -27.62,6.99 -43.62,14.99c-6.81,4.25 -15.92,3.41 -21.83,-2.5l-17.65,-17.66c-16.42,-16.42 8.54,-41.38 24.96,-24.96l8.72,8.7l57.56,-28.78l70.07,-53.48l24.88,-52.93c-13.91,-18.98 -22.6,-18.9 -43.43,-24.27c-12.46,-38.17 -16.61,-40.08 -53.44,-47.97c-9.73,-21.31 -18.47,-37.16 -41.53,-46.91v28.6c0,23.22 -35.31,23.22 -35.31,0v-30.38c-14.58,-19.95 -27.28,-29.36 -53.46,-19.05c-15.36,6.04 -25.16,18.43 -33.6,32.02c10.26,23.55 16.78,50.36 12.68,76.08l44.42,29.61h57.96l12.48,-12.48c16.42,-16.42 41.39,8.54 24.97,24.96l-17.46,17.46c-3.2,3.3 -7.7,5.37 -12.68,5.37h-70.62c-3.37,0 -6.78,-0.96 -9.8,-2.97l-42.16,-28.11c-13.81,21.13 -12.71,23.42 -7.15,49.46c4.29,20 8.81,41.14 -0.09,65.29c0.99,9.78 3,18.44 5.07,27.36c4.34,18.8 10.15,46.51 5.97,65.52h48.16c23.22,0 23.22,35.31 0,35.31h-60.79c-14.14,38.75 -13.47,65.43 3.87,102.7c7.98,17.2 5.98,20.16 6.37,37.99l68.21,0.55c21.52,0 23.21,-21.95 24.8,-42.32c0.76,-9.89 1.5,-19.58 3.3,-28.3h-10.45c-23.22,0 -23.22,-35.31 0,-35.31h105.93v-17.66c0,-23.22 35.31,-23.22 35.31,0v24.49l25.51,12.75c20.69,10.35 4.96,41.79 -15.71,31.46l-31.44,-15.73h-66.63c-8.26,0 -9.41,14.93 -10.65,30.93c-2.79,36.1 -5.8,75 -59.97,75h-66.88c1.71,73.83 -36.03,102.45 -36.05,102.91c18.98,13.42 27.97,31.43 34.41,52.93l25.35,-12.67c20.67,-10.33 36.4,21.11 15.71,31.46l-34.04,17.02c2.51,25.37 -0.02,51.64 -8.28,75.79c16.31,30.91 84.98,8.56 108.46,-10.01c-5.81,-8.14 -14.14,-27.81 -19.1,-37.71c-10.33,-20.67 21.11,-36.4 31.46,-15.71l11.26,22.54c49.05,2.28 71.41,-10.31 91.17,-57.43c30,-9.59 60.22,-28.34 61.65,-63.19zM476.8,727.5c26.69,-19.24 21.96,-63.67 20.71,-92.62c-0.37,-8.77 -0.69,-17.52 -0.73,-26.29c-0.07,-11.62 0.81,-6.04 -3.09,-14.44c-6.57,-14.12 -17,-36.56 -17,-64.49h-70.62c-16.21,0 -51.68,-14.98 -70.62,-19.62v19.62c0,23.22 -35.31,23.22 -35.31,0v-35.32c0,-15.24 9.12,-21.45 24.34,-21.45c12.94,0 34.75,7.09 54.14,13.39c13.06,4.24 24.84,8.06 27.45,8.06h70.62c1.15,0 2.28,0.11 3.37,0.32c3.48,-17.39 9.01,-31.23 13.72,-43.01c3.81,-9.57 6.94,-17.38 6.87,-22.45c-0.32,-18.77 -3.48,-32.38 -6.52,-45.48c-2.63,-11.42 -5.2,-22.51 -6.19,-36.67c-0.21,-3.07 0.38,-6.01 1.6,-8.62c7.43,-18.01 1.46,-37.73 -2.19,-55.95h-76.99c-4.61,0 -9.08,-0.41 -13.42,-1.22l-31.35,31.36c-16.42,16.42 -41.39,-8.54 -24.97,-24.96l22.92,-22.92c-7.79,-6.94 -15.49,-15.31 -22.92,-22.74c-16.42,-16.42 8.55,-41.38 24.97,-24.96l19.79,19.79c7.13,7.12 14.92,10.34 24.98,10.34h74.75c1.52,-9.46 5.38,-18.94 13.1,-28.62c20.99,-26.34 9.1,-64.54 -4.69,-91.34c-10.98,-21.35 -32.3,-32.07 -55.85,-31.98c-16.28,0 -32.51,2.26 -33.68,19.88l34.42,51.64c12.87,19.3 -16.5,38.88 -29.37,19.6l-28.34,-42.51c-9.78,-1.96 -19.93,-4.81 -29.96,-4.56c-17.21,0.42 -46.17,26.37 -57.73,38.23c-12.39,12.75 -33.1,37.21 -35.4,55.52c6.37,4.7 18.7,33.11 22.95,41.6c4.15,8.3 5.28,26.85 6.55,47.56c1.38,22.4 -4.62,48.57 19.21,48.57h82.09c4.52,0 9.05,1.73 12.49,5.17l17.65,17.66c16.42,16.42 -8.54,41.38 -24.96,24.96l-12.49,-12.48h-91.31l-30.14,30.14c-16.42,16.42 -41.38,-8.55 -24.96,-24.97l25.71,-25.7c-5.68,-16.3 -7.14,-39.82 -8.46,-61.29c-1.04,-16.98 -1.97,-32.18 -2.84,-33.91l-10.33,-20.66c-5.84,1.52 -10.03,2.12 -15.06,5.58c-21.93,15.11 -39.32,73.11 -49.51,107.08c-10.84,36.07 -26,71.36 -8.42,108.84l38.91,-12.97c11.51,-5.14 24.83,3.26 24.83,16.13v35.32c0,23.22 -35.31,23.22 -35.31,0v-10.9c-7.56,2.51 -28.66,10.86 -35.42,10.82c-12.48,10.73 -9.97,16.03 -10.45,31.18c-0.56,17.76 -1.27,39.87 5.33,50.13c4.17,6.48 16.42,13.1 22.74,17.21c8.16,5.28 10.47,16.19 5.17,24.33c-9.6,15.48 -16.61,22.98 -11.95,42.88c10.88,46.45 41.38,46.21 77.54,46.21c14.18,0 29.97,-1.87 40.49,-12.41c16.33,-16.42 41.29,8.4 24.96,24.82c-17.51,17.51 -41.47,22.9 -65.45,22.9h-32.25c1.71,6.96 21.06,26.74 26.97,32.57c20.27,19.99 44.14,42.72 67.06,58.95c37.45,26.52 57.34,15.29 75.86,10.7l26.43,-26.43c16.42,-16.42 41.39,8.55 24.97,24.97l-30.51,30.5c7.19,21.35 15.97,27.98 44.75,28.53c12.02,0.21 36.16,-3.03 41.99,-15.55c16.24,-34.92 15.55,-78.49 1.36,-113.98c-6.46,-16.19 -14.8,-20.87 -27.95,-30.17c-18.8,0.26 -49.98,2.91 -67.62,-0.66l-30.44,45.68c-12.87,19.3 -42.25,-0.3 -29.38,-19.6l32.86,-49.29c-5.76,-20.8 4.24,-44.61 11.69,-63.77c5.33,-13.67 10.59,-27.19 10.59,-35.28c0,-0.46 -1.31,-0.76 -5.14,-0.76h-112.76l-12.75,25.51c-10.35,20.69 -41.79,4.96 -31.46,-15.71l15.73,-31.44v-31.32c0,-23.22 35.31,-23.22 35.31,0v17.65h105.93c30.26,0 40.45,14.34 40.45,36.07c0,14.39 -6.49,31.09 -13.06,47.97c-5.56,14.3 -11.21,28.77 -11.09,37.46c0.04,1.89 2.5,3.15 9.97,3.04l42.18,-0.6z" fill="#ffffff"/>
		</mask>
	</defs>
	<g fill="none" fill-rule="nonzero" style="mix-blend-mode: normal">
		<g mask="url(#mask-smhuvW25)">
			<g color="#00aeff" class="color-2">
				<rect x="112.81" y="52.93" width="802.61" height="918.88" fill="currentColor"/>
			</g>
			<g color="#a800ff" class="color-3" mask="url(#mask-0oUhatz3)">
				<rect x="112.81" y="52.93" width="802.61" height="918.88" fill="currentColor"/>
			</g>
		</g>
		<g filter="url(#filter-mQ7jiEN5)" mask="url(#mask-KYUyNoSN)">
			<g color="#48f1cf" class="color-1">
				<rect x="112.81" y="52.93" width="802.61" height="918.88" fill="currentColor"/>
			</g>
			<g color="#00aeff" class="color-2" mask="url(#mask-q5Yg7cB8)">
				<rect x="112.81" y="52.93" width="802.61" height="918.88" fill="currentColor"/>
			</g>
		</g>
		<g clip-path="url(#clip-tF7yfNiO)">
			<path d="M19.81,1014.81v-1104.88h988.61v1104.88zM369.26,105.67c-40.71,-8.12 -74.75,19.82 -101.5,47.29c-20.25,20.8 -46.37,54.09 -45.52,84.63c-6.76,1.78 -12.81,4.78 -18.53,8.72c-32.17,22.16 -51.81,87.62 -63.3,125.95c-13.21,44.05 -28.96,87.25 -7.01,132.71c-12.38,10.66 -20.02,25.6 -20.02,42.09c0,5.67 -0.1,9.03 -0.21,12.61c-0.72,22.67 -1.62,50.88 10.84,70.25c4.73,7.34 11.44,13.52 18.75,18.27c-10.24,16.51 -11.85,36.48 -7.49,55.12c6.37,27.21 22.92,47.85 46.4,61.71c-2.31,5.83 -2.7,12.04 -1.57,18.18c3.39,18.4 23.76,38.16 37.09,51.31c21.59,21.29 47.05,45.23 71.47,62.53c22.78,16.14 55.07,25.67 82.84,20c11.78,37.15 34.43,53.92 78.41,54.75c21.08,0.39 45.23,-4.79 61.56,-18.98c32.17,29.66 93.73,17.89 128.44,-0.84c11.74,-6.36 35.17,-21.55 35.17,-36.36c43.87,0 87.45,-23.04 104.93,-64.74c32.91,-10.54 68.91,-50.1 70.39,-85.8c29.64,-19.77 54.03,-64.67 39.69,-100.44c9.5,-10.1 13.82,-24.79 17.19,-37.94c0.23,-2.07 8.14,-74.49 8.14,-82.98c0,-11.63 -2.69,-24.65 -10.35,-33.76c3.44,-8.09 3.23,-19.3 3.99,-28.11c2.58,-30.17 5.75,-66.98 -17.03,-91.04c-1.01,0 -10.57,-9.32 -11.51,-11c8.42,-25.95 -9.84,-74.08 -22.3,-102.24c-9.02,-20.41 -35.26,-65.7 -49.42,-79.77c-9.43,-9.36 -20.18,-16.15 -33.05,-19.47c-7.61,-24.06 -32.04,-44.14 -56.35,-49.54c-9.36,-20.5 -36,-43.81 -58.07,-50.64c-7.54,-2.33 -15.75,-3.04 -23.91,-0.32c-31.32,-41.72 -98.62,-26.64 -126.5,13.14c-18.82,-20.74 -45.46,-30.99 -73.32,-30.9c-28.2,0 -66.08,12.61 -68.34,45.61zM815.4,759.17c-1.43,34.85 -31.65,53.6 -61.65,63.19c-19.76,47.12 -42.12,59.71 -91.17,57.43l-11.26,-22.54c-10.35,-20.69 -41.79,-4.96 -31.46,15.71c4.96,9.9 13.29,29.57 19.1,37.71c-23.48,18.57 -92.15,40.92 -108.46,10.01c8.26,-24.15 10.79,-50.42 8.28,-75.79l34.04,-17.02c20.69,-10.35 4.96,-41.79 -15.71,-31.46l-25.35,12.67c-6.44,-21.5 -15.43,-39.51 -34.41,-52.93c0.02,-0.46 37.76,-29.08 36.05,-102.91h66.88c54.17,0 57.18,-38.9 59.97,-75c1.24,-16 2.39,-30.93 10.65,-30.93h66.63l31.44,15.73c20.67,10.33 36.4,-21.11 15.71,-31.46l-25.51,-12.75v-24.49c0,-23.22 -35.31,-23.22 -35.31,0v17.66h-105.93c-23.22,0 -23.22,35.31 0,35.31h10.45c-1.8,8.72 -2.54,18.41 -3.3,28.3c-1.59,20.37 -3.28,42.32 -24.8,42.32l-68.21,-0.55c-0.39,-17.83 1.61,-20.79 -6.37,-37.99c-17.34,-37.27 -18.01,-63.95 -3.87,-102.7h60.79c23.22,0 23.22,-35.31 0,-35.31h-48.16c4.18,-19.01 -1.63,-46.72 -5.97,-65.52c-2.07,-8.92 -4.08,-17.58 -5.07,-27.36c8.9,-24.15 4.38,-45.29 0.09,-65.29c-5.56,-26.04 -6.66,-28.33 7.15,-49.46l42.16,28.11c3.02,2.01 6.43,2.97 9.8,2.97h70.62c4.98,0 9.48,-2.07 12.68,-5.37l17.46,-17.46c16.42,-16.42 -8.55,-41.38 -24.97,-24.96l-12.48,12.48h-57.96l-44.42,-29.61c4.1,-25.72 -2.42,-52.53 -12.68,-76.08c8.44,-13.59 18.24,-25.98 33.6,-32.02c26.18,-10.31 38.88,-0.9 53.46,19.05v30.38c0,23.22 35.31,23.22 35.31,0v-28.6c23.06,9.75 31.8,25.6 41.53,46.91c36.83,7.89 40.98,9.8 53.44,47.97c20.83,5.37 29.52,5.29 43.43,24.27l-24.88,52.93l-70.07,53.48l-57.56,28.78l-8.72,-8.7c-16.42,-16.42 -41.38,8.54 -24.96,24.96l17.65,17.66c5.91,5.91 15.02,6.75 21.83,2.5c16,-8 43.62,-29.8 43.62,-14.99v35.31c0,23.22 35.31,23.22 35.31,0c0,-11.09 -1.87,-54.35 0.25,-62.12l67.39,-51.45c2.63,-2 4.52,-4.59 5.67,-7.43l16.1,-34.27c5.12,7.82 8.87,14.72 12.67,23.32c7.82,17.67 25.94,63.8 21.01,77.24l-4.97,13.61l-39.64,26.42c-19.28,12.85 0.3,42.24 19.6,29.37l40.29,-26.87c18.08,11.07 13.17,49.82 11.67,67.39c-1.64,19.23 -2.4,19.88 -9.82,37.22c8.05,9.48 16.01,14.39 16.01,27.56c0,27.93 -1.11,55.02 -9.09,82.01l-7.82,-15.65c-10.35,-20.69 -41.79,-4.95 -31.44,15.72l17.65,35.31c13.01,26.06 14.95,37.78 -6.32,62.76h-56.8l-27.1,-40.66v-29.96c0,-23.22 -35.31,-23.22 -35.31,0v35.31c0,3.73 1.16,7.19 3.14,10.05l16.85,25.26h-86.62l-31.44,-15.73c-20.67,-10.33 -36.41,21.11 -15.72,31.46l28.8,14.39l15.34,46.01c7.26,21.96 40.63,10.93 33.37,-11.03l-9.92,-29.79zM456.86,741.87l-42.18,0.6c-7.47,0.11 -9.93,-1.15 -9.97,-3.04c-0.12,-8.69 5.53,-23.16 11.09,-37.46c6.57,-16.88 13.06,-33.58 13.06,-47.97c0,-21.73 -10.19,-36.07 -40.45,-36.07h-105.93v-17.65c0,-23.22 -35.31,-23.22 -35.31,0v31.32l-15.73,31.44c-10.33,20.67 21.11,36.4 31.46,15.71l12.75,-25.51h112.76c3.83,0 5.14,0.3 5.14,0.76c0,8.09 -5.26,21.61 -10.59,35.28c-7.45,19.16 -17.45,42.97 -11.69,63.77l-32.86,49.29c-12.87,19.3 16.51,38.9 29.38,19.6l30.44,-45.68c17.64,3.57 48.82,0.92 67.62,0.66c13.15,9.3 21.49,13.98 27.95,30.17c14.19,35.49 14.88,79.06 -1.36,113.98c-5.83,12.52 -29.97,15.76 -41.99,15.55c-28.78,-0.55 -37.56,-7.18 -44.75,-28.53l30.51,-30.5c16.42,-16.42 -8.55,-41.39 -24.97,-24.97l-26.43,26.43c-18.52,4.59 -38.41,15.82 -75.86,-10.7c-22.92,-16.23 -46.79,-38.96 -67.06,-58.95c-5.91,-5.83 -25.26,-25.61 -26.97,-32.57h32.25c23.98,0 47.94,-5.39 65.45,-22.9c16.33,-16.42 -8.63,-41.24 -24.96,-24.82c-10.52,10.54 -26.31,12.41 -40.49,12.41c-36.16,0 -66.66,0.24 -77.54,-46.21c-4.66,-19.9 2.35,-27.4 11.95,-42.88c5.3,-8.14 2.99,-19.05 -5.17,-24.33c-6.32,-4.11 -18.57,-10.73 -22.74,-17.21c-6.6,-10.26 -5.89,-32.37 -5.33,-50.13c0.48,-15.15 -2.03,-20.45 10.45,-31.18c6.76,0.04 27.86,-8.31 35.42,-10.82v10.9c0,23.22 35.31,23.22 35.31,0v-35.32c0,-12.87 -13.32,-21.27 -24.83,-16.13l-38.91,12.97c-17.58,-37.48 -2.42,-72.77 8.42,-108.84c10.19,-33.97 27.58,-91.97 49.51,-107.08c5.03,-3.46 9.22,-4.06 15.06,-5.58l10.33,20.66c0.87,1.73 1.8,16.93 2.84,33.91c1.32,21.47 2.78,44.99 8.46,61.29l-25.71,25.7c-16.42,16.42 8.54,41.39 24.96,24.97l30.14,-30.14h91.31l12.49,12.48c16.42,16.42 41.38,-8.54 24.96,-24.96l-17.65,-17.66c-3.44,-3.44 -7.97,-5.17 -12.49,-5.17h-82.09c-23.83,0 -17.83,-26.17 -19.21,-48.57c-1.27,-20.71 -2.4,-39.26 -6.55,-47.56c-4.25,-8.49 -16.58,-36.9 -22.95,-41.6c2.3,-18.31 23.01,-42.77 35.4,-55.52c11.56,-11.86 40.52,-37.81 57.73,-38.23c10.03,-0.25 20.18,2.6 29.96,4.56l28.34,42.51c12.87,19.28 42.24,-0.3 29.37,-19.6l-34.42,-51.64c1.17,-17.62 17.4,-19.88 33.68,-19.88c23.55,-0.09 44.87,10.63 55.85,31.98c13.79,26.8 25.68,65 4.69,91.34c-7.72,9.68 -11.58,19.16 -13.1,28.62h-74.75c-10.06,0 -17.85,-3.22 -24.98,-10.34l-19.79,-19.79c-16.42,-16.42 -41.39,8.54 -24.97,24.96c7.43,7.43 15.13,15.8 22.92,22.74l-22.92,22.92c-16.42,16.42 8.55,41.38 24.97,24.96l31.35,-31.36c4.34,0.81 8.81,1.22 13.42,1.22h76.99c3.65,18.22 9.62,37.94 2.19,55.95c-1.22,2.61 -1.81,5.55 -1.6,8.62c0.99,14.16 3.56,25.25 6.19,36.67c3.04,13.1 6.2,26.71 6.52,45.48c0.07,5.07 -3.06,12.88 -6.87,22.45c-4.71,11.78 -10.24,25.62 -13.72,43.01c-1.09,-0.21 -2.22,-0.32 -3.37,-0.32h-70.62c-2.61,0 -14.39,-3.82 -27.45,-8.06c-19.39,-6.3 -41.2,-13.39 -54.14,-13.39c-15.22,0 -24.34,6.21 -24.34,21.45v35.32c0,23.22 35.31,23.22 35.31,0v-19.62c18.94,4.64 54.41,19.62 70.62,19.62h70.62c0,27.93 10.43,50.37 17,64.49c3.9,8.4 3.02,2.82 3.09,14.44c0.04,8.77 0.36,17.52 0.73,26.29c1.25,28.95 5.98,73.38 -20.71,92.62z" fill="#000000" fill-opacity="1" filter="url(#filter-WZ8oAckH)"/>
		</g>
	</g>
</svg>