<svg version="1.1" xmlns="http://www.w3.org/2000/svg" xmlns:xlink="http://www.w3.org/1999/xlink" viewBox="0,0,1024,1024">
	<!-- Color names: color-1, color-2, color-3 -->
	<desc>cloud_download icon - Licensed under Iconfu Standard License v1.0 (https://www.iconfu.com/iconfu_standard_license) - Incors GmbH</desc>
	<defs>
		<clipPath id="clip-X334yi2v">
			<path d="M256.64,653.24l167.08,0.07v35.17l-167.08,0.07c-110.98,0 -203.67,-88.46 -203.67,-200.38c0,-92.11 49.11,-159.39 135.32,-190.13c-6.07,-130.1 82.35,-231.59 211.74,-243.77c9.22,-0.87 18.17,-1.3 26.84,-1.3c85.1,0 144.79,36.85 196.27,102.1c61.12,-21.4 129.68,-13.58 181.14,26.85c57.33,45.07 76.09,116.01 66.26,186.31c66.52,30.68 100.49,79.13 100.49,153.48c0,93.18 -77.22,166.84 -169.61,166.84l-201.14,-0.07v-35.17l201.14,-0.07c73.06,0 134.3,-57.68 134.3,-131.53c0,-66.42 -31.47,-102.24 -91.34,-126.43l-13.46,-5.44l2.69,-14.16c11.72,-61.46 0.06,-125.78 -51.12,-166.02c-45.29,-35.59 -106.27,-39.34 -158.49,-17.24l-12.71,5.39l-8.26,-11.11c-45.87,-61.7 -96.84,-98.42 -176.16,-98.42c-8.53,0 -16.42,0.35 -23.66,1.02c-116.4,10.96 -189.79,103.67 -178.88,219.56l1.36,14.41l-13.85,4.15c-78.14,23.41 -123.56,78.09 -123.56,160.75c0,92.58 76.71,165.07 168.36,165.07zM529.66,441.38v469.38l146.41,-146.41l24.96,24.96l-189.03,189.03l-189.03,-189.03l24.96,-24.96l146.41,146.41v-469.38z"/>
		</clipPath>
		<radialGradient cx="0" cy="0" r="1448.15" id="color-rDGANt4C" gradientUnits="userSpaceOnUse">
			<stop offset="0.08" stop-color="#ffffff"/>
			<stop offset="1" stop-color="#000000"/>
		</radialGradient>
		<radialGradient cx="0" cy="0" r="1448.15" id="color-uSmYbK9g" gradientUnits="userSpaceOnUse">
			<stop offset="0.08" stop-color="#000000"/>
			<stop offset="1" stop-color="#ffffff"/>
		</radialGradient>
		<linearGradient x1="0" y1="1024" x2="1024" y2="0" id="color-zH2kuGNS" gradientUnits="userSpaceOnUse">
			<stop offset="0.2" stop-color="#000000"/>
			<stop offset="0.8" stop-color="#ffffff"/>
		</linearGradient>
		<filter id="filter-I31fB8wb" color-interpolation-filters="sRGB">
			<feOffset/>
		</filter>
		<filter id="filter-LtkssPJh" x="0%" y="0%" width="100%" height="100%" color-interpolation-filters="sRGB">
			<feColorMatrix values="1 0 0 0 0 0 1 0 0 0 0 0 1 0 0 0 0 0 0.05 0" in="SourceGraphic"/>
			<feOffset dy="20"/>
			<feGaussianBlur stdDeviation="11" result="blur0"/>
			<feColorMatrix values="1 0 0 0 0 0 1 0 0 0 0 0 1 0 0 0 0 0 0.07 0" in="SourceGraphic"/>
			<feOffset dy="30"/>
			<feGaussianBlur stdDeviation="20" result="blur1"/>
			<feMerge>
				<feMergeNode in="blur0"/>
				<feMergeNode in="blur1"/>
			</feMerge>
		</filter>
		<mask id="mask-IkiJhM8L">
			<rect fill="url(#color-uSmYbK9g)" x="52.97" y="52.97" width="918.06" height="925.37"/>
		</mask>
		<mask id="mask-QCkyuoF5">
			<rect fill="url(#color-zH2kuGNS)" x="52.97" y="52.97" width="918.06" height="925.37"/>
		</mask>
		<mask id="mask-SbGct6o8">
			<path d="M256.64,653.24l167.08,0.07v35.17l-167.08,0.07c-110.98,0 -203.67,-88.46 -203.67,-200.38c0,-92.11 49.11,-159.39 135.32,-190.13c-6.07,-130.1 82.35,-231.59 211.74,-243.77c9.22,-0.87 18.17,-1.3 26.84,-1.3c85.1,0 144.79,36.85 196.27,102.1c61.12,-21.4 129.68,-13.58 181.14,26.85c57.33,45.07 76.09,116.01 66.26,186.31c66.52,30.68 100.49,79.13 100.49,153.48c0,93.18 -77.22,166.84 -169.61,166.84l-201.14,-0.07v-35.17l201.14,-0.07c73.06,0 134.3,-57.68 134.3,-131.53c0,-66.42 -31.47,-102.24 -91.34,-126.43l-13.46,-5.44l2.69,-14.16c11.72,-61.46 0.06,-125.78 -51.12,-166.02c-45.29,-35.59 -106.27,-39.34 -158.49,-17.24l-12.71,5.39l-8.26,-11.11c-45.87,-61.7 -96.84,-98.42 -176.16,-98.42c-8.53,0 -16.42,0.35 -23.66,1.02c-116.4,10.96 -189.79,103.67 -178.88,219.56l1.36,14.41l-13.85,4.15c-78.14,23.41 -123.56,78.09 -123.56,160.75c0,92.58 76.71,165.07 168.36,165.07zM529.66,441.38v469.38l146.41,-146.41l24.96,24.96l-189.03,189.03l-189.03,-189.03l24.96,-24.96l146.41,146.41v-469.38z" fill="#ffffff"/>
		</mask>
		<mask id="mask-ZagKYcaX">
			<path d="M256.64,653.24l167.08,0.07v35.17l-167.08,0.07c-110.98,0 -203.67,-88.46 -203.67,-200.38c0,-92.11 49.11,-159.39 135.32,-190.13c-6.07,-130.1 82.35,-231.59 211.74,-243.77c9.22,-0.87 18.17,-1.3 26.84,-1.3c85.1,0 144.79,36.85 196.27,102.1c61.12,-21.4 129.68,-13.58 181.14,26.85c57.33,45.07 76.09,116.01 66.26,186.31c66.52,30.68 100.49,79.13 100.49,153.48c0,93.18 -77.22,166.84 -169.61,166.84l-201.14,-0.07v-35.17l201.14,-0.07c73.06,0 134.3,-57.68 134.3,-131.53c0,-66.42 -31.47,-102.24 -91.34,-126.43l-13.46,-5.44l2.69,-14.16c11.72,-61.46 0.06,-125.78 -51.12,-166.02c-45.29,-35.59 -106.27,-39.34 -158.49,-17.24l-12.71,5.39l-8.26,-11.11c-45.87,-61.7 -96.84,-98.42 -176.16,-98.42c-8.53,0 -16.42,0.35 -23.66,1.02c-116.4,10.96 -189.79,103.67 -178.88,219.56l1.36,14.41l-13.85,4.15c-78.14,23.41 -123.56,78.09 -123.56,160.75c0,92.58 76.71,165.07 168.36,165.07zM529.66,441.38v469.38l146.41,-146.41l24.96,24.96l-189.03,189.03l-189.03,-189.03l24.96,-24.96l146.41,146.41v-469.38z" fill="url(#color-rDGANt4C)"/>
		</mask>
	</defs>
	<g fill="none" fill-rule="nonzero" style="mix-blend-mode: normal">
		<g mask="url(#mask-SbGct6o8)">
			<g color="#00aeff" class="color-2">
				<rect x="52.97" y="52.97" width="918.06" height="925.37" fill="currentColor"/>
			</g>
			<g color="#a800ff" class="color-3" mask="url(#mask-QCkyuoF5)">
				<rect x="52.97" y="52.97" width="918.06" height="925.37" fill="currentColor"/>
			</g>
		</g>
		<g filter="url(#filter-I31fB8wb)" mask="url(#mask-ZagKYcaX)">
			<g color="#48f1cf" class="color-1">
				<rect x="52.97" y="52.97" width="918.06" height="925.37" fill="currentColor"/>
			</g>
			<g color="#00aeff" class="color-2" mask="url(#mask-IkiJhM8L)">
				<rect x="52.97" y="52.97" width="918.06" height="925.37" fill="currentColor"/>
			</g>
		</g>
		<g clip-path="url(#clip-X334yi2v)">
			<path d="M-40.03,1021.34v-1111.37h1104.06v1111.37zM88.28,488.17c0,-82.66 45.42,-137.34 123.56,-160.75l13.85,-4.15l-1.36,-14.41c-10.91,-115.89 62.48,-208.6 178.88,-219.56c7.24,-0.67 15.13,-1.02 23.66,-1.02c79.32,0 130.29,36.72 176.16,98.42l8.26,11.11l12.71,-5.39c52.22,-22.1 113.2,-18.35 158.49,17.24c51.18,40.24 62.84,104.56 51.12,166.02l-2.69,14.16l13.46,5.44c59.87,24.19 91.34,60.01 91.34,126.43c0,73.85 -61.24,131.53 -134.3,131.53l-201.14,0.07v35.17l201.14,0.07c92.39,0 169.61,-73.66 169.61,-166.84c0,-74.35 -33.97,-122.8 -100.49,-153.48c9.83,-70.3 -8.93,-141.24 -66.26,-186.31c-51.46,-40.43 -120.02,-48.25 -181.14,-26.85c-51.48,-65.25 -111.17,-102.1 -196.27,-102.1c-8.67,0 -17.62,0.43 -26.84,1.3c-129.39,12.18 -217.81,113.67 -211.74,243.77c-86.21,30.74 -135.32,98.02 -135.32,190.13c0,111.92 92.69,200.38 203.67,200.38l167.08,-0.07v-35.17l-167.08,-0.07c-91.65,0 -168.36,-72.49 -168.36,-165.07zM494.34,441.38v469.38l-146.41,-146.41l-24.96,24.96l189.03,189.03l189.03,-189.03l-24.96,-24.96l-146.41,146.41v-469.38z" fill="#000000" fill-opacity="1" filter="url(#filter-LtkssPJh)"/>
		</g>
	</g>
</svg>