<svg version="1.1" xmlns="http://www.w3.org/2000/svg" xmlns:xlink="http://www.w3.org/1999/xlink" viewBox="0,0,1024,1024">
	<!-- Color names: color-1, color-2, color-3 -->
	<desc>compass icon - Licensed under Iconfu Standard License v1.0 (https://www.iconfu.com/iconfu_standard_license) - Incors GmbH</desc>
	<defs>
		<clipPath id="clip-yvZStl2P">
			<path d="M512,52.97c253.51,0 459.03,205.52 459.03,459.03c0,253.51 -205.52,459.03 -459.03,459.03c-253.51,0 -459.03,-205.52 -459.03,-459.03c0,-253.51 205.52,-459.03 459.03,-459.03zM512,88.28c-234.02,0 -423.72,189.7 -423.72,423.72c0,234.02 189.7,423.72 423.72,423.72c234.02,0 423.72,-189.7 423.72,-423.72c0,-234.02 -189.7,-423.72 -423.72,-423.72zM465.87,211.86l46.13,-92.26l46.13,92.26zM211.86,465.87v92.26l-92.26,-46.13zM812.14,465.87l92.26,46.13l-92.26,46.13zM558.13,812.14l-46.13,92.26l-46.13,-92.26zM625.29,398.71l169.93,396.5l-396.5,-169.93l-169.94,-396.5zM598.46,425.54l-302.61,-129.69l129.69,302.61l302.61,129.69zM512,441.38c39,0 70.62,31.62 70.62,70.62c0,39 -31.62,70.62 -70.62,70.62c-39,0 -70.62,-31.62 -70.62,-70.62c0,-39 31.62,-70.62 70.62,-70.62zM512,476.69c-19.51,0 -35.31,15.8 -35.31,35.31c0,19.51 15.8,35.31 35.31,35.31c19.51,0 35.31,-15.8 35.31,-35.31c0,-19.51 -15.8,-35.31 -35.31,-35.31z"/>
		</clipPath>
		<linearGradient x1="0" y1="1024" x2="1024" y2="0" id="color-9yTyiryh" gradientUnits="userSpaceOnUse">
			<stop offset="0.2" stop-color="#000000"/>
			<stop offset="0.8" stop-color="#ffffff"/>
		</linearGradient>
		<radialGradient cx="0" cy="0" r="1448.15" id="color-GkIVDwtb" gradientUnits="userSpaceOnUse">
			<stop offset="0.08" stop-color="#ffffff"/>
			<stop offset="1" stop-color="#000000"/>
		</radialGradient>
		<radialGradient cx="0" cy="0" r="1448.15" id="color-HtUSEvQ3" gradientUnits="userSpaceOnUse">
			<stop offset="0.08" stop-color="#000000"/>
			<stop offset="1" stop-color="#ffffff"/>
		</radialGradient>
		<filter id="filter-eL0fEnLG" x="0%" y="0%" width="100%" height="100%" color-interpolation-filters="sRGB">
			<feColorMatrix values="1 0 0 0 0 0 1 0 0 0 0 0 1 0 0 0 0 0 0.05 0" in="SourceGraphic"/>
			<feOffset dy="20"/>
			<feGaussianBlur stdDeviation="11" result="blur0"/>
			<feColorMatrix values="1 0 0 0 0 0 1 0 0 0 0 0 1 0 0 0 0 0 0.07 0" in="SourceGraphic"/>
			<feOffset dy="30"/>
			<feGaussianBlur stdDeviation="20" result="blur1"/>
			<feMerge>
				<feMergeNode in="blur0"/>
				<feMergeNode in="blur1"/>
			</feMerge>
		</filter>
		<filter id="filter-OQBjWz95" color-interpolation-filters="sRGB">
			<feOffset/>
		</filter>
		<mask id="mask-7yHpcPtn">
			<rect fill="url(#color-HtUSEvQ3)" x="52.97" y="52.97" width="918.06" height="918.06"/>
		</mask>
		<mask id="mask-Pc2R3UmK">
			<rect fill="url(#color-9yTyiryh)" x="52.97" y="52.97" width="918.06" height="918.06"/>
		</mask>
		<mask id="mask-vet7Qwfy">
			<path d="M512,52.97c253.51,0 459.03,205.52 459.03,459.03c0,253.51 -205.52,459.03 -459.03,459.03c-253.51,0 -459.03,-205.52 -459.03,-459.03c0,-253.51 205.52,-459.03 459.03,-459.03zM512,88.28c-234.02,0 -423.72,189.7 -423.72,423.72c0,234.02 189.7,423.72 423.72,423.72c234.02,0 423.72,-189.7 423.72,-423.72c0,-234.02 -189.7,-423.72 -423.72,-423.72zM465.87,211.86l46.13,-92.26l46.13,92.26zM211.86,465.87v92.26l-92.26,-46.13zM812.14,465.87l92.26,46.13l-92.26,46.13zM558.13,812.14l-46.13,92.26l-46.13,-92.26zM625.29,398.71l169.93,396.5l-396.5,-169.93l-169.94,-396.5zM598.46,425.54l-302.61,-129.69l129.69,302.61l302.61,129.69zM512,441.38c39,0 70.62,31.62 70.62,70.62c0,39 -31.62,70.62 -70.62,70.62c-39,0 -70.62,-31.62 -70.62,-70.62c0,-39 31.62,-70.62 70.62,-70.62zM512,476.69c-19.51,0 -35.31,15.8 -35.31,35.31c0,19.51 15.8,35.31 35.31,35.31c19.51,0 35.31,-15.8 35.31,-35.31c0,-19.51 -15.8,-35.31 -35.31,-35.31z" fill="url(#color-GkIVDwtb)"/>
		</mask>
		<mask id="mask-XrWisqq8">
			<path d="M512,52.97c253.51,0 459.03,205.52 459.03,459.03c0,253.51 -205.52,459.03 -459.03,459.03c-253.51,0 -459.03,-205.52 -459.03,-459.03c0,-253.51 205.52,-459.03 459.03,-459.03zM512,88.28c-234.02,0 -423.72,189.7 -423.72,423.72c0,234.02 189.7,423.72 423.72,423.72c234.02,0 423.72,-189.7 423.72,-423.72c0,-234.02 -189.7,-423.72 -423.72,-423.72zM465.87,211.86l46.13,-92.26l46.13,92.26zM211.86,465.87v92.26l-92.26,-46.13zM812.14,465.87l92.26,46.13l-92.26,46.13zM558.13,812.14l-46.13,92.26l-46.13,-92.26zM625.29,398.71l169.93,396.5l-396.5,-169.93l-169.94,-396.5zM598.46,425.54l-302.61,-129.69l129.69,302.61l302.61,129.69zM512,441.38c39,0 70.62,31.62 70.62,70.62c0,39 -31.62,70.62 -70.62,70.62c-39,0 -70.62,-31.62 -70.62,-70.62c0,-39 31.62,-70.62 70.62,-70.62zM512,476.69c-19.51,0 -35.31,15.8 -35.31,35.31c0,19.51 15.8,35.31 35.31,35.31c19.51,0 35.31,-15.8 35.31,-35.31c0,-19.51 -15.8,-35.31 -35.31,-35.31z" fill="#ffffff"/>
		</mask>
	</defs>
	<g fill="none" fill-rule="nonzero" style="mix-blend-mode: normal">
		<g mask="url(#mask-XrWisqq8)">
			<g color="#00aeff" class="color-2">
				<rect x="52.97" y="52.97" width="918.06" height="918.06" fill="currentColor"/>
			</g>
			<g color="#a800ff" class="color-3" mask="url(#mask-Pc2R3UmK)">
				<rect x="52.97" y="52.97" width="918.06" height="918.06" fill="currentColor"/>
			</g>
		</g>
		<g filter="url(#filter-OQBjWz95)" mask="url(#mask-vet7Qwfy)">
			<g color="#48f1cf" class="color-1">
				<rect x="52.97" y="52.97" width="918.06" height="918.06" fill="currentColor"/>
			</g>
			<g color="#00aeff" class="color-2" mask="url(#mask-7yHpcPtn)">
				<rect x="52.97" y="52.97" width="918.06" height="918.06" fill="currentColor"/>
			</g>
		</g>
		<g clip-path="url(#clip-yvZStl2P)">
			<path d="M-40.03,1014.03v-1104.06h1104.06v1104.06zM52.97,512c0,253.51 205.52,459.03 459.03,459.03c253.51,0 459.03,-205.52 459.03,-459.03c0,-253.51 -205.52,-459.03 -459.03,-459.03c-253.51,0 -459.03,205.52 -459.03,459.03zM935.72,512c0,234.02 -189.7,423.72 -423.72,423.72c-234.02,0 -423.72,-189.7 -423.72,-423.72c0,-234.02 189.7,-423.72 423.72,-423.72c234.02,0 423.72,189.7 423.72,423.72zM558.13,211.86l-46.13,-92.26l-46.13,92.26zM119.6,512l92.26,46.13v-92.26zM812.14,558.13l92.26,-46.13l-92.26,-46.13zM465.87,812.14l46.13,92.26l46.13,-92.26zM228.78,228.78l169.94,396.5l396.5,169.93l-169.93,-396.5zM728.15,728.15l-302.61,-129.69l-129.69,-302.61l302.61,129.69zM441.38,512c0,39 31.62,70.62 70.62,70.62c39,0 70.62,-31.62 70.62,-70.62c0,-39 -31.62,-70.62 -70.62,-70.62c-39,0 -70.62,31.62 -70.62,70.62zM547.31,512c0,19.51 -15.8,35.31 -35.31,35.31c-19.51,0 -35.31,-15.8 -35.31,-35.31c0,-19.51 15.8,-35.31 35.31,-35.31c19.51,0 35.31,15.8 35.31,35.31z" fill="#000000" fill-opacity="1" filter="url(#filter-eL0fEnLG)"/>
		</g>
	</g>
</svg>