<svg version="1.1" xmlns="http://www.w3.org/2000/svg" xmlns:xlink="http://www.w3.org/1999/xlink" viewBox="0,0,1024,1024">
	<!-- Color names: color-1, color-2, color-3 -->
	<desc>cube_molecule_isometric icon - Licensed under Iconfu Standard License v1.0 (https://www.iconfu.com/iconfu_standard_license) - Incors GmbH</desc>
	<defs>
		<clipPath id="clip-J1NN71Sl">
			<path d="M246.93,800.45c-19.69,29.34 -52.54,47 -88.03,47c-58.49,0 -105.93,-47.44 -105.93,-105.93c0,-51.71 37.41,-95.92 88.27,-104.47v-250.1c-50.86,-8.55 -88.27,-52.78 -88.27,-104.47c0,-58.49 47.44,-105.93 105.93,-105.93c35.47,0 68.36,17.66 88.03,47l162.56,-73.16c-2.24,-8.56 -3.42,-17.55 -3.42,-26.8c0,-58.49 47.44,-105.93 105.93,-105.93c58.49,0 105.93,47.44 105.93,105.93c0,9.53 -1.25,18.77 -3.62,27.56l162.32,73.05c19.63,-29.73 52.7,-47.65 88.47,-47.65c58.49,0 105.93,47.44 105.93,105.93c0,51.69 -37.41,95.92 -88.27,104.47v250.1c50.86,8.55 88.27,52.78 88.27,104.47c0,58.49 -47.44,105.93 -105.93,105.93c-35.49,0 -68.34,-17.66 -88.03,-47l-162.56,73.16c2.24,8.56 3.42,17.55 3.42,26.8c0,58.49 -47.44,105.93 -105.93,105.93c-58.49,0 -105.93,-47.44 -105.93,-105.93c0,-9.25 1.18,-18.24 3.42,-26.8zM423.72,641.68l-162.32,73.04c2.24,8.56 3.43,17.55 3.43,26.8c0,9.25 -1.19,18.24 -3.43,26.8l162.57,73.16c16.19,-24.13 41.61,-40.71 70.37,-45.53v-250.11c-50.86,-8.55 -88.27,-52.77 -88.27,-104.46c0,-9.25 1.18,-18.24 3.42,-26.8l-162.56,-73.16c-16.19,24.13 -41.64,40.69 -70.38,45.53v250.1c28.74,4.82 54.19,21.38 70.38,45.53l176.79,-79.57zM614.51,414.58c2.24,8.56 3.42,17.55 3.42,26.8c0,51.71 -37.41,95.91 -88.27,104.46v250.11c28.74,4.82 54.18,21.38 70.37,45.53l162.57,-73.16c-2.24,-8.56 -3.43,-17.55 -3.43,-26.8c0,-9.25 1.19,-18.24 3.43,-26.8l-162.32,-73.04v-38.67l176.79,79.56c16.21,-24.13 41.62,-40.68 70.38,-45.52v-250.1c-28.74,-4.82 -54.19,-21.38 -70.38,-45.53zM261.4,255.68c2.22,8.56 3.43,17.55 3.43,26.8c0,9.25 -1.19,18.24 -3.43,26.8l162.57,73.15c19.69,-29.34 52.54,-46.98 88.03,-46.98c35.49,0 68.34,17.66 88.03,47l162.57,-73.17c-2.24,-8.56 -3.43,-17.55 -3.43,-26.8c0,-8.99 1.13,-17.71 3.23,-26.04l-162.81,-73.27c-16.23,23.8 -41.43,40.1 -69.93,44.88v37.64c-5.81,-0.56 -11.71,-0.86 -17.66,-0.86c-5.97,0 -11.85,0.3 -17.66,0.86v-37.64c-28.76,-4.84 -54.18,-21.4 -70.37,-45.53zM865.1,670.9c-39,0 -70.62,31.62 -70.62,70.62c0,39 31.62,70.62 70.62,70.62c39,0 70.62,-31.62 70.62,-70.62c0,-39 -31.62,-70.62 -70.62,-70.62zM865.1,211.86c-39,0 -70.62,31.62 -70.62,70.62c0,39 31.62,70.62 70.62,70.62c39,0 70.62,-31.62 70.62,-70.62c0,-39 -31.62,-70.62 -70.62,-70.62zM158.9,670.9c-39,0 -70.62,31.62 -70.62,70.62c0,39 31.62,70.62 70.62,70.62c39,0 70.62,-31.62 70.62,-70.62c0,-39 -31.62,-70.62 -70.62,-70.62zM158.9,211.86c-39,0 -70.62,31.62 -70.62,70.62c0,39 31.62,70.62 70.62,70.62c39,0 70.62,-31.62 70.62,-70.62c0,-39 -31.62,-70.62 -70.62,-70.62zM512,52.97c-39,0 -70.62,31.62 -70.62,70.62c0,39 31.62,70.62 70.62,70.62c39,0 70.62,-31.62 70.62,-70.62c0,-39 -31.62,-70.62 -70.62,-70.62zM512,370.76c-39,0 -70.62,31.62 -70.62,70.62c0,39 31.62,70.62 70.62,70.62c39,0 70.62,-31.62 70.62,-70.62c0,-39 -31.62,-70.62 -70.62,-70.62zM512,829.79c-39,0 -70.62,31.62 -70.62,70.62c0,39 31.62,70.62 70.62,70.62c39,0 70.62,-31.62 70.62,-70.62c0,-39 -31.62,-70.62 -70.62,-70.62z"/>
		</clipPath>
		<linearGradient x1="0" y1="1024" x2="1024" y2="0" id="color-hmQd0z1h" gradientUnits="userSpaceOnUse">
			<stop offset="0.2" stop-color="#000000"/>
			<stop offset="0.8" stop-color="#ffffff"/>
		</linearGradient>
		<radialGradient cx="0" cy="0" r="1448.15" id="color-rYss2xZw" gradientUnits="userSpaceOnUse">
			<stop offset="0.08" stop-color="#ffffff"/>
			<stop offset="1" stop-color="#000000"/>
		</radialGradient>
		<radialGradient cx="0" cy="0" r="1448.15" id="color-zBP3GgWL" gradientUnits="userSpaceOnUse">
			<stop offset="0.08" stop-color="#000000"/>
			<stop offset="1" stop-color="#ffffff"/>
		</radialGradient>
		<filter id="filter-Ws7pN5vf" color-interpolation-filters="sRGB">
			<feOffset/>
		</filter>
		<filter id="filter-zBKcgXkH" x="0%" y="0%" width="100%" height="100%" color-interpolation-filters="sRGB">
			<feColorMatrix values="1 0 0 0 0 0 1 0 0 0 0 0 1 0 0 0 0 0 0.05 0" in="SourceGraphic"/>
			<feOffset dy="20"/>
			<feGaussianBlur stdDeviation="11" result="blur0"/>
			<feColorMatrix values="1 0 0 0 0 0 1 0 0 0 0 0 1 0 0 0 0 0 0.07 0" in="SourceGraphic"/>
			<feOffset dy="30"/>
			<feGaussianBlur stdDeviation="20" result="blur1"/>
			<feMerge>
				<feMergeNode in="blur0"/>
				<feMergeNode in="blur1"/>
			</feMerge>
		</filter>
		<mask id="mask-59QJbt9K">
			<rect fill="url(#color-zBP3GgWL)" x="52.97" y="17.66" width="918.06" height="988.68"/>
		</mask>
		<mask id="mask-eHVkuXZG">
			<rect fill="url(#color-hmQd0z1h)" x="52.97" y="17.66" width="918.06" height="988.68"/>
		</mask>
		<mask id="mask-frcwVOdL">
			<path d="M246.93,800.45c-19.69,29.34 -52.54,47 -88.03,47c-58.49,0 -105.93,-47.44 -105.93,-105.93c0,-51.71 37.41,-95.92 88.27,-104.47v-250.1c-50.86,-8.55 -88.27,-52.78 -88.27,-104.47c0,-58.49 47.44,-105.93 105.93,-105.93c35.47,0 68.36,17.66 88.03,47l162.56,-73.16c-2.24,-8.56 -3.42,-17.55 -3.42,-26.8c0,-58.49 47.44,-105.93 105.93,-105.93c58.49,0 105.93,47.44 105.93,105.93c0,9.53 -1.25,18.77 -3.62,27.56l162.32,73.05c19.63,-29.73 52.7,-47.65 88.47,-47.65c58.49,0 105.93,47.44 105.93,105.93c0,51.69 -37.41,95.92 -88.27,104.47v250.1c50.86,8.55 88.27,52.78 88.27,104.47c0,58.49 -47.44,105.93 -105.93,105.93c-35.49,0 -68.34,-17.66 -88.03,-47l-162.56,73.16c2.24,8.56 3.42,17.55 3.42,26.8c0,58.49 -47.44,105.93 -105.93,105.93c-58.49,0 -105.93,-47.44 -105.93,-105.93c0,-9.25 1.18,-18.24 3.42,-26.8zM423.72,641.68l-162.32,73.04c2.24,8.56 3.43,17.55 3.43,26.8c0,9.25 -1.19,18.24 -3.43,26.8l162.57,73.16c16.19,-24.13 41.61,-40.71 70.37,-45.53v-250.11c-50.86,-8.55 -88.27,-52.77 -88.27,-104.46c0,-9.25 1.18,-18.24 3.42,-26.8l-162.56,-73.16c-16.19,24.13 -41.64,40.69 -70.38,45.53v250.1c28.74,4.82 54.19,21.38 70.38,45.53l176.79,-79.57zM614.51,414.58c2.24,8.56 3.42,17.55 3.42,26.8c0,51.71 -37.41,95.91 -88.27,104.46v250.11c28.74,4.82 54.18,21.38 70.37,45.53l162.57,-73.16c-2.24,-8.56 -3.43,-17.55 -3.43,-26.8c0,-9.25 1.19,-18.24 3.43,-26.8l-162.32,-73.04v-38.67l176.79,79.56c16.21,-24.13 41.62,-40.68 70.38,-45.52v-250.1c-28.74,-4.82 -54.19,-21.38 -70.38,-45.53zM261.4,255.68c2.22,8.56 3.43,17.55 3.43,26.8c0,9.25 -1.19,18.24 -3.43,26.8l162.57,73.15c19.69,-29.34 52.54,-46.98 88.03,-46.98c35.49,0 68.34,17.66 88.03,47l162.57,-73.17c-2.24,-8.56 -3.43,-17.55 -3.43,-26.8c0,-8.99 1.13,-17.71 3.23,-26.04l-162.81,-73.27c-16.23,23.8 -41.43,40.1 -69.93,44.88v37.64c-5.81,-0.56 -11.71,-0.86 -17.66,-0.86c-5.97,0 -11.85,0.3 -17.66,0.86v-37.64c-28.76,-4.84 -54.18,-21.4 -70.37,-45.53zM865.1,670.9c-39,0 -70.62,31.62 -70.62,70.62c0,39 31.62,70.62 70.62,70.62c39,0 70.62,-31.62 70.62,-70.62c0,-39 -31.62,-70.62 -70.62,-70.62zM865.1,211.86c-39,0 -70.62,31.62 -70.62,70.62c0,39 31.62,70.62 70.62,70.62c39,0 70.62,-31.62 70.62,-70.62c0,-39 -31.62,-70.62 -70.62,-70.62zM158.9,670.9c-39,0 -70.62,31.62 -70.62,70.62c0,39 31.62,70.62 70.62,70.62c39,0 70.62,-31.62 70.62,-70.62c0,-39 -31.62,-70.62 -70.62,-70.62zM158.9,211.86c-39,0 -70.62,31.62 -70.62,70.62c0,39 31.62,70.62 70.62,70.62c39,0 70.62,-31.62 70.62,-70.62c0,-39 -31.62,-70.62 -70.62,-70.62zM512,52.97c-39,0 -70.62,31.62 -70.62,70.62c0,39 31.62,70.62 70.62,70.62c39,0 70.62,-31.62 70.62,-70.62c0,-39 -31.62,-70.62 -70.62,-70.62zM512,370.76c-39,0 -70.62,31.62 -70.62,70.62c0,39 31.62,70.62 70.62,70.62c39,0 70.62,-31.62 70.62,-70.62c0,-39 -31.62,-70.62 -70.62,-70.62zM512,829.79c-39,0 -70.62,31.62 -70.62,70.62c0,39 31.62,70.62 70.62,70.62c39,0 70.62,-31.62 70.62,-70.62c0,-39 -31.62,-70.62 -70.62,-70.62z" fill="#ffffff"/>
		</mask>
		<mask id="mask-UXa8uNPq">
			<path d="M246.93,800.45c-19.69,29.34 -52.54,47 -88.03,47c-58.49,0 -105.93,-47.44 -105.93,-105.93c0,-51.71 37.41,-95.92 88.27,-104.47v-250.1c-50.86,-8.55 -88.27,-52.78 -88.27,-104.47c0,-58.49 47.44,-105.93 105.93,-105.93c35.47,0 68.36,17.66 88.03,47l162.56,-73.16c-2.24,-8.56 -3.42,-17.55 -3.42,-26.8c0,-58.49 47.44,-105.93 105.93,-105.93c58.49,0 105.93,47.44 105.93,105.93c0,9.53 -1.25,18.77 -3.62,27.56l162.32,73.05c19.63,-29.73 52.7,-47.65 88.47,-47.65c58.49,0 105.93,47.44 105.93,105.93c0,51.69 -37.41,95.92 -88.27,104.47v250.1c50.86,8.55 88.27,52.78 88.27,104.47c0,58.49 -47.44,105.93 -105.93,105.93c-35.49,0 -68.34,-17.66 -88.03,-47l-162.56,73.16c2.24,8.56 3.42,17.55 3.42,26.8c0,58.49 -47.44,105.93 -105.93,105.93c-58.49,0 -105.93,-47.44 -105.93,-105.93c0,-9.25 1.18,-18.24 3.42,-26.8zM423.72,641.68l-162.32,73.04c2.24,8.56 3.43,17.55 3.43,26.8c0,9.25 -1.19,18.24 -3.43,26.8l162.57,73.16c16.19,-24.13 41.61,-40.71 70.37,-45.53v-250.11c-50.86,-8.55 -88.27,-52.77 -88.27,-104.46c0,-9.25 1.18,-18.24 3.42,-26.8l-162.56,-73.16c-16.19,24.13 -41.64,40.69 -70.38,45.53v250.1c28.74,4.82 54.19,21.38 70.38,45.53l176.79,-79.57zM614.51,414.58c2.24,8.56 3.42,17.55 3.42,26.8c0,51.71 -37.41,95.91 -88.27,104.46v250.11c28.74,4.82 54.18,21.38 70.37,45.53l162.57,-73.16c-2.24,-8.56 -3.43,-17.55 -3.43,-26.8c0,-9.25 1.19,-18.24 3.43,-26.8l-162.32,-73.04v-38.67l176.79,79.56c16.21,-24.13 41.62,-40.68 70.38,-45.52v-250.1c-28.74,-4.82 -54.19,-21.38 -70.38,-45.53zM261.4,255.68c2.22,8.56 3.43,17.55 3.43,26.8c0,9.25 -1.19,18.24 -3.43,26.8l162.57,73.15c19.69,-29.34 52.54,-46.98 88.03,-46.98c35.49,0 68.34,17.66 88.03,47l162.57,-73.17c-2.24,-8.56 -3.43,-17.55 -3.43,-26.8c0,-8.99 1.13,-17.71 3.23,-26.04l-162.81,-73.27c-16.23,23.8 -41.43,40.1 -69.93,44.88v37.64c-5.81,-0.56 -11.71,-0.86 -17.66,-0.86c-5.97,0 -11.85,0.3 -17.66,0.86v-37.64c-28.76,-4.84 -54.18,-21.4 -70.37,-45.53zM865.1,670.9c-39,0 -70.62,31.62 -70.62,70.62c0,39 31.62,70.62 70.62,70.62c39,0 70.62,-31.62 70.62,-70.62c0,-39 -31.62,-70.62 -70.62,-70.62zM865.1,211.86c-39,0 -70.62,31.62 -70.62,70.62c0,39 31.62,70.62 70.62,70.62c39,0 70.62,-31.62 70.62,-70.62c0,-39 -31.62,-70.62 -70.62,-70.62zM158.9,670.9c-39,0 -70.62,31.62 -70.62,70.62c0,39 31.62,70.62 70.62,70.62c39,0 70.62,-31.62 70.62,-70.62c0,-39 -31.62,-70.62 -70.62,-70.62zM158.9,211.86c-39,0 -70.62,31.62 -70.62,70.62c0,39 31.62,70.62 70.62,70.62c39,0 70.62,-31.62 70.62,-70.62c0,-39 -31.62,-70.62 -70.62,-70.62zM512,52.97c-39,0 -70.62,31.62 -70.62,70.62c0,39 31.62,70.62 70.62,70.62c39,0 70.62,-31.62 70.62,-70.62c0,-39 -31.62,-70.62 -70.62,-70.62zM512,370.76c-39,0 -70.62,31.62 -70.62,70.62c0,39 31.62,70.62 70.62,70.62c39,0 70.62,-31.62 70.62,-70.62c0,-39 -31.62,-70.62 -70.62,-70.62zM512,829.79c-39,0 -70.62,31.62 -70.62,70.62c0,39 31.62,70.62 70.62,70.62c39,0 70.62,-31.62 70.62,-70.62c0,-39 -31.62,-70.62 -70.62,-70.62z" fill="url(#color-rYss2xZw)"/>
		</mask>
	</defs>
	<g fill="none" fill-rule="nonzero" style="mix-blend-mode: normal">
		<g mask="url(#mask-frcwVOdL)">
			<g color="#00aeff" class="color-2">
				<rect x="52.97" y="17.66" width="918.06" height="988.68" fill="currentColor"/>
			</g>
			<g color="#a800ff" class="color-3" mask="url(#mask-eHVkuXZG)">
				<rect x="52.97" y="17.66" width="918.06" height="988.68" fill="currentColor"/>
			</g>
		</g>
		<g filter="url(#filter-Ws7pN5vf)" mask="url(#mask-UXa8uNPq)">
			<g color="#48f1cf" class="color-1">
				<rect x="52.97" y="17.66" width="918.06" height="988.68" fill="currentColor"/>
			</g>
			<g color="#00aeff" class="color-2" mask="url(#mask-59QJbt9K)">
				<rect x="52.97" y="17.66" width="918.06" height="988.68" fill="currentColor"/>
			</g>
		</g>
		<g clip-path="url(#clip-J1NN71Sl)">
			<path d="M-40.03,1049.34v-1174.68h1104.06v1174.68zM409.49,873.61c-2.24,8.56 -3.42,17.55 -3.42,26.8c0,58.49 47.44,105.93 105.93,105.93c58.49,0 105.93,-47.44 105.93,-105.93c0,-9.25 -1.18,-18.24 -3.42,-26.8l162.56,-73.16c19.69,29.34 52.54,47 88.03,47c58.49,0 105.93,-47.44 105.93,-105.93c0,-51.69 -37.41,-95.92 -88.27,-104.47v-250.1c50.86,-8.55 88.27,-52.78 88.27,-104.47c0,-58.49 -47.44,-105.93 -105.93,-105.93c-35.77,0 -68.84,17.92 -88.47,47.65l-162.32,-73.05c2.37,-8.79 3.62,-18.03 3.62,-27.56c0,-58.49 -47.44,-105.93 -105.93,-105.93c-58.49,0 -105.93,47.44 -105.93,105.93c0,9.25 1.18,18.24 3.42,26.8l-162.56,73.16c-19.67,-29.34 -52.56,-47 -88.03,-47c-58.49,0 -105.93,47.44 -105.93,105.93c0,51.69 37.41,95.92 88.27,104.47v250.1c-50.86,8.55 -88.27,52.76 -88.27,104.47c0,58.49 47.44,105.93 105.93,105.93c35.49,0 68.34,-17.66 88.03,-47zM423.72,603.01l-176.79,79.57c-16.19,-24.15 -41.64,-40.71 -70.38,-45.53v-250.1c28.74,-4.84 54.19,-21.4 70.38,-45.53l162.56,73.16c-2.24,8.56 -3.42,17.55 -3.42,26.8c0,51.69 37.41,95.91 88.27,104.46v250.11c-28.76,4.82 -54.18,21.4 -70.37,45.53l-162.57,-73.16c2.24,-8.56 3.43,-17.55 3.43,-26.8c0,-9.25 -1.19,-18.24 -3.43,-26.8l162.32,-73.04zM777.07,341.42c16.19,24.15 41.64,40.71 70.38,45.53v250.1c-28.76,4.84 -54.17,21.39 -70.38,45.52l-176.79,-79.56v38.67l162.32,73.04c-2.24,8.56 -3.43,17.55 -3.43,26.8c0,9.25 1.19,18.24 3.43,26.8l-162.57,73.16c-16.19,-24.15 -41.63,-40.71 -70.37,-45.53v-250.11c50.86,-8.55 88.27,-52.75 88.27,-104.46c0,-9.25 -1.18,-18.24 -3.42,-26.8zM423.97,182.52c16.19,24.13 41.61,40.69 70.37,45.53v37.64c5.81,-0.56 11.69,-0.86 17.66,-0.86c5.95,0 11.85,0.3 17.66,0.86v-37.64c28.5,-4.78 53.7,-21.08 69.93,-44.88l162.81,73.27c-2.1,8.33 -3.23,17.05 -3.23,26.04c0,9.25 1.19,18.24 3.43,26.8l-162.57,73.17c-19.69,-29.34 -52.54,-47 -88.03,-47c-35.49,0 -68.34,17.64 -88.03,46.98l-162.57,-73.15c2.24,-8.56 3.43,-17.55 3.43,-26.8c0,-9.25 -1.21,-18.24 -3.43,-26.8zM935.72,741.52c0,39 -31.62,70.62 -70.62,70.62c-39,0 -70.62,-31.62 -70.62,-70.62c0,-39 31.62,-70.62 70.62,-70.62c39,0 70.62,31.62 70.62,70.62zM935.72,282.48c0,39 -31.62,70.62 -70.62,70.62c-39,0 -70.62,-31.62 -70.62,-70.62c0,-39 31.62,-70.62 70.62,-70.62c39,0 70.62,31.62 70.62,70.62zM229.52,741.52c0,39 -31.62,70.62 -70.62,70.62c-39,0 -70.62,-31.62 -70.62,-70.62c0,-39 31.62,-70.62 70.62,-70.62c39,0 70.62,31.62 70.62,70.62zM229.52,282.48c0,39 -31.62,70.62 -70.62,70.62c-39,0 -70.62,-31.62 -70.62,-70.62c0,-39 31.62,-70.62 70.62,-70.62c39,0 70.62,31.62 70.62,70.62zM582.62,123.59c0,39 -31.62,70.62 -70.62,70.62c-39,0 -70.62,-31.62 -70.62,-70.62c0,-39 31.62,-70.62 70.62,-70.62c39,0 70.62,31.62 70.62,70.62zM582.62,441.38c0,39 -31.62,70.62 -70.62,70.62c-39,0 -70.62,-31.62 -70.62,-70.62c0,-39 31.62,-70.62 70.62,-70.62c39,0 70.62,31.62 70.62,70.62zM582.62,900.41c0,39 -31.62,70.62 -70.62,70.62c-39,0 -70.62,-31.62 -70.62,-70.62c0,-39 31.62,-70.62 70.62,-70.62c39,0 70.62,31.62 70.62,70.62z" fill="#000000" fill-opacity="1" filter="url(#filter-zBKcgXkH)"/>
		</g>
	</g>
</svg>