<svg version="1.1" xmlns="http://www.w3.org/2000/svg" xmlns:xlink="http://www.w3.org/1999/xlink" viewBox="0,0,1024,1024">
	<!-- Color names: color-1, color-2, color-3 -->
	<desc>gauge icon - Licensed under Iconfu Standard License v1.0 (https://www.iconfu.com/iconfu_standard_license) - Incors GmbH</desc>
	<defs>
		<clipPath id="clip-OzEK3WYL">
			<path d="M512,52.97c253.51,0 459.03,205.52 459.03,459.03c0,253.51 -205.52,459.03 -459.03,459.03c-253.51,0 -459.03,-205.52 -459.03,-459.03c0,-253.51 205.52,-459.03 459.03,-459.03zM512,88.28c-234.02,0 -423.72,189.7 -423.72,423.72c0,234.02 189.7,423.72 423.72,423.72c234.02,0 423.72,-189.7 423.72,-423.72c0,-234.02 -189.7,-423.72 -423.72,-423.72zM261.81,721.9c-49.26,-58.69 -76.43,-133.28 -76.43,-209.9c0,-180.38 146.24,-326.62 326.62,-326.62c48.06,0 93.72,10.38 134.8,29.02l-25.11,27.65c-33.86,-13.77 -70.88,-21.36 -109.69,-21.36c-160.89,0 -291.31,130.42 -291.31,291.31c0,68.63 24.03,134.71 68.15,187.29zM721.14,185.03l-124.55,389.43c-4.18,13.14 -10.83,24.51 -19.64,33.85c-17.83,18.93 -45.24,29.57 -71.16,27.56c-26.11,-2.03 -52.54,-17.29 -67.34,-38.9c-14.67,-21.4 -19.23,-50.52 -11.78,-75.38c3.71,-12.36 10.23,-23.8 19.46,-33.95zM730.98,269.67c68.7,62.11 107.64,149.64 107.64,242.33c0,76.62 -27.17,151.21 -76.43,209.9l-27.03,-22.61c44.12,-52.58 68.15,-118.66 68.15,-187.29c0,-79.91 -32.19,-152.31 -84.29,-204.94zM638.32,328.56l-166.11,182.79c-5.63,6.2 -9.58,13.03 -11.75,20.3c-4.48,14.94 -1.73,32.61 7.08,45.46c8.74,12.76 25.41,22.39 40.86,23.59c15.48,1.2 32.25,-5.22 42.9,-16.54c5.26,-5.58 9.24,-12.41 11.78,-20.32z"/>
		</clipPath>
		<linearGradient x1="0" y1="1024" x2="1024" y2="0" id="color-CjGA4N8E" gradientUnits="userSpaceOnUse">
			<stop offset="0.2" stop-color="#000000"/>
			<stop offset="0.8" stop-color="#ffffff"/>
		</linearGradient>
		<radialGradient cx="0" cy="0" r="1448.15" id="color-xSzFMYsh" gradientUnits="userSpaceOnUse">
			<stop offset="0.08" stop-color="#000000"/>
			<stop offset="1" stop-color="#ffffff"/>
		</radialGradient>
		<radialGradient cx="0" cy="0" r="1448.15" id="color-ZcPbnLJw" gradientUnits="userSpaceOnUse">
			<stop offset="0.08" stop-color="#ffffff"/>
			<stop offset="1" stop-color="#000000"/>
		</radialGradient>
		<filter id="filter-4tLOdXqO" x="0%" y="0%" width="100%" height="100%" color-interpolation-filters="sRGB">
			<feColorMatrix values="1 0 0 0 0 0 1 0 0 0 0 0 1 0 0 0 0 0 0.05 0" in="SourceGraphic"/>
			<feOffset dy="20"/>
			<feGaussianBlur stdDeviation="11" result="blur0"/>
			<feColorMatrix values="1 0 0 0 0 0 1 0 0 0 0 0 1 0 0 0 0 0 0.07 0" in="SourceGraphic"/>
			<feOffset dy="30"/>
			<feGaussianBlur stdDeviation="20" result="blur1"/>
			<feMerge>
				<feMergeNode in="blur0"/>
				<feMergeNode in="blur1"/>
			</feMerge>
		</filter>
		<filter id="filter-cW2oWgyx" color-interpolation-filters="sRGB">
			<feOffset/>
		</filter>
		<mask id="mask-0kbFkm10">
			<path d="M512,52.97c253.51,0 459.03,205.52 459.03,459.03c0,253.51 -205.52,459.03 -459.03,459.03c-253.51,0 -459.03,-205.52 -459.03,-459.03c0,-253.51 205.52,-459.03 459.03,-459.03zM512,88.28c-234.02,0 -423.72,189.7 -423.72,423.72c0,234.02 189.7,423.72 423.72,423.72c234.02,0 423.72,-189.7 423.72,-423.72c0,-234.02 -189.7,-423.72 -423.72,-423.72zM261.81,721.9c-49.26,-58.69 -76.43,-133.28 -76.43,-209.9c0,-180.38 146.24,-326.62 326.62,-326.62c48.06,0 93.72,10.38 134.8,29.02l-25.11,27.65c-33.86,-13.77 -70.88,-21.36 -109.69,-21.36c-160.89,0 -291.31,130.42 -291.31,291.31c0,68.63 24.03,134.71 68.15,187.29zM721.14,185.03l-124.55,389.43c-4.18,13.14 -10.83,24.51 -19.64,33.85c-17.83,18.93 -45.24,29.57 -71.16,27.56c-26.11,-2.03 -52.54,-17.29 -67.34,-38.9c-14.67,-21.4 -19.23,-50.52 -11.78,-75.38c3.71,-12.36 10.23,-23.8 19.46,-33.95zM730.98,269.67c68.7,62.11 107.64,149.64 107.64,242.33c0,76.62 -27.17,151.21 -76.43,209.9l-27.03,-22.61c44.12,-52.58 68.15,-118.66 68.15,-187.29c0,-79.91 -32.19,-152.31 -84.29,-204.94zM638.32,328.56l-166.11,182.79c-5.63,6.2 -9.58,13.03 -11.75,20.3c-4.48,14.94 -1.73,32.61 7.08,45.46c8.74,12.76 25.41,22.39 40.86,23.59c15.48,1.2 32.25,-5.22 42.9,-16.54c5.26,-5.58 9.24,-12.41 11.78,-20.32z" fill="#ffffff"/>
		</mask>
		<mask id="mask-tvukpnyq">
			<path d="M512,52.97c253.51,0 459.03,205.52 459.03,459.03c0,253.51 -205.52,459.03 -459.03,459.03c-253.51,0 -459.03,-205.52 -459.03,-459.03c0,-253.51 205.52,-459.03 459.03,-459.03zM512,88.28c-234.02,0 -423.72,189.7 -423.72,423.72c0,234.02 189.7,423.72 423.72,423.72c234.02,0 423.72,-189.7 423.72,-423.72c0,-234.02 -189.7,-423.72 -423.72,-423.72zM261.81,721.9c-49.26,-58.69 -76.43,-133.28 -76.43,-209.9c0,-180.38 146.24,-326.62 326.62,-326.62c48.06,0 93.72,10.38 134.8,29.02l-25.11,27.65c-33.86,-13.77 -70.88,-21.36 -109.69,-21.36c-160.89,0 -291.31,130.42 -291.31,291.31c0,68.63 24.03,134.71 68.15,187.29zM721.14,185.03l-124.55,389.43c-4.18,13.14 -10.83,24.51 -19.64,33.85c-17.83,18.93 -45.24,29.57 -71.16,27.56c-26.11,-2.03 -52.54,-17.29 -67.34,-38.9c-14.67,-21.4 -19.23,-50.52 -11.78,-75.38c3.71,-12.36 10.23,-23.8 19.46,-33.95zM730.98,269.67c68.7,62.11 107.64,149.64 107.64,242.33c0,76.62 -27.17,151.21 -76.43,209.9l-27.03,-22.61c44.12,-52.58 68.15,-118.66 68.15,-187.29c0,-79.91 -32.19,-152.31 -84.29,-204.94zM638.32,328.56l-166.11,182.79c-5.63,6.2 -9.58,13.03 -11.75,20.3c-4.48,14.94 -1.73,32.61 7.08,45.46c8.74,12.76 25.41,22.39 40.86,23.59c15.48,1.2 32.25,-5.22 42.9,-16.54c5.26,-5.58 9.24,-12.41 11.78,-20.32z" fill="url(#color-ZcPbnLJw)"/>
		</mask>
		<mask id="mask-VK0cXZ5W">
			<rect fill="url(#color-CjGA4N8E)" x="52.97" y="52.97" width="918.06" height="918.06"/>
		</mask>
		<mask id="mask-wgb3hCLA">
			<rect fill="url(#color-xSzFMYsh)" x="52.97" y="52.97" width="918.06" height="918.06"/>
		</mask>
	</defs>
	<g fill="none" fill-rule="nonzero" style="mix-blend-mode: normal">
		<g mask="url(#mask-0kbFkm10)">
			<g color="#00aeff" class="color-2">
				<rect x="52.97" y="52.97" width="918.06" height="918.06" fill="currentColor"/>
			</g>
			<g color="#a800ff" class="color-3" mask="url(#mask-VK0cXZ5W)">
				<rect x="52.97" y="52.97" width="918.06" height="918.06" fill="currentColor"/>
			</g>
		</g>
		<g filter="url(#filter-cW2oWgyx)" mask="url(#mask-tvukpnyq)">
			<g color="#48f1cf" class="color-1">
				<rect x="52.97" y="52.97" width="918.06" height="918.06" fill="currentColor"/>
			</g>
			<g color="#00aeff" class="color-2" mask="url(#mask-wgb3hCLA)">
				<rect x="52.97" y="52.97" width="918.06" height="918.06" fill="currentColor"/>
			</g>
		</g>
		<g clip-path="url(#clip-OzEK3WYL)">
			<path d="M-40.03,1014.03v-1104.06h1104.06v1104.06zM52.97,512c0,253.51 205.52,459.03 459.03,459.03c253.51,0 459.03,-205.52 459.03,-459.03c0,-253.51 -205.52,-459.03 -459.03,-459.03c-253.51,0 -459.03,205.52 -459.03,459.03zM935.72,512c0,234.02 -189.7,423.72 -423.72,423.72c-234.02,0 -423.72,-189.7 -423.72,-423.72c0,-234.02 189.7,-423.72 423.72,-423.72c234.02,0 423.72,189.7 423.72,423.72zM288.84,699.29c-44.12,-52.58 -68.15,-118.66 -68.15,-187.29c0,-160.89 130.42,-291.31 291.31,-291.31c38.81,0 75.83,7.59 109.69,21.36l25.11,-27.65c-41.08,-18.64 -86.74,-29.02 -134.8,-29.02c-180.38,0 -326.62,146.24 -326.62,326.62c0,76.62 27.17,151.21 76.43,209.9zM446.13,487.64c-9.23,10.15 -15.75,21.59 -19.46,33.95c-7.45,24.86 -2.89,53.98 11.78,75.38c14.8,21.61 41.23,36.87 67.34,38.9c25.92,2.01 53.33,-8.63 71.16,-27.56c8.81,-9.34 15.46,-20.71 19.64,-33.85l124.55,-389.43zM719.02,307.06c52.1,52.63 84.29,125.03 84.29,204.94c0,68.63 -24.03,134.71 -68.15,187.29l27.03,22.61c49.26,-58.69 76.43,-133.28 76.43,-209.9c0,-92.69 -38.94,-180.22 -107.64,-242.33zM563.08,563.84c-2.54,7.91 -6.52,14.74 -11.78,20.32c-10.65,11.32 -27.42,17.74 -42.9,16.54c-15.45,-1.2 -32.12,-10.83 -40.86,-23.59c-8.81,-12.85 -11.56,-30.52 -7.08,-45.46c2.17,-7.27 6.12,-14.1 11.75,-20.3l166.11,-182.79z" fill="#000000" fill-opacity="1" filter="url(#filter-4tLOdXqO)"/>
		</g>
	</g>
</svg>