<svg version="1.1" xmlns="http://www.w3.org/2000/svg" xmlns:xlink="http://www.w3.org/1999/xlink" viewBox="0,0,1024,1024">
	<!-- Color names: color-1, color-2, color-3 -->
	<desc>gearwheel icon - Licensed under Iconfu Standard License v1.0 (https://www.iconfu.com/iconfu_standard_license) - Incors GmbH</desc>
	<defs>
		<clipPath id="clip-Aaock9Qx">
			<path d="M723.51,228.62c10.91,8.21 21.22,16.93 31.11,26.36l85.77,-23.34c20.62,-5.61 42.1,2.47 53.95,20.23c12.94,19.37 24.2,39.03 34.32,59.99c9.37,19.42 5.41,41.83 -10.06,56.85l-63.68,61.79c3.07,13.31 5.35,26.88 6.83,40.47l80.56,37.2c19.4,8.95 30.74,28.99 28.39,50.23c-2.52,22.83 -6.66,45.73 -12.34,67.99c-5.3,20.83 -22.89,35.51 -44.32,37.06l-88.59,6.4c-6.21,12.09 -13.15,23.89 -20.69,35.19l37.76,80.19c9.16,19.46 4.96,41.93 -10.61,56.76c-16.86,16.08 -34.34,30.55 -53.28,44.14c-17.36,12.46 -40.31,12.47 -57.65,-0.07l-71.99,-52.03c-12.5,5.28 -25.16,9.76 -38.19,13.56l-22.62,85.75c-5.49,20.78 -23.25,35.35 -44.7,36.67c-23.02,1.43 -46.27,1.27 -69.26,-0.48c-21.33,-1.62 -38.95,-16.47 -44.16,-37.2l-21.71,-86.19c-12.71,-3.9 -25.38,-8.58 -37.56,-13.91l-72.49,51.16c-17.41,12.29 -40.52,12.06 -57.68,-0.58c-18.64,-13.75 -36.47,-28.95 -53.03,-45.16c-15.32,-15.01 -19.23,-37.42 -9.87,-56.73l38.79,-80.01c-7.2,-11.11 -13.8,-22.65 -19.71,-34.5l-88.59,-7.41c-21.42,-1.8 -38.77,-16.7 -43.84,-37.59c-5.53,-22.78 -9.34,-45.38 -11.62,-68.7c-2.08,-21.33 9.4,-41.01 28.94,-49.77l81,-36.3c1.62,-13.12 4.05,-26.36 7.14,-39.21l-63.16,-62.67c-15.24,-15.11 -18.98,-37.62 -9.46,-56.85c10.29,-20.82 22.04,-40.9 35.12,-60.07c12.06,-17.64 33.61,-25.49 54.18,-19.65l85.49,24.3c9.73,-9.06 20.13,-17.71 30.79,-25.64l-8.11,-88.66c-1.94,-21.26 9.68,-41.01 29.22,-49.63c21.13,-9.32 43.11,-17.2 65.34,-23.45c20.67,-5.83 42.13,2.07 54.17,19.83l49.82,73.46c13.4,-0.69 27.09,-0.63 40.49,0.18l50.79,-73.11c12.24,-17.6 33.73,-25.18 54.32,-19.19c22.33,6.53 43.76,14.38 64.96,23.97c19.51,8.79 30.97,28.75 28.78,50.02zM688.38,225.97l9.16,-89.28c0.65,-6.36 -2.42,-11.67 -8.23,-14.3c-19.56,-8.83 -39.67,-16.3 -60.27,-22.3c-6.06,-1.78 -11.98,0.35 -15.58,5.52l-51.32,73.91c-6.76,9.73 -17.83,15.06 -29.64,14.3c-12.85,-0.83 -25.43,-0.91 -38.28,-0.2c-11.95,0.65 -22.83,-4.76 -29.52,-14.65l-50.39,-74.31c-3.55,-5.23 -9.48,-7.32 -15.55,-5.63c-20.96,5.91 -40.73,13.01 -60.65,21.8c-5.81,2.54 -8.96,7.86 -8.4,14.2l8.19,89.63c1.08,11.86 -3.89,22.96 -13.49,30.02c-10.24,7.54 -19.75,15.47 -29.02,24.17c-8.65,8.1 -20.67,11.07 -32.08,7.82l-86.32,-24.54c-6.13,-1.73 -11.97,0.32 -15.55,5.58c-12.29,17.97 -23.01,36.28 -32.65,55.79c-2.79,5.65 -1.76,11.86 2.71,16.29l63.84,63.35c8.46,8.4 11.72,20.06 8.93,31.64c-3,12.27 -5.16,24.43 -6.66,36.98c-1.41,11.86 -8.7,21.7 -19.61,26.59l-81.96,36.73c-5.76,2.58 -8.88,8.06 -8.26,14.31c2.1,21.49 5.71,42.79 10.79,63.76c1.5,6.13 6.26,10.15 12.53,10.68l89.59,7.5c11.79,0.97 22.01,7.97 27.24,18.56c5.56,11.25 11.77,22.16 18.62,32.66c6.5,9.98 7.28,22.11 2.09,32.84l-39.2,80.86c-2.75,5.67 -1.65,11.89 2.85,16.29c15.57,15.25 31.62,28.91 49.17,41.85c5.17,3.81 11.31,3.88 16.57,0.17l73.29,-51.73c9.66,-6.81 21.98,-8.04 32.8,-3.26c11.6,5.12 23.31,9.53 35.44,13.24c11.42,3.46 19.85,12.27 22.76,23.85l21.94,87.13c1.57,6.18 6.2,10.09 12.57,10.57c21.73,1.66 42.82,1.82 64.57,0.48c6.32,-0.39 11.1,-4.36 12.71,-10.47l22.88,-86.69c3.04,-11.55 11.59,-20.28 23.07,-23.6c12.18,-3.51 24.33,-7.88 36.02,-12.84c10.98,-4.7 23,-3.31 32.68,3.66l72.77,52.61c5.12,3.71 11.41,3.76 16.55,0.07c17.43,-12.52 34.04,-26.3 49.56,-41.1c4.57,-4.34 5.69,-10.53 3.01,-16.21l-38.17,-81.09c-5.1,-10.84 -4.2,-22.97 2.49,-32.91c7.2,-10.7 13.67,-21.73 19.51,-33.22c5.4,-10.65 15.57,-17.44 27.47,-18.29l89.62,-6.48c6.27,-0.46 11.04,-4.49 12.59,-10.58c5.35,-21.03 9.11,-41.6 11.49,-63.17c0.71,-6.37 -2.27,-11.67 -8.08,-14.37l-81.48,-37.61c-10.88,-5.01 -17.99,-14.97 -19.26,-26.85c-1.38,-12.85 -3.55,-25.56 -6.46,-38.15c-2.7,-11.55 0.77,-23.32 9.28,-31.6l64.39,-62.49c4.5,-4.36 5.62,-10.64 2.9,-16.27c-9.29,-19.26 -19.96,-37.96 -31.84,-55.72c-3.55,-5.33 -9.3,-7.44 -15.46,-5.76l-86.71,23.52c-11.63,3.16 -23.24,0.21 -31.94,-8.14c-9.23,-8.85 -19.15,-17.27 -29.37,-24.93c-9.55,-7.15 -14.46,-18.31 -13.24,-30.19zM512,333.26c97.51,0 176.55,79.04 176.55,176.55c0,97.51 -79.04,176.55 -176.55,176.55c-97.51,0 -176.55,-79.04 -176.55,-176.55c0,-97.51 79.04,-176.55 176.55,-176.55zM512,368.57c-78.02,0 -141.24,63.22 -141.24,141.24c0,78.02 63.22,141.24 141.24,141.24c78.02,0 141.24,-63.22 141.24,-141.24c0,-78.02 -63.22,-141.24 -141.24,-141.24z"/>
		</clipPath>
		<linearGradient x1="0" y1="1024" x2="1024" y2="0" id="color-aLaL9ffb" gradientUnits="userSpaceOnUse">
			<stop offset="0.2" stop-color="#000000"/>
			<stop offset="0.8" stop-color="#ffffff"/>
		</linearGradient>
		<radialGradient cx="0" cy="0" r="1448.15" id="color-JQTfIR2A" gradientUnits="userSpaceOnUse">
			<stop offset="0.08" stop-color="#000000"/>
			<stop offset="1" stop-color="#ffffff"/>
		</radialGradient>
		<radialGradient cx="0" cy="0" r="1448.15" id="color-SxIrwcOG" gradientUnits="userSpaceOnUse">
			<stop offset="0.08" stop-color="#ffffff"/>
			<stop offset="1" stop-color="#000000"/>
		</radialGradient>
		<filter id="filter-3aMV4i3n" color-interpolation-filters="sRGB">
			<feOffset/>
		</filter>
		<filter id="filter-TuUoCGuo" x="0%" y="0%" width="100%" height="100%" color-interpolation-filters="sRGB">
			<feColorMatrix values="1 0 0 0 0 0 1 0 0 0 0 0 1 0 0 0 0 0 0.05 0" in="SourceGraphic"/>
			<feOffset dy="20"/>
			<feGaussianBlur stdDeviation="11" result="blur0"/>
			<feColorMatrix values="1 0 0 0 0 0 1 0 0 0 0 0 1 0 0 0 0 0 0.07 0" in="SourceGraphic"/>
			<feOffset dy="30"/>
			<feGaussianBlur stdDeviation="20" result="blur1"/>
			<feMerge>
				<feMergeNode in="blur0"/>
				<feMergeNode in="blur1"/>
			</feMerge>
		</filter>
		<mask id="mask-iKcCkmfe">
			<rect fill="url(#color-JQTfIR2A)" x="52.51" y="63.21" width="918.5" height="907.76"/>
		</mask>
		<mask id="mask-rZzWp9l5">
			<path d="M723.51,228.62c10.91,8.21 21.22,16.93 31.11,26.36l85.77,-23.34c20.62,-5.61 42.1,2.47 53.95,20.23c12.94,19.37 24.2,39.03 34.32,59.99c9.37,19.42 5.41,41.83 -10.06,56.85l-63.68,61.79c3.07,13.31 5.35,26.88 6.83,40.47l80.56,37.2c19.4,8.95 30.74,28.99 28.39,50.23c-2.52,22.83 -6.66,45.73 -12.34,67.99c-5.3,20.83 -22.89,35.51 -44.32,37.06l-88.59,6.4c-6.21,12.09 -13.15,23.89 -20.69,35.19l37.76,80.19c9.16,19.46 4.96,41.93 -10.61,56.76c-16.86,16.08 -34.34,30.55 -53.28,44.14c-17.36,12.46 -40.31,12.47 -57.65,-0.07l-71.99,-52.03c-12.5,5.28 -25.16,9.76 -38.19,13.56l-22.62,85.75c-5.49,20.78 -23.25,35.35 -44.7,36.67c-23.02,1.43 -46.27,1.27 -69.26,-0.48c-21.33,-1.62 -38.95,-16.47 -44.16,-37.2l-21.71,-86.19c-12.71,-3.9 -25.38,-8.58 -37.56,-13.91l-72.49,51.16c-17.41,12.29 -40.52,12.06 -57.68,-0.58c-18.64,-13.75 -36.47,-28.95 -53.03,-45.16c-15.32,-15.01 -19.23,-37.42 -9.87,-56.73l38.79,-80.01c-7.2,-11.11 -13.8,-22.65 -19.71,-34.5l-88.59,-7.41c-21.42,-1.8 -38.77,-16.7 -43.84,-37.59c-5.53,-22.78 -9.34,-45.38 -11.62,-68.7c-2.08,-21.33 9.4,-41.01 28.94,-49.77l81,-36.3c1.62,-13.12 4.05,-26.36 7.14,-39.21l-63.16,-62.67c-15.24,-15.11 -18.98,-37.62 -9.46,-56.85c10.29,-20.82 22.04,-40.9 35.12,-60.07c12.06,-17.64 33.61,-25.49 54.18,-19.65l85.49,24.3c9.73,-9.06 20.13,-17.71 30.79,-25.64l-8.11,-88.66c-1.94,-21.26 9.68,-41.01 29.22,-49.63c21.13,-9.32 43.11,-17.2 65.34,-23.45c20.67,-5.83 42.13,2.07 54.17,19.83l49.82,73.46c13.4,-0.69 27.09,-0.63 40.49,0.18l50.79,-73.11c12.24,-17.6 33.73,-25.18 54.32,-19.19c22.33,6.53 43.76,14.38 64.96,23.97c19.51,8.79 30.97,28.75 28.78,50.02zM688.38,225.97l9.16,-89.28c0.65,-6.36 -2.42,-11.67 -8.23,-14.3c-19.56,-8.83 -39.67,-16.3 -60.27,-22.3c-6.06,-1.78 -11.98,0.35 -15.58,5.52l-51.32,73.91c-6.76,9.73 -17.83,15.06 -29.64,14.3c-12.85,-0.83 -25.43,-0.91 -38.28,-0.2c-11.95,0.65 -22.83,-4.76 -29.52,-14.65l-50.39,-74.31c-3.55,-5.23 -9.48,-7.32 -15.55,-5.63c-20.96,5.91 -40.73,13.01 -60.65,21.8c-5.81,2.54 -8.96,7.86 -8.4,14.2l8.19,89.63c1.08,11.86 -3.89,22.96 -13.49,30.02c-10.24,7.54 -19.75,15.47 -29.02,24.17c-8.65,8.1 -20.67,11.07 -32.08,7.82l-86.32,-24.54c-6.13,-1.73 -11.97,0.32 -15.55,5.58c-12.29,17.97 -23.01,36.28 -32.65,55.79c-2.79,5.65 -1.76,11.86 2.71,16.29l63.84,63.35c8.46,8.4 11.72,20.06 8.93,31.64c-3,12.27 -5.16,24.43 -6.66,36.98c-1.41,11.86 -8.7,21.7 -19.61,26.59l-81.96,36.73c-5.76,2.58 -8.88,8.06 -8.26,14.31c2.1,21.49 5.71,42.79 10.79,63.76c1.5,6.13 6.26,10.15 12.53,10.68l89.59,7.5c11.79,0.97 22.01,7.97 27.24,18.56c5.56,11.25 11.77,22.16 18.62,32.66c6.5,9.98 7.28,22.11 2.09,32.84l-39.2,80.86c-2.75,5.67 -1.65,11.89 2.85,16.29c15.57,15.25 31.62,28.91 49.17,41.85c5.17,3.81 11.31,3.88 16.57,0.17l73.29,-51.73c9.66,-6.81 21.98,-8.04 32.8,-3.26c11.6,5.12 23.31,9.53 35.44,13.24c11.42,3.46 19.85,12.27 22.76,23.85l21.94,87.13c1.57,6.18 6.2,10.09 12.57,10.57c21.73,1.66 42.82,1.82 64.57,0.48c6.32,-0.39 11.1,-4.36 12.71,-10.47l22.88,-86.69c3.04,-11.55 11.59,-20.28 23.07,-23.6c12.18,-3.51 24.33,-7.88 36.02,-12.84c10.98,-4.7 23,-3.31 32.68,3.66l72.77,52.61c5.12,3.71 11.41,3.76 16.55,0.07c17.43,-12.52 34.04,-26.3 49.56,-41.1c4.57,-4.34 5.69,-10.53 3.01,-16.21l-38.17,-81.09c-5.1,-10.84 -4.2,-22.97 2.49,-32.91c7.2,-10.7 13.67,-21.73 19.51,-33.22c5.4,-10.65 15.57,-17.44 27.47,-18.29l89.62,-6.48c6.27,-0.46 11.04,-4.49 12.59,-10.58c5.35,-21.03 9.11,-41.6 11.49,-63.17c0.71,-6.37 -2.27,-11.67 -8.08,-14.37l-81.48,-37.61c-10.88,-5.01 -17.99,-14.97 -19.26,-26.85c-1.38,-12.85 -3.55,-25.56 -6.46,-38.15c-2.7,-11.55 0.77,-23.32 9.28,-31.6l64.39,-62.49c4.5,-4.36 5.62,-10.64 2.9,-16.27c-9.29,-19.26 -19.96,-37.96 -31.84,-55.72c-3.55,-5.33 -9.3,-7.44 -15.46,-5.76l-86.71,23.52c-11.63,3.16 -23.24,0.21 -31.94,-8.14c-9.23,-8.85 -19.15,-17.27 -29.37,-24.93c-9.55,-7.15 -14.46,-18.31 -13.24,-30.19zM512,333.26c97.51,0 176.55,79.04 176.55,176.55c0,97.51 -79.04,176.55 -176.55,176.55c-97.51,0 -176.55,-79.04 -176.55,-176.55c0,-97.51 79.04,-176.55 176.55,-176.55zM512,368.57c-78.02,0 -141.24,63.22 -141.24,141.24c0,78.02 63.22,141.24 141.24,141.24c78.02,0 141.24,-63.22 141.24,-141.24c0,-78.02 -63.22,-141.24 -141.24,-141.24z" fill="url(#color-SxIrwcOG)"/>
		</mask>
		<mask id="mask-TlQarADB">
			<path d="M723.51,228.62c10.91,8.21 21.22,16.93 31.11,26.36l85.77,-23.34c20.62,-5.61 42.1,2.47 53.95,20.23c12.94,19.37 24.2,39.03 34.32,59.99c9.37,19.42 5.41,41.83 -10.06,56.85l-63.68,61.79c3.07,13.31 5.35,26.88 6.83,40.47l80.56,37.2c19.4,8.95 30.74,28.99 28.39,50.23c-2.52,22.83 -6.66,45.73 -12.34,67.99c-5.3,20.83 -22.89,35.51 -44.32,37.06l-88.59,6.4c-6.21,12.09 -13.15,23.89 -20.69,35.19l37.76,80.19c9.16,19.46 4.96,41.93 -10.61,56.76c-16.86,16.08 -34.34,30.55 -53.28,44.14c-17.36,12.46 -40.31,12.47 -57.65,-0.07l-71.99,-52.03c-12.5,5.28 -25.16,9.76 -38.19,13.56l-22.62,85.75c-5.49,20.78 -23.25,35.35 -44.7,36.67c-23.02,1.43 -46.27,1.27 -69.26,-0.48c-21.33,-1.62 -38.95,-16.47 -44.16,-37.2l-21.71,-86.19c-12.71,-3.9 -25.38,-8.58 -37.56,-13.91l-72.49,51.16c-17.41,12.29 -40.52,12.06 -57.68,-0.58c-18.64,-13.75 -36.47,-28.95 -53.03,-45.16c-15.32,-15.01 -19.23,-37.42 -9.87,-56.73l38.79,-80.01c-7.2,-11.11 -13.8,-22.65 -19.71,-34.5l-88.59,-7.41c-21.42,-1.8 -38.77,-16.7 -43.84,-37.59c-5.53,-22.78 -9.34,-45.38 -11.62,-68.7c-2.08,-21.33 9.4,-41.01 28.94,-49.77l81,-36.3c1.62,-13.12 4.05,-26.36 7.14,-39.21l-63.16,-62.67c-15.24,-15.11 -18.98,-37.62 -9.46,-56.85c10.29,-20.82 22.04,-40.9 35.12,-60.07c12.06,-17.64 33.61,-25.49 54.18,-19.65l85.49,24.3c9.73,-9.06 20.13,-17.71 30.79,-25.64l-8.11,-88.66c-1.94,-21.26 9.68,-41.01 29.22,-49.63c21.13,-9.32 43.11,-17.2 65.34,-23.45c20.67,-5.83 42.13,2.07 54.17,19.83l49.82,73.46c13.4,-0.69 27.09,-0.63 40.49,0.18l50.79,-73.11c12.24,-17.6 33.73,-25.18 54.32,-19.19c22.33,6.53 43.76,14.38 64.96,23.97c19.51,8.79 30.97,28.75 28.78,50.02zM688.38,225.97l9.16,-89.28c0.65,-6.36 -2.42,-11.67 -8.23,-14.3c-19.56,-8.83 -39.67,-16.3 -60.27,-22.3c-6.06,-1.78 -11.98,0.35 -15.58,5.52l-51.32,73.91c-6.76,9.73 -17.83,15.06 -29.64,14.3c-12.85,-0.83 -25.43,-0.91 -38.28,-0.2c-11.95,0.65 -22.83,-4.76 -29.52,-14.65l-50.39,-74.31c-3.55,-5.23 -9.48,-7.32 -15.55,-5.63c-20.96,5.91 -40.73,13.01 -60.65,21.8c-5.81,2.54 -8.96,7.86 -8.4,14.2l8.19,89.63c1.08,11.86 -3.89,22.96 -13.49,30.02c-10.24,7.54 -19.75,15.47 -29.02,24.17c-8.65,8.1 -20.67,11.07 -32.08,7.82l-86.32,-24.54c-6.13,-1.73 -11.97,0.32 -15.55,5.58c-12.29,17.97 -23.01,36.28 -32.65,55.79c-2.79,5.65 -1.76,11.86 2.71,16.29l63.84,63.35c8.46,8.4 11.72,20.06 8.93,31.64c-3,12.27 -5.16,24.43 -6.66,36.98c-1.41,11.86 -8.7,21.7 -19.61,26.59l-81.96,36.73c-5.76,2.58 -8.88,8.06 -8.26,14.31c2.1,21.49 5.71,42.79 10.79,63.76c1.5,6.13 6.26,10.15 12.53,10.68l89.59,7.5c11.79,0.97 22.01,7.97 27.24,18.56c5.56,11.25 11.77,22.16 18.62,32.66c6.5,9.98 7.28,22.11 2.09,32.84l-39.2,80.86c-2.75,5.67 -1.65,11.89 2.85,16.29c15.57,15.25 31.62,28.91 49.17,41.85c5.17,3.81 11.31,3.88 16.57,0.17l73.29,-51.73c9.66,-6.81 21.98,-8.04 32.8,-3.26c11.6,5.12 23.31,9.53 35.44,13.24c11.42,3.46 19.85,12.27 22.76,23.85l21.94,87.13c1.57,6.18 6.2,10.09 12.57,10.57c21.73,1.66 42.82,1.82 64.57,0.48c6.32,-0.39 11.1,-4.36 12.71,-10.47l22.88,-86.69c3.04,-11.55 11.59,-20.28 23.07,-23.6c12.18,-3.51 24.33,-7.88 36.02,-12.84c10.98,-4.7 23,-3.31 32.68,3.66l72.77,52.61c5.12,3.71 11.41,3.76 16.55,0.07c17.43,-12.52 34.04,-26.3 49.56,-41.1c4.57,-4.34 5.69,-10.53 3.01,-16.21l-38.17,-81.09c-5.1,-10.84 -4.2,-22.97 2.49,-32.91c7.2,-10.7 13.67,-21.73 19.51,-33.22c5.4,-10.65 15.57,-17.44 27.47,-18.29l89.62,-6.48c6.27,-0.46 11.04,-4.49 12.59,-10.58c5.35,-21.03 9.11,-41.6 11.49,-63.17c0.71,-6.37 -2.27,-11.67 -8.08,-14.37l-81.48,-37.61c-10.88,-5.01 -17.99,-14.97 -19.26,-26.85c-1.38,-12.85 -3.55,-25.56 -6.46,-38.15c-2.7,-11.55 0.77,-23.32 9.28,-31.6l64.39,-62.49c4.5,-4.36 5.62,-10.64 2.9,-16.27c-9.29,-19.26 -19.96,-37.96 -31.84,-55.72c-3.55,-5.33 -9.3,-7.44 -15.46,-5.76l-86.71,23.52c-11.63,3.16 -23.24,0.21 -31.94,-8.14c-9.23,-8.85 -19.15,-17.27 -29.37,-24.93c-9.55,-7.15 -14.46,-18.31 -13.24,-30.19zM512,333.26c97.51,0 176.55,79.04 176.55,176.55c0,97.51 -79.04,176.55 -176.55,176.55c-97.51,0 -176.55,-79.04 -176.55,-176.55c0,-97.51 79.04,-176.55 176.55,-176.55zM512,368.57c-78.02,0 -141.24,63.22 -141.24,141.24c0,78.02 63.22,141.24 141.24,141.24c78.02,0 141.24,-63.22 141.24,-141.24c0,-78.02 -63.22,-141.24 -141.24,-141.24z" fill="#ffffff"/>
		</mask>
		<mask id="mask-wxw2MGY7">
			<rect fill="url(#color-aLaL9ffb)" x="52.51" y="63.21" width="918.5" height="907.76"/>
		</mask>
	</defs>
	<g fill="none" fill-rule="nonzero" style="mix-blend-mode: normal">
		<g mask="url(#mask-TlQarADB)">
			<g color="#00aeff" class="color-2">
				<rect x="52.51" y="63.21" width="918.5" height="907.76" fill="currentColor"/>
			</g>
			<g color="#a800ff" class="color-3" mask="url(#mask-wxw2MGY7)">
				<rect x="52.51" y="63.21" width="918.5" height="907.76" fill="currentColor"/>
			</g>
		</g>
		<g filter="url(#filter-3aMV4i3n)" mask="url(#mask-rZzWp9l5)">
			<g color="#48f1cf" class="color-1">
				<rect x="52.51" y="63.21" width="918.5" height="907.76" fill="currentColor"/>
			</g>
			<g color="#00aeff" class="color-2" mask="url(#mask-iKcCkmfe)">
				<rect x="52.51" y="63.21" width="918.5" height="907.76" fill="currentColor"/>
			</g>
		</g>
		<g clip-path="url(#clip-Aaock9Qx)">
			<path d="M-40.49,1013.97v-1093.76h1104.5v1093.76zM732.57,140.27c2.19,-21.27 -9.27,-41.23 -28.78,-50.02c-21.2,-9.59 -42.63,-17.44 -64.96,-23.97c-20.59,-5.99 -42.08,1.59 -54.32,19.19l-50.79,73.11c-13.4,-0.81 -27.09,-0.87 -40.49,-0.18l-49.82,-73.46c-12.04,-17.76 -33.5,-25.66 -54.17,-19.83c-22.23,6.25 -44.21,14.13 -65.34,23.45c-19.54,8.62 -31.16,28.37 -29.22,49.63l8.11,88.66c-10.66,7.93 -21.06,16.58 -30.79,25.64l-85.49,-24.3c-20.57,-5.84 -42.12,2.01 -54.18,19.65c-13.08,19.17 -24.83,39.25 -35.12,60.07c-9.52,19.23 -5.78,41.74 9.46,56.85l63.16,62.67c-3.09,12.85 -5.52,26.09 -7.14,39.21l-81,36.3c-19.54,8.76 -31.02,28.44 -28.94,49.77c2.28,23.32 6.09,45.92 11.62,68.7c5.07,20.89 22.42,35.79 43.84,37.59l88.59,7.41c5.91,11.85 12.51,23.39 19.71,34.5l-38.79,80.01c-9.36,19.31 -5.45,41.72 9.87,56.73c16.56,16.21 34.39,31.41 53.03,45.16c17.16,12.64 40.27,12.87 57.68,0.58l72.49,-51.16c12.18,5.33 24.85,10.01 37.56,13.91l21.71,86.19c5.21,20.73 22.83,35.58 44.16,37.2c22.99,1.75 46.24,1.91 69.26,0.48c21.45,-1.32 39.21,-15.89 44.7,-36.67l22.62,-85.75c13.03,-3.8 25.69,-8.28 38.19,-13.56l71.99,52.03c17.34,12.54 40.29,12.53 57.65,0.07c18.94,-13.59 36.42,-28.06 53.28,-44.14c15.57,-14.83 19.77,-37.3 10.61,-56.76l-37.76,-80.19c7.54,-11.3 14.48,-23.1 20.69,-35.19l88.59,-6.4c21.43,-1.55 39.02,-16.23 44.32,-37.06c5.68,-22.26 9.82,-45.16 12.34,-67.99c2.35,-21.24 -8.99,-41.28 -28.39,-50.23l-80.56,-37.2c-1.48,-13.59 -3.76,-27.16 -6.83,-40.47l63.68,-61.79c15.47,-15.02 19.43,-37.43 10.06,-56.85c-10.12,-20.96 -21.38,-40.62 -34.32,-59.99c-11.85,-17.76 -33.33,-25.84 -53.95,-20.23l-85.77,23.34c-9.89,-9.43 -20.2,-18.15 -31.11,-26.36zM701.62,256.16c10.22,7.66 20.14,16.08 29.37,24.93c8.7,8.35 20.31,11.3 31.94,8.14l86.71,-23.52c6.16,-1.68 11.91,0.43 15.46,5.76c11.88,17.76 22.55,36.46 31.84,55.72c2.72,5.63 1.6,11.91 -2.9,16.27l-64.39,62.49c-8.51,8.28 -11.98,20.05 -9.28,31.6c2.91,12.59 5.08,25.3 6.46,38.15c1.27,11.88 8.38,21.84 19.26,26.85l81.48,37.61c5.81,2.7 8.79,8 8.08,14.37c-2.38,21.57 -6.14,42.14 -11.49,63.17c-1.55,6.09 -6.32,10.12 -12.59,10.58l-89.62,6.48c-11.9,0.85 -22.07,7.64 -27.47,18.29c-5.84,11.49 -12.31,22.52 -19.51,33.22c-6.69,9.94 -7.59,22.07 -2.49,32.91l38.17,81.09c2.68,5.68 1.56,11.87 -3.01,16.21c-15.52,14.8 -32.13,28.58 -49.56,41.1c-5.14,3.69 -11.43,3.64 -16.55,-0.07l-72.77,-52.61c-9.68,-6.97 -21.7,-8.36 -32.68,-3.66c-11.69,4.96 -23.84,9.33 -36.02,12.84c-11.48,3.32 -20.03,12.05 -23.07,23.6l-22.88,86.69c-1.61,6.11 -6.39,10.08 -12.71,10.47c-21.75,1.34 -42.84,1.18 -64.57,-0.48c-6.37,-0.48 -11,-4.39 -12.57,-10.57l-21.94,-87.13c-2.91,-11.58 -11.34,-20.39 -22.76,-23.85c-12.13,-3.71 -23.84,-8.12 -35.44,-13.24c-10.82,-4.78 -23.14,-3.55 -32.8,3.26l-73.29,51.73c-5.26,3.71 -11.4,3.64 -16.57,-0.17c-17.55,-12.94 -33.6,-26.6 -49.17,-41.85c-4.5,-4.4 -5.6,-10.62 -2.85,-16.29l39.2,-80.86c5.19,-10.73 4.41,-22.86 -2.09,-32.84c-6.85,-10.5 -13.06,-21.41 -18.62,-32.66c-5.23,-10.59 -15.45,-17.59 -27.24,-18.56l-89.59,-7.5c-6.27,-0.53 -11.03,-4.55 -12.53,-10.68c-5.08,-20.97 -8.69,-42.27 -10.79,-63.76c-0.62,-6.25 2.5,-11.73 8.26,-14.31l81.96,-36.73c10.91,-4.89 18.2,-14.73 19.61,-26.59c1.5,-12.55 3.66,-24.71 6.66,-36.98c2.79,-11.58 -0.47,-23.24 -8.93,-31.64l-63.84,-63.35c-4.47,-4.43 -5.5,-10.64 -2.71,-16.29c9.64,-19.51 20.36,-37.82 32.65,-55.79c3.58,-5.26 9.42,-7.31 15.55,-5.58l86.32,24.54c11.41,3.25 23.43,0.28 32.08,-7.82c9.27,-8.7 18.78,-16.63 29.02,-24.17c9.6,-7.06 14.57,-18.16 13.49,-30.02l-8.19,-89.63c-0.56,-6.34 2.59,-11.66 8.4,-14.2c19.92,-8.79 39.69,-15.89 60.65,-21.8c6.07,-1.69 12,0.4 15.55,5.63l50.39,74.31c6.69,9.89 17.57,15.3 29.52,14.65c12.85,-0.71 25.43,-0.63 38.28,0.2c11.81,0.76 22.88,-4.57 29.64,-14.3l51.32,-73.91c3.6,-5.17 9.52,-7.3 15.58,-5.52c20.6,6 40.71,13.47 60.27,22.3c5.81,2.63 8.88,7.94 8.23,14.3l-9.16,89.28c-1.22,11.88 3.69,23.04 13.24,30.19zM335.45,509.81c0,97.51 79.04,176.55 176.55,176.55c97.51,0 176.55,-79.04 176.55,-176.55c0,-97.51 -79.04,-176.55 -176.55,-176.55c-97.51,0 -176.55,79.04 -176.55,176.55zM653.24,509.81c0,78.02 -63.22,141.24 -141.24,141.24c-78.02,0 -141.24,-63.22 -141.24,-141.24c0,-78.02 63.22,-141.24 141.24,-141.24c78.02,0 141.24,63.22 141.24,141.24z" fill="#000000" fill-opacity="1" filter="url(#filter-TuUoCGuo)"/>
		</g>
	</g>
</svg>