<svg version="1.1" xmlns="http://www.w3.org/2000/svg" xmlns:xlink="http://www.w3.org/1999/xlink" viewBox="0,0,1024,1024">
	<!-- Color names: color-1, color-2, color-3 -->
	<desc>stopwatch_elapsed icon - Licensed under Iconfu Standard License v1.0 (https://www.iconfu.com/iconfu_standard_license) - Incors GmbH</desc>
	<defs>
		<clipPath id="clip-HKbOg3Xd">
			<path d="M582.62,200.95c53.78,10.4 104.71,32.79 148.83,65.24l53.87,-53.87l74.91,74.89l-53.25,53.25c49.28,64.64 75.78,143.21 75.78,224.51c0,204.76 -166,370.75 -370.76,370.75c-204.76,0 -370.76,-165.99 -370.76,-370.75c0,-177.33 126.06,-330.42 300.14,-364.02v-42.05h-70.62v-105.93h282.48v105.93h-70.62zM547.31,231v-107.41h70.62v-35.31h-211.86v35.31h70.62v107.41l-15.04,2.26c-163.96,24.66 -285.1,166.02 -285.1,331.71c0,185.27 150.18,335.44 335.45,335.44c185.27,0 335.45,-150.17 335.45,-335.44c0,-78.74 -27.16,-154.14 -77.58,-214.64l-10.31,-12.37l50.74,-50.75l-24.98,-24.96l-51.01,50.99c-53.51,-43.03 -102.88,-69.58 -171.96,-79.98zM512,282.48c156,0 282.48,126.49 282.48,282.49c0,56.74 -16.93,111.89 -48.85,158.73l-25.4,-25.42c25.58,-39.88 38.94,-85.87 38.94,-133.31c0,-136.51 -110.66,-247.18 -247.17,-247.18zM724.23,752.23l-24.96,24.97l-171.15,-171.15c-5.01,1.98 -10.45,3.05 -16.12,3.05c-24.28,0 -44.14,-19.85 -44.14,-44.13c0,-24.33 19.83,-44.14 44.14,-44.14c24.33,0 44.14,19.83 44.14,44.14c0,5.68 -1.08,11.1 -3.06,16.11z"/>
		</clipPath>
		<radialGradient cx="0" cy="0" r="1448.15" id="color-3LRTsRa4" gradientUnits="userSpaceOnUse">
			<stop offset="0.08" stop-color="#ffffff"/>
			<stop offset="1" stop-color="#000000"/>
		</radialGradient>
		<linearGradient x1="0" y1="1024" x2="1024" y2="0" id="color-alU1R4OS" gradientUnits="userSpaceOnUse">
			<stop offset="0.2" stop-color="#000000"/>
			<stop offset="0.8" stop-color="#ffffff"/>
		</linearGradient>
		<radialGradient cx="0" cy="0" r="1448.15" id="color-MAnpgiXK" gradientUnits="userSpaceOnUse">
			<stop offset="0.08" stop-color="#000000"/>
			<stop offset="1" stop-color="#ffffff"/>
		</radialGradient>
		<filter id="filter-KnCzMWhq" color-interpolation-filters="sRGB">
			<feOffset/>
		</filter>
		<filter id="filter-mdq4mn2x" x="0%" y="0%" width="100%" height="100%" color-interpolation-filters="sRGB">
			<feColorMatrix values="1 0 0 0 0 0 1 0 0 0 0 0 1 0 0 0 0 0 0.05 0" in="SourceGraphic"/>
			<feOffset dy="20"/>
			<feGaussianBlur stdDeviation="11" result="blur0"/>
			<feColorMatrix values="1 0 0 0 0 0 1 0 0 0 0 0 1 0 0 0 0 0 0.07 0" in="SourceGraphic"/>
			<feOffset dy="30"/>
			<feGaussianBlur stdDeviation="20" result="blur1"/>
			<feMerge>
				<feMergeNode in="blur0"/>
				<feMergeNode in="blur1"/>
			</feMerge>
		</filter>
		<mask id="mask-kFhGAcZc">
			<rect fill="url(#color-MAnpgiXK)" x="141.24" y="52.97" width="741.52" height="882.75"/>
		</mask>
		<mask id="mask-P9Vtuali">
			<rect fill="url(#color-alU1R4OS)" x="141.24" y="52.97" width="741.52" height="882.75"/>
		</mask>
		<mask id="mask-snLMizp3">
			<path d="M582.62,200.95c53.78,10.4 104.71,32.79 148.83,65.24l53.87,-53.87l74.91,74.89l-53.25,53.25c49.28,64.64 75.78,143.21 75.78,224.51c0,204.76 -166,370.75 -370.76,370.75c-204.76,0 -370.76,-165.99 -370.76,-370.75c0,-177.33 126.06,-330.42 300.14,-364.02v-42.05h-70.62v-105.93h282.48v105.93h-70.62zM547.31,231v-107.41h70.62v-35.31h-211.86v35.31h70.62v107.41l-15.04,2.26c-163.96,24.66 -285.1,166.02 -285.1,331.71c0,185.27 150.18,335.44 335.45,335.44c185.27,0 335.45,-150.17 335.45,-335.44c0,-78.74 -27.16,-154.14 -77.58,-214.64l-10.31,-12.37l50.74,-50.75l-24.98,-24.96l-51.01,50.99c-53.51,-43.03 -102.88,-69.58 -171.96,-79.98zM512,282.48c156,0 282.48,126.49 282.48,282.49c0,56.74 -16.93,111.89 -48.85,158.73l-25.4,-25.42c25.58,-39.88 38.94,-85.87 38.94,-133.31c0,-136.51 -110.66,-247.18 -247.17,-247.18zM724.23,752.23l-24.96,24.97l-171.15,-171.15c-5.01,1.98 -10.45,3.05 -16.12,3.05c-24.28,0 -44.14,-19.85 -44.14,-44.13c0,-24.33 19.83,-44.14 44.14,-44.14c24.33,0 44.14,19.83 44.14,44.14c0,5.68 -1.08,11.1 -3.06,16.11z" fill="url(#color-3LRTsRa4)"/>
		</mask>
		<mask id="mask-SQGS7HVV">
			<path d="M582.62,200.95c53.78,10.4 104.71,32.79 148.83,65.24l53.87,-53.87l74.91,74.89l-53.25,53.25c49.28,64.64 75.78,143.21 75.78,224.51c0,204.76 -166,370.75 -370.76,370.75c-204.76,0 -370.76,-165.99 -370.76,-370.75c0,-177.33 126.06,-330.42 300.14,-364.02v-42.05h-70.62v-105.93h282.48v105.93h-70.62zM547.31,231v-107.41h70.62v-35.31h-211.86v35.31h70.62v107.41l-15.04,2.26c-163.96,24.66 -285.1,166.02 -285.1,331.71c0,185.27 150.18,335.44 335.45,335.44c185.27,0 335.45,-150.17 335.45,-335.44c0,-78.74 -27.16,-154.14 -77.58,-214.64l-10.31,-12.37l50.74,-50.75l-24.98,-24.96l-51.01,50.99c-53.51,-43.03 -102.88,-69.58 -171.96,-79.98zM512,282.48c156,0 282.48,126.49 282.48,282.49c0,56.74 -16.93,111.89 -48.85,158.73l-25.4,-25.42c25.58,-39.88 38.94,-85.87 38.94,-133.31c0,-136.51 -110.66,-247.18 -247.17,-247.18zM724.23,752.23l-24.96,24.97l-171.15,-171.15c-5.01,1.98 -10.45,3.05 -16.12,3.05c-24.28,0 -44.14,-19.85 -44.14,-44.13c0,-24.33 19.83,-44.14 44.14,-44.14c24.33,0 44.14,19.83 44.14,44.14c0,5.68 -1.08,11.1 -3.06,16.11z" fill="#ffffff"/>
		</mask>
	</defs>
	<g fill="none" fill-rule="nonzero" style="mix-blend-mode: normal">
		<g mask="url(#mask-SQGS7HVV)">
			<g color="#00aeff" class="color-2">
				<rect x="141.24" y="52.97" width="741.52" height="882.75" fill="currentColor"/>
			</g>
			<g color="#a800ff" class="color-3" mask="url(#mask-P9Vtuali)">
				<rect x="141.24" y="52.97" width="741.52" height="882.75" fill="currentColor"/>
			</g>
		</g>
		<g filter="url(#filter-KnCzMWhq)" mask="url(#mask-snLMizp3)">
			<g color="#48f1cf" class="color-1">
				<rect x="141.24" y="52.97" width="741.52" height="882.75" fill="currentColor"/>
			</g>
			<g color="#00aeff" class="color-2" mask="url(#mask-kFhGAcZc)">
				<rect x="141.24" y="52.97" width="741.52" height="882.75" fill="currentColor"/>
			</g>
		</g>
		<g clip-path="url(#clip-HKbOg3Xd)">
			<path d="M48.24,978.72v-1068.75h927.52v1068.75zM582.62,158.9h70.62v-105.93h-282.48v105.93h70.62v42.05c-174.08,33.6 -300.14,186.69 -300.14,364.02c0,204.76 166,370.75 370.76,370.75c204.76,0 370.76,-165.99 370.76,-370.75c0,-81.3 -26.5,-159.87 -75.78,-224.51l53.25,-53.25l-74.91,-74.89l-53.87,53.87c-44.12,-32.45 -95.05,-54.84 -148.83,-65.24zM562.35,233.26c69.08,10.4 118.45,36.95 171.96,79.98l51.01,-50.99l24.98,24.96l-50.74,50.75l10.31,12.37c50.42,60.5 77.58,135.9 77.58,214.64c0,185.27 -150.18,335.44 -335.45,335.44c-185.27,0 -335.45,-150.17 -335.45,-335.44c0,-165.69 121.14,-307.05 285.1,-331.71l15.04,-2.26v-107.41h-70.62v-35.31h211.86v35.31h-70.62v107.41zM512,317.79c136.51,0 247.17,110.67 247.17,247.18c0,47.44 -13.36,93.43 -38.94,133.31l25.4,25.42c31.92,-46.84 48.85,-101.99 48.85,-158.73c0,-156 -126.48,-282.49 -282.48,-282.49zM553.08,581.08c1.98,-5.01 3.06,-10.43 3.06,-16.11c0,-24.31 -19.81,-44.14 -44.14,-44.14c-24.31,0 -44.14,19.81 -44.14,44.14c0,24.28 19.86,44.13 44.14,44.13c5.67,0 11.11,-1.07 16.12,-3.05l171.15,171.15l24.96,-24.97z" fill="#000000" fill-opacity="1" filter="url(#filter-mdq4mn2x)"/>
		</g>
	</g>
</svg>