<svg version="1.1" xmlns="http://www.w3.org/2000/svg" xmlns:xlink="http://www.w3.org/1999/xlink" viewBox="0,0,1024,1024">
	<!-- Color names: color-1, color-2 -->
	<desc>gearwheel icon - Licensed under Iconfu Standard License v1.0 (https://www.iconfu.com/iconfu_standard_license) - Incors GmbH</desc>
	<defs>
		<clipPath id="clip-SU8Eb3iv">
			<path d="M10.8,34.48h1002.17v989.52h-1002.17z"/>
		</clipPath>
		<linearGradient x1="51.2" y1="481.28" x2="972.8" y2="481.28" id="color-iOAcrsz7" gradientUnits="userSpaceOnUse">
			<stop offset="0.5" stop-color="#000000"/>
			<stop offset="0.5" stop-color="#ffffff"/>
		</linearGradient>
		<filter id="filter-hoHxrSkT" color-interpolation-filters="sRGB">
			<feColorMatrix values="0.17 0.72 0.11 0 -0.1 0.64 0.28 0.08 0 -0.1 0.20 0.23 0.57 0 -0.1 0 0 0 1 0"/>
			<feColorMatrix values="-0.65039 1.77384 -0.12345 0 0 1.60663 -0.345 -0.26163 0 0 -0.42008 -0.48319 1.90327 0 0 0 0 0 1 0"/>
		</filter>
		<filter id="filter-JqVv2L6r" x="-12%" y="-6%" width="137%" height="134%" color-interpolation-filters="sRGB">
			<feColorMatrix values="1 0 0 0 0 0 1 0 0 0 0 0 1 0 0 0 0 0 0.13 0" in="SourceGraphic"/>
			<feOffset dy="20"/>
			<feGaussianBlur stdDeviation="11" result="blur0"/>
			<feColorMatrix values="1 0 0 0 0 0 1 0 0 0 0 0 1 0 0 0 0 0 0.2 0" in="SourceGraphic"/>
			<feOffset dy="30"/>
			<feGaussianBlur stdDeviation="20" result="blur1"/>
			<feMerge>
				<feMergeNode in="blur0"/>
				<feMergeNode in="blur1"/>
			</feMerge>
		</filter>
		<mask id="mask-f4kebm3X">
			<rect fill="url(#color-iOAcrsz7)" x="103.8" y="77.48" width="816.17" height="807.6"/>
		</mask>
		<mask id="mask-MI1G4ON8">
			<rect fill="url(#color-iOAcrsz7)" x="159.1" y="132.78" width="705.58" height="697"/>
		</mask>
		<mask id="mask-pabCigqc">
			<path d="M763.59,213.49c33.63,-9.14 68.86,4.05 88.22,33.01c11.51,17.23 21.23,34.24 30.24,52.89c15.19,31.47 8.6,68.63 -16.47,92.95l-28.56,27.71l36.09,16.66c31.66,14.62 50.19,47.4 46.35,82.08c-2.28,20.6 -5.78,39.86 -10.89,59.95c-8.62,33.83 -37.52,58.01 -72.33,60.52l-39.67,2.87l16.85,35.77c14.86,31.57 7.96,68.62 -17.31,92.72c-15.02,14.3 -30.14,26.84 -46.99,38.94c-28.36,20.36 -66,20.26 -94.25,-0.13l-32.05,-23.17l-10.03,38.02c-8.92,33.81 -38.11,57.74 -72.98,59.91c-20.74,1.29 -40.38,1.14 -61.08,-0.43c-34.77,-2.65 -63.55,-26.9 -72.07,-60.71l-9.59,-38.05l-31.91,22.52c-28.53,20.14 -66.24,19.76 -94.35,-0.96c-16.78,-12.38 -31.8,-25.17 -46.7,-39.75c-24.92,-24.39 -31.34,-61.44 -16.17,-92.78l17.02,-35.11l-38.9,-3.25c-34.79,-2.91 -63.4,-27.42 -71.64,-61.32c-4.93,-20.33 -8.22,-39.8 -10.25,-60.58c-3.4,-34.7 15.5,-67.21 47.29,-81.45l35.55,-15.93l-27.76,-27.54c-24.77,-24.58 -30.93,-61.73 -15.48,-92.98c9.25,-18.72 19.21,-35.72 30.96,-52.93c19.66,-28.77 55.07,-41.64 88.65,-32.09l37.59,10.68l-3.58,-39.19c-3.16,-34.7 15.93,-67.08 47.8,-81.12c19.08,-8.41 37.59,-15.05 57.64,-20.69c33.61,-9.46 68.99,3.47 88.59,32.35l22.13,32.63l22.6,-32.54c19.88,-28.63 55.35,-41.17 88.81,-31.41c19.96,5.82 38.35,12.62 57.29,21.16c31.82,14.37 50.61,47.03 47.05,81.74l-4.05,39.46z" fill="#ffffff"/>
		</mask>
		<mask id="mask-raS6gKWQ">
			<path d="M671.98,261.59c8.68,6.5 16.96,13.53 24.79,21.03c3.3,3.16 7.67,4.28 12.09,3.07l69.24,-18.84c10.69,-2.91 21.57,1.16 27.73,10.38c10.08,15.1 18.52,29.87 26.42,46.21c4.83,10.01 2.8,21.47 -5.18,29.21l-51.44,49.92c-3.28,3.18 -4.55,7.51 -3.52,11.97c2.47,10.6 4.28,21.35 5.44,32.18c0.49,4.55 3.13,8.24 7.29,10.15l65.08,30.05c10.07,4.65 15.79,14.77 14.57,25.8c-2,18.05 -5.04,34.78 -9.52,52.39c-2.74,10.76 -11.66,18.22 -22.73,19.02l-71.58,5.18c-4.55,0.33 -8.31,2.83 -10.38,6.9c-4.91,9.67 -10.41,19.03 -16.46,28.03c-2.56,3.81 -2.91,8.32 -0.95,12.47l30.51,64.77c4.73,10.04 2.6,21.48 -5.44,29.15c-13.17,12.55 -26.3,23.43 -41.08,34.04c-9.01,6.47 -20.63,6.45 -29.63,-0.05l-58.14,-42.03c-3.71,-2.68 -8.19,-3.18 -12.39,-1.39c-9.9,4.21 -20.05,7.82 -30.37,10.81c-4.4,1.28 -7.57,4.51 -8.74,8.94l-18.27,69.24c-2.84,10.75 -11.84,18.14 -22.94,18.83c-18.18,1.13 -35.28,1.01 -53.45,-0.38c-11.06,-0.84 -19.94,-8.32 -22.65,-19.08l-17.53,-69.6c-1.12,-4.44 -4.22,-7.7 -8.59,-9.03c-10.18,-3.1 -20.17,-6.82 -29.91,-11.13c-4.19,-1.85 -8.69,-1.4 -12.43,1.24l-58.54,41.32c-9.08,6.41 -20.72,6.29 -29.66,-0.3c-14.72,-10.86 -27.76,-21.96 -40.83,-34.75c-7.92,-7.75 -9.91,-19.19 -5.08,-29.17l31.32,-64.6c1.99,-4.11 1.7,-8.62 -0.79,-12.44c-5.77,-8.85 -11.02,-18.05 -15.7,-27.52c-2.03,-4.1 -5.75,-6.64 -10.3,-7.02l-71.56,-5.98c-11.06,-0.93 -19.9,-8.49 -22.52,-19.28c-4.32,-17.8 -7.17,-34.69 -8.95,-52.91c-1.09,-11.03 4.74,-21.07 14.86,-25.6l65.47,-29.34c4.17,-1.87 6.85,-5.51 7.4,-10.05c1.26,-10.51 3.14,-20.92 5.65,-31.2c1.08,-4.44 -0.15,-8.78 -3.39,-11.99l-50.99,-50.6c-7.87,-7.81 -9.78,-19.28 -4.86,-29.22c8.1,-16.39 16.75,-31.16 27.06,-46.26c6.26,-9.16 17.19,-13.12 27.85,-10.08l69,19.61c4.4,1.25 8.8,0.18 12.13,-2.95c7.76,-7.28 15.94,-14.09 24.51,-20.4c3.67,-2.7 5.52,-6.81 5.1,-11.35l-6.54,-71.62c-1.01,-11.03 4.89,-21.03 15.02,-25.49c16.7,-7.36 32.77,-13.12 50.32,-18.07c10.69,-3.01 21.61,0.98 27.85,10.17l40.25,59.35c2.57,3.79 6.61,5.8 11.18,5.54c10.74,-0.59 21.51,-0.54 32.24,0.15c4.55,0.29 8.62,-1.66 11.22,-5.42l41,-59.04c6.32,-9.1 17.27,-12.97 27.91,-9.87c17.47,5.09 33.44,10.99 50.02,18.48c10.12,4.57 15.92,14.65 14.79,25.69l-7.32,71.33c-0.47,4.55 1.34,8.69 5.01,11.44zM512,323.39c-83.98,0 -152.06,68.08 -152.06,152.06c0,83.98 68.08,152.06 152.06,152.06c83.98,0 152.06,-68.08 152.06,-152.06c0,-83.98 -68.08,-152.06 -152.06,-152.06z" fill="#ffffff"/>
		</mask>
	</defs>
	<g fill="none" fill-rule="nonzero" style="mix-blend-mode: normal">
		<g clip-path="url(#clip-SU8Eb3iv)">
			<path d="M763.59,213.49c33.63,-9.14 68.86,4.05 88.22,33.01c11.51,17.23 21.23,34.24 30.24,52.89c15.19,31.47 8.6,68.63 -16.47,92.95l-28.56,27.71l36.09,16.66c31.66,14.62 50.19,47.4 46.35,82.08c-2.28,20.6 -5.78,39.86 -10.89,59.95c-8.62,33.83 -37.52,58.01 -72.33,60.52l-39.67,2.87l16.85,35.77c14.86,31.57 7.96,68.62 -17.31,92.72c-15.02,14.3 -30.14,26.84 -46.99,38.94c-28.36,20.36 -66,20.26 -94.25,-0.13l-32.05,-23.17l-10.03,38.02c-8.92,33.81 -38.11,57.74 -72.98,59.91c-20.74,1.29 -40.38,1.14 -61.08,-0.43c-34.77,-2.65 -63.55,-26.9 -72.07,-60.71l-9.59,-38.05l-31.91,22.52c-28.53,20.14 -66.24,19.76 -94.35,-0.96c-16.78,-12.38 -31.8,-25.17 -46.7,-39.75c-24.92,-24.39 -31.34,-61.44 -16.17,-92.78l17.02,-35.11l-38.9,-3.25c-34.79,-2.91 -63.4,-27.42 -71.64,-61.32c-4.93,-20.33 -8.22,-39.8 -10.25,-60.58c-3.4,-34.7 15.5,-67.21 47.29,-81.45l35.55,-15.93l-27.76,-27.54c-24.77,-24.58 -30.93,-61.73 -15.48,-92.98c9.25,-18.72 19.21,-35.72 30.96,-52.93c19.66,-28.77 55.07,-41.64 88.65,-32.09l37.59,10.68l-3.58,-39.19c-3.16,-34.7 15.93,-67.08 47.8,-81.12c19.08,-8.41 37.59,-15.05 57.64,-20.69c33.61,-9.46 68.99,3.47 88.59,32.35l22.13,32.63l22.6,-32.54c19.88,-28.63 55.35,-41.17 88.81,-31.41c19.96,5.82 38.35,12.62 57.29,21.16c31.82,14.37 50.61,47.03 47.05,81.74l-4.05,39.46z" fill="#000000" fill-opacity="1" filter="url(#filter-JqVv2L6r)"/>
		</g>
		<g mask="url(#mask-pabCigqc)">
			<g color="#ffffff" class="color-2">
				<rect x="103.8" y="77.48" width="816.17" height="807.6" fill="currentColor"/>
			</g>
			<g color="#ffffff" class="color-2" mask="url(#mask-f4kebm3X)">
				<defs>
					<pattern id="pattern-SzVcBsLy" x="4" y="4" width="64" height="64" patternUnits="userSpaceOnUse">
						<rect filter="url(#filter-hoHxrSkT)" fill="currentColor" x="0" y="0" width="72" height="72"/>
					</pattern>
				</defs>
				<rect x="103.8" y="77.48" width="816.17" height="807.6" fill="url(#pattern-SzVcBsLy)"/>
			</g>
		</g>
		<g mask="url(#mask-raS6gKWQ)">
			<g color="currentColor" class="color-1">
				<rect x="159.1" y="132.78" width="705.58" height="697" fill="currentColor"/>
			</g>
			<g color="currentColor" class="color-1" mask="url(#mask-MI1G4ON8)">
				<defs>
					<pattern id="pattern-WCoaUtiR" x="4" y="4" width="64" height="64" patternUnits="userSpaceOnUse">
						<rect filter="url(#filter-hoHxrSkT)" fill="currentColor" x="0" y="0" width="72" height="72"/>
					</pattern>
				</defs>
				<rect x="159.1" y="132.78" width="705.58" height="697" fill="url(#pattern-WCoaUtiR)"/>
			</g>
		</g>
	</g>
</svg>