<svg version="1.1" xmlns="http://www.w3.org/2000/svg" xmlns:xlink="http://www.w3.org/1999/xlink" viewBox="0,0,1024,1024">
	<!-- Color names: color-1, color-2 -->
	<desc>leaf icon - Licensed under Iconfu Standard License v1.0 (https://www.iconfu.com/iconfu_standard_license) - Incors GmbH</desc>
	<defs>
		<clipPath id="clip-MYwu6da0">
			<path d="M8.89,28.17h957.97v995.83h-957.97z"/>
		</clipPath>
		<linearGradient x1="51.2" y1="481.28" x2="972.8" y2="481.28" id="color-rFGYiI84" gradientUnits="userSpaceOnUse">
			<stop offset="0.5" stop-color="#000000"/>
			<stop offset="0.5" stop-color="#ffffff"/>
		</linearGradient>
		<filter id="filter-bT7ebMej" x="-13%" y="-6%" width="139%" height="133%" color-interpolation-filters="sRGB">
			<feColorMatrix values="1 0 0 0 0 0 1 0 0 0 0 0 1 0 0 0 0 0 0.13 0" in="SourceGraphic"/>
			<feOffset dy="20"/>
			<feGaussianBlur stdDeviation="11" result="blur0"/>
			<feColorMatrix values="1 0 0 0 0 0 1 0 0 0 0 0 1 0 0 0 0 0 0.2 0" in="SourceGraphic"/>
			<feOffset dy="30"/>
			<feGaussianBlur stdDeviation="20" result="blur1"/>
			<feMerge>
				<feMergeNode in="blur0"/>
				<feMergeNode in="blur1"/>
			</feMerge>
		</filter>
		<filter id="filter-VomDGjLB" color-interpolation-filters="sRGB">
			<feColorMatrix values="0.17 0.72 0.11 0 -0.1 0.64 0.28 0.08 0 -0.1 0.20 0.23 0.57 0 -0.1 0 0 0 1 0"/>
			<feColorMatrix values="-0.65039 1.77384 -0.12345 0 0 1.60663 -0.345 -0.26163 0 0 -0.42008 -0.48319 1.90327 0 0 0 0 0 1 0"/>
		</filter>
		<mask id="mask-1S6UpIsH">
			<path d="M183.01,633.38c-76.21,-152.54 8.64,-315.41 125.38,-378.2c76.26,-41.02 150.4,-56.15 212.45,-69.03c90.36,-18.75 149.44,-32.64 193.76,-92.57c11.14,-15.06 29.14,-23.45 47.83,-22.31c18.69,1.14 35.54,11.67 44.76,27.97c135.43,239.42 51.13,522.7 -132.51,631.48c-92.56,54.84 -235.94,82.81 -353.35,35.49c-19.13,25.29 -36.7,57.58 -54.79,94.32c-11.15,22.65 -36.22,34.86 -60.93,29.7c-31.27,-6.54 -97.97,-39.86 -103.5,-99.59c-1.02,-10.98 1.27,-22 6.57,-31.67c18.58,-33.9 52.79,-80.29 82.18,-113.87c-3.07,-3.51 -5.72,-7.44 -7.86,-11.71z" fill="#ffffff"/>
		</mask>
		<mask id="mask-5ROzgnBY">
			<rect fill="url(#color-rFGYiI84)" x="101.89" y="71.17" width="771.97" height="820.23"/>
		</mask>
		<mask id="mask-rdy7Y8mu">
			<rect fill="url(#color-rFGYiI84)" x="157.18" y="126.46" width="661.46" height="709.63"/>
		</mask>
		<mask id="mask-zvKVqNbZ">
			<path d="M714.75,278.53c-106.88,203.84 -309.18,160.5 -482.27,330.14c-60.15,-120.4 6.03,-253.11 102.11,-304.79c159.13,-85.6 327.59,-46.43 424.47,-177.41c122,215.68 42.8,464.65 -112.56,556.68c-92.32,54.7 -237.64,75.75 -338.18,15c-37.56,34.56 -65.92,86.24 -91.38,137.95c-24.54,-5.13 -57.74,-28.73 -59.76,-50.56c25,-45.62 81.71,-115.76 104.07,-133.3c160.02,-162.68 357.45,-143.39 453.5,-373.71z" fill="#ffffff"/>
		</mask>
	</defs>
	<g fill="none" fill-rule="nonzero" style="mix-blend-mode: normal">
		<g clip-path="url(#clip-MYwu6da0)">
			<path d="M183.01,633.38c-76.21,-152.54 8.64,-315.41 125.38,-378.2c76.26,-41.02 150.4,-56.15 212.45,-69.03c90.36,-18.75 149.44,-32.64 193.76,-92.57c11.14,-15.06 29.14,-23.45 47.83,-22.31c18.69,1.14 35.54,11.67 44.76,27.97c135.43,239.42 51.13,522.7 -132.51,631.48c-92.56,54.84 -235.94,82.81 -353.35,35.49c-19.13,25.29 -36.7,57.58 -54.79,94.32c-11.15,22.65 -36.22,34.86 -60.93,29.7c-31.27,-6.54 -97.97,-39.86 -103.5,-99.59c-1.02,-10.98 1.27,-22 6.57,-31.67c18.58,-33.9 52.79,-80.29 82.18,-113.87c-3.07,-3.51 -5.72,-7.44 -7.86,-11.71z" fill="#000000" fill-opacity="1" filter="url(#filter-bT7ebMej)"/>
		</g>
		<g mask="url(#mask-1S6UpIsH)">
			<g color="#ffffff" class="color-2">
				<rect x="101.89" y="71.17" width="771.97" height="820.23" fill="currentColor"/>
			</g>
			<g color="#ffffff" class="color-2" mask="url(#mask-5ROzgnBY)">
				<defs>
					<pattern id="pattern-EOrUb7U2" x="4" y="4" width="64" height="64" patternUnits="userSpaceOnUse">
						<rect filter="url(#filter-VomDGjLB)" fill="currentColor" x="0" y="0" width="72" height="72"/>
					</pattern>
				</defs>
				<rect x="101.89" y="71.17" width="771.97" height="820.23" fill="url(#pattern-EOrUb7U2)"/>
			</g>
		</g>
		<g mask="url(#mask-zvKVqNbZ)">
			<g color="currentColor" class="color-1">
				<rect x="157.18" y="126.46" width="661.46" height="709.63" fill="currentColor"/>
			</g>
			<g color="currentColor" class="color-1" mask="url(#mask-rdy7Y8mu)">
				<defs>
					<pattern id="pattern-L5fg89FV" x="4" y="4" width="64" height="64" patternUnits="userSpaceOnUse">
						<rect filter="url(#filter-VomDGjLB)" fill="currentColor" x="0" y="0" width="72" height="72"/>
					</pattern>
				</defs>
				<rect x="157.18" y="126.46" width="661.46" height="709.63" fill="url(#pattern-L5fg89FV)"/>
			</g>
		</g>
	</g>
</svg>