<svg version="1.1" xmlns="http://www.w3.org/2000/svg" xmlns:xlink="http://www.w3.org/1999/xlink" width="64" height="64" viewBox="0,0,64,64" role="img" aria-labelledby="title  desc">
	<desc>businesspeople icon - Licensed under Iconfu Standard License v1.0 (https://www.iconfu.com/iconfu_standard_license) - Incors GmbH</desc>
	<g fill="none" fill-rule="nonzero" style="mix-blend-mode: normal">
		
		<g color="#93a0a8" class="color-2" style="fill:var(--color-2)">
			<path d="M60,46.5c0,3.94 -9.52,5.5 -15.86,5.5c-0.69,0 -1.42,-0.02 -2.17,-0.06c-0.14,-3.47 -0.8,-6.87 -3.02,-9.7c-0.85,-1.08 -1.89,-2.04 -3,-2.93h2.88c1.32,0 2.45,0.76 2.95,1.99l2.38,5.94l2.37,-5.94c0.49,-1.23 1.62,-1.99 2.95,-1.99h4.2l-2.61,-3.48c2.96,2.19 8.96,3.09 8.96,10.67zM33.86,37.74c1.24,-0.67 2.45,-1.23 3.37,-1.91l-2.13,2.83c-0.41,-0.31 -0.83,-0.62 -1.25,-0.92z" fill="currentColor"/>
		</g>
		<g color="#b4c2c8" class="color-4" style="fill:var(--color-4)">
			<path d="M49.17,34.96c-1.16,2.64 -2.98,4.35 -5.03,4.35c-2.06,0 -3.88,-1.71 -5.04,-4.37c1.5,1.02 3.22,1.61 5.04,1.61c1.8,0 3.54,-0.58 5.03,-1.59z" fill="currentColor"/>
		</g>
		<g color="#b4c2c8" class="color-4" style="fill:var(--color-4)">
			<path d="M37.29,30.19c0.72,-1.83 1.11,-3.82 1.11,-5.9c0,-1.51 -0.21,-2.98 -0.6,-4.36c0.87,-0.59 1.67,-1.35 2.34,-2.19c1.91,2.45 4.66,4.54 7.43,5.51c1.67,0.59 3.76,1.07 5.71,0.98c-1.14,5.96 -4.81,10.32 -9.15,10.32c-2.69,0 -5.12,-1.67 -6.85,-4.36z" fill="currentColor"/>
		</g>
		<g color="#ffa726" class="color-3" style="fill:var(--color-3)">
			<path d="M32.27,11.59c0.96,-1.15 2.25,-2.06 3.94,-2.59c3.17,-3 4.76,-3 7.93,-3c7.88,0 14.28,6.04 14.28,13.48c0,4.01 -1.86,7.62 -4.81,10.09c0.78,-1.61 1.33,-3.33 1.64,-4.97l0.48,-2.48l-2.53,0.11c-1.63,0.07 -3.43,-0.34 -4.96,-0.87c-2.48,-0.87 -4.9,-2.78 -6.52,-4.85l-1.55,-1.99l-1.58,1.97c-0.42,0.52 -0.92,1.04 -1.48,1.47c-1.07,-2.51 -2.74,-4.69 -4.85,-6.36z" fill="currentColor"/>
		</g>
		<g color="#29b5f7" class="color-1" style="fill:var(--color-1)">
			<path d="M40,53.69c0,3.94 -8.21,5.8 -15.08,6.22l2.08,-2.08c0.48,-0.48 0.67,-1.11 0.55,-1.77l-0.07,-0.4c0.1,-0.01 0.21,-0.02 0.31,-0.04c1.58,-0.2 6.82,-1.11 8.21,-2.37c-0.06,-6.29 -1.46,-7.6 -5.49,-10.54c-1.33,0.61 -2.72,1.07 -4.15,1.38c0.8,-0.99 1.22,-2.18 1.22,-3.49v-0.44c0,-0.19 -0.02,-0.38 -0.07,-0.55c1.18,-0.42 2.29,-0.96 3.32,-1.62c5.97,4.4 9.17,5.96 9.17,15.68zM19.08,59.91c-6.87,-0.41 -15.08,-2.27 -15.08,-6.21c0,-9.72 3.21,-11.29 9.17,-15.69c1.03,0.66 2.15,1.2 3.32,1.62c-0.05,0.17 -0.07,0.36 -0.07,0.55v0.44c0,1.31 0.42,2.5 1.22,3.49c-1.43,-0.31 -2.82,-0.77 -4.15,-1.38c-4.02,2.93 -5.43,4.25 -5.49,10.54c1.4,1.26 6.63,2.16 8.22,2.37c0.1,0.01 0.2,0.03 0.31,0.04l-0.07,0.4c-0.12,0.67 0.07,1.29 0.55,1.77z" fill="currentColor"/>
		</g>
		<g color="#93a0a8" class="color-2" style="fill:var(--color-2)">
			<path d="M18.42,56.42l2.2,-12.12l-1.15,-1.15c-0.7,-0.7 -1.05,-1.55 -1.05,-2.53v-0.44c1.15,0.25 2.35,0.39 3.58,0.39c1.23,0 2.43,-0.14 3.58,-0.39v0.44c0,0.99 -0.35,1.83 -1.05,2.53l-1.15,1.15l2.2,12.12l-3.58,3.58z" fill="currentColor"/>
		</g>
		<g color="#b4c2c8" class="color-4" style="fill:var(--color-4)">
			<path d="M22,10c7.95,0 14.4,6.4 14.4,14.29c0,7.89 -6.45,14.29 -14.4,14.29c-7.95,0 -14.4,-6.4 -14.4,-14.29c0,-7.89 6.45,-14.29 14.4,-14.29z" fill="currentColor"/>
		</g>
	</g>
</svg>