<svg version="1.1" xmlns="http://www.w3.org/2000/svg" xmlns:xlink="http://www.w3.org/1999/xlink" viewBox="0,0,1024,1024">
	<!-- Color names: color-1, color-2 -->
	<desc>target icon - Licensed under Iconfu Standard License v1.0 (https://www.iconfu.com/iconfu_standard_license) - Incors GmbH</desc>
	<g fill="none" fill-rule="nonzero" style="mix-blend-mode: normal">
		<path d="M512,191c177.28,0 321,143.72 321,321c0,177.28 -143.72,321 -321,321c-177.28,0 -321,-143.72 -321,-321c0,-177.28 143.72,-321 321,-321zM512,257c-140.83,0 -255,114.17 -255,255c0,140.83 114.17,255 255,255c140.83,0 255,-114.17 255,-255c0,-140.83 -114.17,-255 -255,-255zM512,351c88.92,0 161,72.08 161,161c0,88.92 -72.08,161 -161,161c-88.92,0 -161,-72.08 -161,-161c0,-88.92 72.08,-161 161,-161zM512,417c-52.47,0 -95,42.53 -95,95c0,52.47 42.53,95 95,95c52.47,0 95,-42.53 95,-95c0,-52.47 -42.53,-95 -95,-95z" visibility="hidden"/>
		<g color="#1b8f00" class="color-1">
			<path d="M512,96c229.75,0 416,186.25 416,416c0,229.75 -186.25,416 -416,416c-229.75,0 -416,-186.25 -416,-416c0,-229.75 186.25,-416 416,-416zM512,192c-176.73,0 -320,143.27 -320,320c0,176.73 143.27,320 320,320c176.73,0 320,-143.27 320,-320c0,-176.73 -143.27,-320 -320,-320z" fill="currentColor"/>
		</g>
		<g color="#1b8f00" class="color-1">
			<path d="M512,256c141.39,0 256,114.61 256,256c0,141.38 -114.61,256 -256,256c-141.38,0 -256,-114.62 -256,-256c0,-141.39 114.62,-256 256,-256zM512,352c-88.37,0 -160,71.63 -160,160c0,88.37 71.63,160 160,160c88.37,0 160,-71.63 160,-160c0,-88.37 -71.63,-160 -160,-160z" fill="currentColor"/>
		</g>
		<g color="#90d621" class="color-2">
			<path d="M512,416c53.02,0 96,42.98 96,96c0,53.02 -42.98,96 -96,96c-53.02,0 -96,-42.98 -96,-96c0,-53.02 42.98,-96 96,-96z" fill="currentColor"/>
		</g>
	</g>
</svg>