<svg version="1.1" xmlns="http://www.w3.org/2000/svg" xmlns:xlink="http://www.w3.org/1999/xlink" viewBox="0,0,1024,1024">
	<!-- Color names: color-1, color-2 -->
	<desc>user_telephone icon - Licensed under Iconfu Standard License v1.0 (https://www.iconfu.com/iconfu_standard_license) - Incors GmbH</desc>
	<g fill="none" fill-rule="nonzero" style="mix-blend-mode: normal">
		<g color="#90d621" class="color-2">
			<path d="M344.41,782.06l17.04,-15.95c20.26,-18.97 51.72,-22.28 70.04,-7.36l99.75,81.24c18.31,14.91 16.72,42.55 -3.54,61.52l-18.4,17.23c-50.79,47.55 -127.78,54.43 -175.1,18.4c-131.78,-100.32 -226.03,-240.2 -266.99,-396.25c-14.7,-56.03 23.81,-120.01 90.23,-144.37l24.06,-8.82c26.5,-9.72 53.51,0.37 60.13,22.46l36.06,120.32c6.62,22.09 -9.6,48.03 -36.1,57.75l-22.27,8.17c-12.11,4.44 -20.03,15.41 -18.81,26.09c7.76,68.59 49.05,129.86 111.21,165.07c9.68,5.48 23.43,3.17 32.69,-5.5z" fill="currentColor"/>
		</g>
		<g color="#1b8f00" class="color-1">
			<path d="M896,795.63c0,71.96 -172.8,100.37 -288,100.37c-12.05,0 -24.74,-0.32 -37.8,-0.96c11.18,-27.34 6.77,-59.08 -18.75,-79.86l-99.76,-81.25c-32.92,-26.81 -82.37,-19.02 -112.11,8.82l-15.81,14.8c-0.83,-0.49 -1.66,-0.99 -2.48,-1.5c8.53,-122.28 59.15,-157.84 146.3,-221.98c40.32,26.5 88.56,41.93 140.41,41.93c51.85,0 100.09,-15.43 140.41,-41.93c96.06,70.68 147.55,106.4 147.59,261.56z" fill="currentColor"/>
		</g>
		<g color="#1b8f00" class="color-1">
			<path d="M608,96c123.71,0 224,100.29 224,224c0,123.71 -100.29,224 -224,224c-123.71,0 -224,-100.29 -224,-224c0,-123.71 100.29,-224 224,-224z" fill="currentColor"/>
		</g>
	</g>
</svg>