<svg version="1.1" xmlns="http://www.w3.org/2000/svg" xmlns:xlink="http://www.w3.org/1999/xlink" viewBox="0,0,1024,1024">
	<!-- Color names: color-1, color-2 -->
	<desc>wax_seal icon - Licensed under Iconfu Standard License v1.0 (https://www.iconfu.com/iconfu_standard_license) - Incors GmbH</desc>
	<g fill="none" fill-rule="nonzero" style="mix-blend-mode: normal">
		<g color="#1b8f00" class="color-1">
			<path d="M551.24,684.46c12.21,-3.48 24.55,-7.48 36.86,-10.51c32.64,-8.04 65.82,-15.19 98.18,-24.16c18.56,-5.15 36.73,-11.06 54.01,-19.25c60.89,89.77 110.31,184.04 142.42,262.96c5.11,12.59 -7.16,26.32 -20.77,20.88l-125.94,-50.38c-29.09,-13.13 -59.24,-5.82 -76.62,17.26l-63.38,84.17c-6.37,8.47 -24.51,9.82 -28.33,-5.84c-23.01,-94.58 -34.75,-186.75 -47.64,-266.92c10.46,-2.48 20.85,-5.26 31.21,-8.21zM360.45,693.3c35.68,11.5 73.22,12.74 110.12,8.35c-4.43,76.62 -4.86,166.49 -17.71,258.94c-1.98,14.21 -18.63,17.65 -27.16,9.11l-73.7,-73.7c-20.49,-20.49 -50.08,-25.2 -78.6,-15.82l-116.54,38.33c-13.44,4.42 -23.81,-8.61 -20.27,-19.96c25.18,-80.74 68.44,-178.31 126.63,-268.2c23.41,27.49 53.78,48.95 97.23,62.95z" fill="currentColor"/>
		</g>
		<path d="M512,127c124.26,0 225,100.74 225,225c0,124.26 -100.74,225 -225,225c-124.26,0 -225,-100.74 -225,-225c0,-124.26 100.74,-225 225,-225zM512,193c-87.81,0 -159,71.19 -159,159c0,87.81 71.19,159 159,159c87.81,0 159,-71.19 159,-159c0,-87.81 -71.19,-159 -159,-159z" visibility="hidden"/>
		<g color="#90d621" class="color-2">
			<path d="M230.15,216.93c26.97,-56.28 70.06,-141.98 144.32,-174.46c70.42,-30.8 144.91,14.39 205.97,32.48c51.91,15.38 165.67,18.09 203.61,68.78c31.3,41.8 21.71,130.04 35.03,179.69c26.46,98.6 9.96,179.49 -28.46,226.28c-50.09,61.02 -92.25,64.13 -210.18,93.18c-38.93,9.59 -129.85,45.85 -210.18,19.96c-84.37,-27.19 -111.29,-88.16 -140.11,-161.94c-16.82,-43.06 -72.61,-72.52 -70.06,-141.99c3.24,-88.3 45.91,-91.6 70.06,-141.98zM512,128c-123.71,0 -224,100.29 -224,224c0,123.71 100.29,224 224,224c123.71,0 224,-100.29 224,-224c0,-123.71 -100.29,-224 -224,-224zM672,352c0,88.36 -71.63,160 -160,160c-88.37,0 -160,-71.64 -160,-160c0,-88.37 71.63,-160 160,-160c88.37,0 160,71.63 160,160z" fill="currentColor"/>
		</g>
	</g>
</svg>